<svg width="105" height="105" viewBox="0 0 105 105" fill="none" xmlns="http://www.w3.org/2000/svg">
<path d="M83.1762 72.0857C81.7867 74.2101 80.1905 76.1853 78.4032 77.9734C76.7077 79.6681 74.8458 81.1945 72.8485 82.534C70.9898 83.7791 69.0114 84.8569 66.9342 85.7494C64.7496 86.6869 62.4574 87.4186 60.08 87.9189C57.6446 88.4316 55.1233 88.7039 52.5375 88.7039C50.0887 88.7039 47.6979 88.4586 45.3829 87.9968C43.1519 87.5531 40.9961 86.9018 38.9315 86.0717C36.6898 85.1695 34.5575 84.0547 32.5591 82.7473C30.4354 81.3569 28.4601 79.7607 26.6723 77.9734C24.9773 76.278 23.4506 74.4168 22.1116 72.4187C20.8664 70.5592 19.7886 68.5816 18.8963 66.5039C17.9581 64.3204 17.2266 62.0278 16.7268 59.6508C16.2142 57.2155 15.9411 54.6924 15.9411 52.1078C15.9411 49.6585 16.1869 47.2667 16.6483 44.952C17.0924 42.7217 17.7444 40.5669 18.5743 38.5024C19.4759 36.259 20.5919 34.1272 21.8982 32.129C23.2881 30.0062 24.8848 28.0295 26.6717 26.2413C28.3666 24.5467 30.2291 23.0202 32.2265 21.6824C34.0853 20.4372 36.0638 19.3594 38.1397 18.467C40.3252 17.5278 42.6177 16.7978 44.9948 16.2958C47.4303 15.7848 49.9516 15.5117 52.5375 15.5117C54.9871 15.5117 57.378 15.7577 59.693 16.2179C61.9236 16.6617 64.0787 17.3129 66.1434 18.1447C68.3856 19.0453 70.5182 20.1617 72.5155 21.4691C74.6391 22.8578 76.6159 24.454 78.404 26.2413C80.0978 27.9368 81.6251 29.7979 82.9638 31.7977C84.2081 33.6563 85.2867 35.6348 86.1791 37.7108C87.1175 39.896 87.8483 42.1885 88.3487 44.5656C88.8605 47.0009 89.1345 49.5224 89.1345 52.1078C89.1345 54.5562 88.8876 56.9481 88.4266 59.2628C87.9829 61.4931 87.3308 63.6478 86.5007 65.7124C85.5984 67.9558 84.4837 70.0884 83.1762 72.0857ZM75.9105 87.1208C76.419 86.7812 76.9177 86.4253 77.4115 86.0635C76.9194 86.4269 76.419 86.7812 75.9105 87.1208ZM15.7671 72.5967C15.9033 72.8403 16.0431 73.0823 16.1846 73.3243C16.0443 73.0823 15.9033 72.8403 15.7671 72.5967ZM15.0286 71.2064C15.1027 71.3516 15.1753 71.4959 15.2513 71.6403C15.176 71.4959 15.1027 71.3516 15.0286 71.2064ZM10.5192 54.6251C10.5246 54.7211 10.5317 54.8187 10.5381 54.9147C10.5317 54.8187 10.5253 54.7211 10.5192 54.6251ZM29.1638 17.0939C28.6556 17.4351 28.1577 17.7895 27.6659 18.1512C28.1567 17.7879 28.6556 17.4351 29.1638 17.0939ZM89.3059 31.6164C89.1714 31.3744 89.0328 31.1341 88.8925 30.8954C89.0319 31.1357 89.1714 31.3744 89.3059 31.6164ZM88.4758 30.1875C88.1756 29.697 87.8705 29.2122 87.5514 28.7349C87.8705 29.2122 88.1764 29.697 88.4758 30.1875ZM104.242 45.6262L94.3078 46.8713V46.8754C94.1634 45.7132 93.9731 44.5623 93.7352 43.4312C93.1627 40.6932 92.3236 38.0553 91.2458 35.5413C91.0465 35.0754 90.8307 34.6169 90.615 34.1592L90.6167 34.1616L99.673 29.8931C98.5689 27.5554 97.305 25.3079 95.8794 23.1752C93.9739 20.3273 91.797 17.6755 89.383 15.2623C86.837 12.7154 84.0268 10.4343 81.0001 8.45755C80.2701 7.98017 79.5269 7.52164 78.7723 7.08117L73.7311 15.7323L73.7327 15.734C71.9643 14.7004 70.1154 13.7924 68.195 13.023C66.0124 12.147 63.7349 11.4596 61.3889 10.956L63.4962 1.15982C63.2409 1.10568 62.9845 1.04908 62.7272 0.998229C59.4309 0.346133 56.0249 -6.72513e-07 52.5375 -6.72513e-07C48.8551 -6.72513e-07 45.2624 0.384701 41.7965 1.11062C38.4088 1.82013 35.1423 2.85937 32.032 4.19227C29.0709 5.46119 26.2525 6.99587 23.6043 8.76678C22.3583 9.59933 21.1564 10.495 19.9885 11.4309L26.2429 19.2454C25.0318 20.2166 23.8681 21.2444 22.7716 22.3427C20.7146 24.399 18.8723 26.6695 17.2747 29.1138L17.3323 29.0293L8.95852 23.5394L8.88733 23.6452C7.02742 26.4915 5.43819 29.5305 4.15713 32.7262C2.97745 35.666 2.05845 38.7411 1.42924 41.9179C0.775582 45.2128 0.430176 48.6201 0.430176 52.1078C0.430176 54.3028 0.569535 56.4658 0.833901 58.5902L10.7681 57.3442L10.7672 57.3336C10.9114 58.4992 11.1014 59.6508 11.3395 60.7852C11.9126 63.5207 12.7522 66.1594 13.8287 68.6735C14.0283 69.1394 14.243 69.5979 14.4583 70.0548L5.40193 74.3225C6.50574 76.661 7.76974 78.9069 9.19557 81.0395C11.1014 83.8882 13.2779 86.5393 15.6918 88.9533C18.2376 91.4993 21.0485 93.7804 24.0753 95.7572C24.8043 96.2346 25.548 96.6931 26.3025 97.1352L31.3442 88.4824L31.3432 88.4808C33.1112 89.5143 34.96 90.4223 36.8799 91.1934C39.2564 92.1448 41.7398 92.888 44.3063 93.3957C44.098 93.3547 43.8936 93.303 43.6859 93.2587L41.5796 103.055C41.835 103.109 42.0903 103.166 42.3486 103.217C45.644 103.869 49.0499 104.215 52.5375 104.215C56.2197 104.215 59.8125 103.832 63.2777 103.104C66.666 102.395 69.9325 101.355 73.0429 100.024C76.0032 98.7552 78.8223 97.2205 81.4693 95.4496C82.7169 94.6154 83.9185 93.7197 85.0857 92.7854L78.8314 84.9693C80.0437 83.9981 81.2068 82.9704 82.3035 81.8745C84.336 79.8411 86.1578 77.5986 87.7425 75.1854L96.1172 80.6761L96.1886 80.5703C98.0481 77.7233 99.6377 74.6859 100.918 71.4894C102.098 68.548 103.016 65.4745 103.645 62.2969C104.299 59.002 104.645 55.5938 104.645 52.1078C104.645 49.912 104.506 47.749 104.242 45.6262Z" fill="url(#paint0_radial_2387_221)"/>
<path d="M13.8288 68.6737C12.7522 66.1596 11.9127 63.5208 11.3395 60.7853C11.1021 59.6542 10.9134 58.5067 10.7682 57.3444L0.833984 58.5904C1.01247 60.0274 1.24731 61.4481 1.54145 62.8483C2.2508 66.2367 3.2889 69.5037 4.62278 72.6133C4.8705 73.1899 5.13445 73.7567 5.40202 74.3227L14.4584 70.0549C14.243 69.5981 14.0284 69.1396 13.8288 68.6737Z" fill="#F8FBF7"/>
<path d="M96.1174 80.6763L87.7427 75.1855C86.158 77.5987 84.3362 79.8413 82.3036 81.8746C81.207 82.9705 80.0439 83.9983 78.8315 84.9694L85.0859 92.7856C86.5862 91.5847 88.0257 90.3109 89.3832 88.9534C91.8997 86.4369 94.1554 83.662 96.1174 80.6763Z" fill="#F8FBF7"/>
<path d="M36.8801 91.193C34.9602 90.422 33.1114 89.514 31.3444 88.4821L26.3027 97.1349C28.4908 98.412 30.7805 99.5349 33.156 100.488C35.8589 101.572 38.6743 102.433 41.5798 103.055L43.6861 93.2584C41.3401 92.7548 39.0627 92.0674 36.8801 91.193Z" fill="#F8FBF7"/>
<path d="M91.2453 35.5415C92.3231 38.0555 93.1623 40.6934 93.7348 43.4314C93.9718 44.5617 94.1621 45.71 94.3073 46.8715L104.241 45.6264C104.062 44.1877 103.828 42.767 103.534 41.3668C102.824 37.98 101.786 34.713 100.453 31.6018C100.206 31.0252 99.94 30.4584 99.6726 29.8932L90.6162 34.1618C90.8319 34.6187 91.0468 35.0772 91.2453 35.5415Z" fill="#F8FBF7"/>
<path d="M68.1947 13.0233C70.1152 13.7927 71.9632 14.7007 73.7308 15.7326L78.7721 7.08143C76.5836 5.80267 74.2952 4.67976 71.9189 3.72663C69.2162 2.64391 66.4005 1.78183 63.496 1.16008L61.3887 10.9563C63.7347 11.4599 66.0122 12.1473 68.1947 13.0233Z" fill="#F8FBF7"/>
<path d="M22.7721 22.3428C23.8685 21.2445 25.0323 20.2167 26.2434 19.2456L19.989 11.4311C18.4898 12.6303 17.0492 13.9049 15.6923 15.2624C13.1759 17.7781 10.9202 20.553 8.95898 23.5396L17.3328 29.0295C18.9176 26.6163 20.7391 24.3737 22.7721 22.3428Z" fill="#F8FBF7"/>
<mask id="mask0_2387_221" style="mask-type:luminance" maskUnits="userSpaceOnUse" x="15" y="14" width="75" height="76">
<path d="M39.0729 20.6457C41.1524 19.7598 43.2997 19.0872 45.4866 18.6287C47.8098 18.1431 50.1725 17.8937 52.5374 17.8921C54.7794 17.8921 57.0213 18.1144 59.2276 18.5499C61.2804 18.9568 63.3016 19.5515 65.2653 20.3348C67.3304 21.1583 69.3311 22.1918 71.2349 23.4337C73.1846 24.7051 75.0335 26.1938 76.7429 27.9032C78.3612 29.5207 79.7802 31.267 81.0073 33.1028C82.1877 34.872 83.1826 36.7282 83.9996 38.6427C84.8855 40.7228 85.5589 42.8711 86.0149 45.0562C86.5005 47.3808 86.7523 49.7423 86.7523 52.1062C86.7523 54.3496 86.5309 56.5905 86.0937 58.7986C85.6885 60.8509 85.093 62.872 84.3096 64.8348C83.4853 66.9018 82.4534 68.9008 81.2107 70.8046C79.9394 72.7535 78.4523 74.6023 76.7429 76.3117C75.1229 77.9317 73.3782 79.3507 71.5425 80.577C69.7741 81.759 67.917 82.7523 66.0017 83.5692C63.9222 84.4567 61.7748 85.1294 59.5881 85.5862C57.2647 86.0718 54.9021 86.3228 52.5374 86.3228C50.2958 86.3228 48.0546 86.1005 45.8473 85.665C43.7948 85.2598 41.773 84.6634 39.8092 83.8801C37.7442 83.0566 35.7438 82.0231 33.8406 80.782C31.891 79.5098 30.0416 78.0227 28.3322 76.3117C26.7125 74.6942 25.2928 72.9479 24.0676 71.1122C22.8852 69.3429 21.8916 67.4875 21.0746 65.5714C20.1889 63.4929 19.5158 61.3439 19.0586 59.1587C18.5741 56.8341 18.3226 54.4735 18.3226 52.1079C18.3226 49.8653 18.5437 47.6244 18.9801 45.4163C19.386 43.364 19.9813 41.3421 20.7647 39.3785C21.5892 37.3131 22.6215 35.3141 23.8637 33.4103C25.1351 31.4614 26.6228 29.6126 28.3322 27.9032C29.9518 26.2832 31.6962 24.8642 33.532 23.6363C35.3011 22.456 37.1578 21.4626 39.0729 20.6457ZM21.3424 31.7658C19.9909 33.8369 18.8669 36.0122 17.9714 38.2605C17.1185 40.3956 16.4703 42.5955 16.0297 44.8282C15.5543 47.2299 15.314 49.6685 15.314 52.1062C15.314 54.6794 15.586 57.2508 16.115 59.7788C16.6113 62.1559 17.3437 64.4936 18.3082 66.7558C19.1973 68.8401 20.2783 70.8587 21.5632 72.7846C22.898 74.7803 24.4414 76.6792 26.2037 78.4411C28.0643 80.3014 30.0752 81.9189 32.1959 83.3035C34.2674 84.6536 36.4433 85.7765 38.69 86.6739C40.8262 87.5261 43.0258 88.1733 45.259 88.6154C47.6592 89.0895 50.0991 89.3315 52.5374 89.3315C55.1103 89.3315 57.68 89.0575 60.2077 88.5293C62.5867 88.0322 64.9234 87.3005 67.1849 86.3359C69.2688 85.4484 71.2891 84.3673 73.2133 83.0804C75.2106 81.7458 77.1087 80.2038 78.8706 78.4411C80.7309 76.5807 82.3493 74.5687 83.7322 72.4475C85.084 70.378 86.2077 68.2019 87.1026 65.9544C87.9556 63.8193 88.6036 61.6195 89.0449 59.3859C89.5207 56.9851 89.761 54.5465 89.761 52.1062C89.761 49.5356 89.4879 46.9641 88.9596 44.4361C88.4617 42.0582 87.7309 39.7213 86.7663 37.4591C85.8771 35.3748 84.796 33.3562 83.5115 31.4311C82.177 29.4346 80.6325 27.5358 78.8706 25.7739C77.0103 23.9135 74.9998 22.296 72.8787 20.9114C70.8076 19.5613 68.6315 18.4384 66.3855 17.541C64.2484 16.6888 62.0494 16.0416 59.8162 15.5995C57.4153 15.1254 54.9764 14.8835 52.5374 14.8835C49.9652 14.8835 47.3945 15.1574 44.8669 15.6857C42.4878 16.1827 40.1511 16.9144 37.889 17.879C35.8054 18.7665 33.7852 19.8492 31.8611 21.1345C29.8637 22.4691 27.9659 24.0112 26.2037 25.7739C24.3427 27.6342 22.7256 29.6463 21.3424 31.7658Z" fill="white"/>
</mask>
<g mask="url(#mask0_2387_221)">
<path d="M38.9502 20.5259C41.0294 19.6401 43.1764 18.9676 45.363 18.5092C47.686 18.0237 50.0483 17.7743 52.4129 17.7727C54.6546 17.7727 56.8962 17.995 59.1022 18.4304C61.1548 18.8372 63.1757 19.4318 65.1392 20.215C67.204 21.0385 69.2045 22.0718 71.108 23.3135C73.0575 24.5847 74.9061 26.0732 76.6152 27.7824C78.2334 29.3997 79.6522 31.1457 80.8791 32.9812C82.0593 34.7502 83.0542 36.6061 83.871 38.5203C84.7568 40.6002 85.4301 42.7481 85.8861 44.9329C86.3716 47.2572 86.6234 49.6183 86.6234 51.9819C86.6234 54.225 86.402 56.4656 85.9648 58.6733C85.5597 60.7253 84.9643 62.7461 84.181 64.7087C83.3568 66.7754 82.3251 68.7741 81.0826 70.6776C79.8113 72.6262 78.3244 74.4748 76.6152 76.1839C74.9955 77.8037 73.251 79.2225 71.4156 80.4486C69.6473 81.6304 67.7905 82.6236 65.8754 83.4404C63.7962 84.3278 61.6492 85.0003 59.4627 85.4571C57.1396 85.9426 54.7773 86.1936 52.4129 86.1936C50.1716 86.1936 47.9307 85.9713 45.7237 85.5359C43.6715 85.1307 41.6499 84.5345 39.6864 83.7513C37.6216 82.9278 35.6216 81.8945 33.7186 80.6536C31.7692 79.3816 29.92 77.8947 28.2109 76.1839C26.5914 74.5666 25.1718 72.8206 23.9468 70.9851C22.7646 69.2161 21.7711 67.361 20.9542 65.4452C20.0687 63.367 19.3956 61.2182 18.9384 59.0334C18.4541 56.7092 18.2026 54.3488 18.2026 51.9836C18.2026 49.7413 18.4236 47.5007 18.86 45.293C19.2658 43.241 19.8611 41.2194 20.6444 39.256C21.4687 37.1909 22.501 35.1922 23.743 33.2887C25.0142 31.3401 26.5017 29.4915 28.2109 27.7824C29.8303 26.1626 31.5744 24.7438 33.41 23.5161C35.1788 22.3359 37.0353 21.3427 38.9502 20.5259ZM21.222 31.6444C19.8707 33.7152 18.7469 35.8902 17.8514 38.1381C16.9986 40.2729 16.3506 42.4725 15.91 44.7049C15.4346 47.1063 15.1943 49.5445 15.1943 51.9819C15.1943 54.5547 15.4663 57.1258 15.9953 59.6534C16.4915 62.0302 17.2239 64.3675 18.1882 66.6294C19.0772 68.7134 20.1581 70.7317 21.4427 72.6574C22.7774 74.6527 24.3206 76.5513 26.0827 78.313C27.943 80.173 29.9536 81.7903 32.0741 83.1747C34.1453 84.5246 36.321 85.6474 38.5673 86.5446C40.7032 87.3967 42.9026 88.0438 45.1355 88.4859C47.5354 88.9599 49.975 89.2018 52.4129 89.2018C54.9855 89.2018 57.5549 88.9279 60.0822 88.3998C62.461 87.9028 64.7974 87.1712 67.0586 86.2067C69.1421 85.3193 71.1621 84.2384 73.0862 82.9516C75.0832 81.6173 76.981 80.0754 78.7427 78.313C80.6028 76.4529 82.2209 74.4412 83.6037 72.3203C84.9552 70.2511 86.0788 68.0753 86.9736 65.8282C87.8266 63.6934 88.4745 61.4938 88.9157 59.2606C89.3914 56.8601 89.6317 54.4218 89.6317 51.9819C89.6317 49.4116 89.3586 46.8405 88.8304 44.3129C88.3326 41.9354 87.6018 39.5988 86.6374 37.3369C85.7483 35.2529 84.6674 33.2346 83.383 31.3098C82.0487 29.3136 80.5044 27.415 78.7427 25.6533C76.8826 23.7933 74.8724 22.176 72.7516 20.7916C70.6807 19.4417 68.5049 18.3189 66.2593 17.4217C64.1224 16.5696 61.9237 15.9225 59.6908 15.4804C57.2902 15.0064 54.8516 14.7645 52.4129 14.7645C49.8411 14.7645 47.2707 15.0384 44.7434 15.5666C42.3647 16.0636 40.0282 16.7951 37.7665 17.7596C35.6831 18.647 33.6631 19.7295 31.7393 21.0147C29.7422 22.349 27.8447 23.8909 26.0827 25.6533C24.2219 27.5134 22.605 29.5252 21.222 31.6444Z" fill="#0A533C"/>
</g>
<mask id="mask1_2387_221" style="mask-type:luminance" maskUnits="userSpaceOnUse" x="0" y="58" width="7" height="17">
<path d="M6.08865 73.9987C5.82494 73.441 5.5632 72.884 5.31967 72.3148C4.00662 69.2503 2.98328 66.0301 2.2832 62.6917C1.99324 61.3137 1.76218 59.9118 1.58632 58.4961L0.833984 58.5904C1.01247 60.0275 1.24731 61.4482 1.54145 62.8483C2.2508 66.2368 3.2889 69.5038 4.62278 72.6134C4.8705 73.19 5.13445 73.7568 5.40202 74.3227L6.08865 73.9987Z" fill="white"/>
</mask>
<g mask="url(#mask1_2387_221)">
<path d="M6.08865 73.9987C5.82494 73.441 5.5632 72.884 5.31967 72.3148C4.00662 69.2503 2.98328 66.0301 2.2832 62.6917C1.99324 61.3137 1.76218 59.9118 1.58632 58.4961L0.833984 58.5904C1.01247 60.0275 1.24731 61.4482 1.54145 62.8483C2.2508 66.2368 3.2889 69.5038 4.62278 72.6134C4.8705 73.19 5.13445 73.7568 5.40202 74.3227L6.08865 73.9987Z" fill="#D5D5D5"/>
</g>
<mask id="mask2_2387_221" style="mask-type:luminance" maskUnits="userSpaceOnUse" x="84" y="80" width="13" height="13">
<path d="M88.8459 88.4171C87.5097 89.7549 86.0907 91.009 84.6118 92.1935L85.0859 92.7857C86.5862 91.5848 88.0257 90.311 89.3832 88.9535C91.8997 86.437 94.1554 83.6621 96.1174 80.6764L95.4825 80.2614C93.55 83.2028 91.3272 85.9375 88.8459 88.4171Z" fill="white"/>
</mask>
<g mask="url(#mask2_2387_221)">
<path d="M88.8459 88.4171C87.5097 89.7549 86.0907 91.009 84.6118 92.1935L85.0859 92.7857C86.5862 91.5848 88.0257 90.311 89.3832 88.9535C91.8997 86.437 94.1554 83.6621 96.1174 80.6764L95.4825 80.2614C93.55 83.2028 91.3272 85.9375 88.8459 88.4171Z" fill="#D5D5D5"/>
</g>
<mask id="mask3_2387_221" style="mask-type:luminance" maskUnits="userSpaceOnUse" x="26" y="96" width="16" height="8">
<path d="M33.4382 99.7837C31.0957 98.8461 28.842 97.7371 26.6856 96.4781L26.3027 97.1351C28.4908 98.4122 30.7805 99.5351 33.156 100.488C35.8589 101.573 38.6743 102.433 41.5798 103.055L41.738 102.313C38.8762 101.701 36.1021 100.852 33.4382 99.7837Z" fill="white"/>
</mask>
<g mask="url(#mask3_2387_221)">
<path d="M33.4382 99.7837C31.0957 98.8461 28.842 97.7371 26.6856 96.4781L26.3027 97.1351C28.4908 98.4122 30.7805 99.5351 33.156 100.488C35.8589 101.573 38.6743 102.433 41.5798 103.055L41.738 102.313C38.8762 101.701 36.1021 100.852 33.4382 99.7837Z" fill="#D5D5D5"/>
</g>
<mask id="mask4_2387_221" style="mask-type:luminance" maskUnits="userSpaceOnUse" x="98" y="29" width="7" height="17">
<path d="M99.7559 31.9002C101.069 34.9662 102.094 38.1849 102.792 41.5233C103.082 42.903 103.312 44.3031 103.489 45.7189L104.242 45.6262C104.062 44.1875 103.828 42.7668 103.535 41.3666C102.824 37.9798 101.786 34.7128 100.453 31.6016C100.206 31.025 99.9404 30.4582 99.673 29.893L98.9873 30.2162C99.2506 30.774 99.5123 31.3326 99.7559 31.9002Z" fill="white"/>
</mask>
<g mask="url(#mask4_2387_221)">
<path d="M99.7559 31.9002C101.069 34.9662 102.094 38.1849 102.792 41.5233C103.082 42.903 103.312 44.3031 103.489 45.7189L104.242 45.6262C104.062 44.1875 103.828 42.7668 103.535 41.3666C102.824 37.9798 101.786 34.7128 100.453 31.6016C100.206 31.025 99.9404 30.4582 99.673 29.893L98.9873 30.2162C99.2506 30.774 99.5123 31.3326 99.7559 31.9002Z" fill="#D5D5D5"/>
</g>
<mask id="mask5_2387_221" style="mask-type:luminance" maskUnits="userSpaceOnUse" x="63" y="1" width="16" height="7">
<path d="M71.6369 4.43092C73.9787 5.3701 76.2344 6.47742 78.39 7.7365L78.7722 7.08112C76.5838 5.80236 74.2953 4.67945 71.9191 3.72632C69.2164 2.6436 66.4006 1.78151 63.4961 1.15977L63.3369 1.90209C66.1988 2.51482 68.9736 3.36296 71.6369 4.43092Z" fill="white"/>
</mask>
<g mask="url(#mask5_2387_221)">
<path d="M71.6369 4.43092C73.9787 5.3701 76.2344 6.47742 78.39 7.7365L78.7722 7.08112C76.5838 5.80236 74.2953 4.67945 71.9191 3.72632C69.2164 2.6436 66.4006 1.78151 63.4961 1.15977L63.3369 1.90209C66.1988 2.51482 68.9736 3.36296 71.6369 4.43092Z" fill="#D5D5D5"/>
</g>
<mask id="mask6_2387_221" style="mask-type:luminance" maskUnits="userSpaceOnUse" x="0" y="23" width="10" height="36">
<path d="M1.58623 58.496C1.32671 56.4035 1.1889 54.2709 1.1889 52.1079C1.1889 48.6703 1.52849 45.3138 2.1732 42.0673C2.7938 38.9347 3.69894 35.9064 4.86074 33.0085C6.12383 29.8587 7.69001 26.8648 9.52244 24.0596L9.59224 23.9554L8.95852 23.5395L8.88733 23.6454C7.02742 26.4916 5.43819 29.5306 4.15713 32.7263C2.97745 35.6661 2.05845 38.7412 1.42924 41.918C0.775582 45.2129 0.430176 48.6202 0.430176 52.1079C0.430176 54.3029 0.569535 56.4659 0.833901 58.5903L1.58623 58.496Z" fill="white"/>
</mask>
<g mask="url(#mask6_2387_221)">
<path d="M1.58623 58.496C1.32671 56.4035 1.1889 54.2709 1.1889 52.1079C1.1889 48.6703 1.52849 45.3138 2.1732 42.0673C2.7938 38.9347 3.69894 35.9064 4.86074 33.0085C6.12383 29.8587 7.69001 26.8648 9.52244 24.0596L9.59224 23.9554L8.95852 23.5395L8.88733 23.6454C7.02742 26.4916 5.43819 29.5306 4.15713 32.7263C2.97745 35.6661 2.05845 38.7412 1.42924 41.918C0.775582 45.2129 0.430176 48.6202 0.430176 52.1079C0.430176 54.3029 0.569535 56.4659 0.833901 58.5903L1.58623 58.496Z" fill="#0A533C"/>
</g>
<mask id="mask7_2387_221" style="mask-type:luminance" maskUnits="userSpaceOnUse" x="5" y="73" width="22" height="25">
<path d="M26.6854 96.4785C25.9404 96.0446 25.2083 95.5927 24.4886 95.1235C21.5066 93.1738 18.7373 90.9263 16.2285 88.4171C13.8488 86.0384 11.7043 83.4251 9.82668 80.6182C8.42176 78.5184 7.17629 76.3029 6.08848 73.9988L5.40186 74.3228C6.50566 76.6614 7.76966 78.9072 9.1955 81.0399C11.1013 83.8886 13.2779 86.5396 15.6918 88.9536C18.2375 91.4996 21.0484 93.7807 24.0753 95.7575C24.8042 96.2349 25.5479 96.6934 26.3025 97.1355L26.6854 96.4785Z" fill="white"/>
</mask>
<g mask="url(#mask7_2387_221)">
<path d="M26.6854 96.4785C25.9404 96.0446 25.2083 95.5927 24.4886 95.1235C21.5066 93.1738 18.7373 90.9263 16.2285 88.4171C13.8488 86.0384 11.7043 83.4251 9.82668 80.6182C8.42176 78.5184 7.17629 76.3029 6.08848 73.9988L5.40186 74.3228C6.50566 76.6614 7.76966 78.9072 9.1955 81.0399C11.1013 83.8886 13.2779 86.5396 15.6918 88.9536C18.2375 91.4996 21.0484 93.7807 24.0753 95.7575C24.8042 96.2349 25.5479 96.6934 26.3025 97.1355L26.6854 96.4785Z" fill="#0A533C"/>
</g>
<mask id="mask8_2387_221" style="mask-type:luminance" maskUnits="userSpaceOnUse" x="41" y="92" width="45" height="13">
<path d="M84.6116 92.1934C83.4608 93.1145 82.2772 93.9954 81.0484 94.819C78.4392 96.5636 75.6611 98.0762 72.7443 99.3254C69.679 100.639 66.46 101.663 63.122 102.363C59.7067 103.079 56.1662 103.457 52.5375 103.457C49.1012 103.457 45.7449 103.116 42.496 102.472C42.2428 102.422 41.9909 102.368 41.7378 102.314L41.5796 103.055C41.8349 103.109 42.0903 103.166 42.3486 103.217C45.644 103.869 49.0499 104.215 52.5375 104.215C56.2197 104.215 59.8124 103.832 63.2776 103.104C66.666 102.395 69.9325 101.356 73.0428 100.024C76.0031 98.7553 78.8223 97.2206 81.4692 95.4497C82.7168 94.6155 83.9185 93.7198 85.0857 92.7856L84.6116 92.1934Z" fill="white"/>
</mask>
<g mask="url(#mask8_2387_221)">
<path d="M84.6116 92.1934C83.4608 93.1145 82.2772 93.9954 81.0484 94.819C78.4392 96.5636 75.6611 98.0762 72.7443 99.3254C69.679 100.639 66.46 101.663 63.122 102.363C59.7067 103.079 56.1662 103.457 52.5375 103.457C49.1012 103.457 45.7449 103.116 42.496 102.472C42.2428 102.422 41.9909 102.368 41.7378 102.314L41.5796 103.055C41.8349 103.109 42.0903 103.166 42.3486 103.217C45.644 103.869 49.0499 104.215 52.5375 104.215C56.2197 104.215 59.8124 103.832 63.2776 103.104C66.666 102.395 69.9325 101.356 73.0428 100.024C76.0031 98.7553 78.8223 97.2206 81.4692 95.4497C82.7168 94.6155 83.9185 93.7198 85.0857 92.7856L84.6116 92.1934Z" fill="#0A533C"/>
</g>
<mask id="mask9_2387_221" style="mask-type:luminance" maskUnits="userSpaceOnUse" x="95" y="45" width="10" height="36">
<path d="M104.242 45.6262L103.489 45.7189V45.7205C103.749 47.813 103.887 49.944 103.887 52.1078C103.887 55.5446 103.546 58.9011 102.902 62.1484C102.281 65.2801 101.377 68.3076 100.214 71.208C98.9521 74.3561 97.3862 77.35 95.5521 80.1569L95.4824 80.2611L96.1173 80.6761L96.1887 80.5703C98.0482 77.7233 99.6378 74.6859 100.918 71.4894C102.099 68.548 103.016 65.4745 103.646 62.2969C104.299 59.002 104.645 55.5938 104.645 52.1078C104.645 49.912 104.506 47.749 104.242 45.6262Z" fill="white"/>
</mask>
<g mask="url(#mask9_2387_221)">
<path d="M104.242 45.6262L103.489 45.7189V45.7205C103.749 47.813 103.887 49.944 103.887 52.1078C103.887 55.5446 103.546 58.9011 102.902 62.1484C102.281 65.2801 101.377 68.3076 100.214 71.208C98.9521 74.3561 97.3862 77.35 95.5521 80.1569L95.4824 80.2611L96.1173 80.6761L96.1887 80.5703C98.0482 77.7233 99.6378 74.6859 100.918 71.4894C102.099 68.548 103.016 65.4745 103.646 62.2969C104.299 59.002 104.645 55.5938 104.645 52.1078C104.645 49.912 104.506 47.749 104.242 45.6262Z" fill="#0A533C"/>
</g>
<mask id="mask10_2387_221" style="mask-type:luminance" maskUnits="userSpaceOnUse" x="78" y="7" width="22" height="24">
<path d="M78.3901 7.73667C79.1349 8.17058 79.8666 8.62254 80.5859 9.09172C83.5692 11.0414 86.3383 13.2897 88.8466 15.7981C91.2262 18.1776 93.3703 20.7901 95.2478 23.597C96.6537 25.6968 97.8997 27.9123 98.9873 30.2164L99.6731 29.8932C98.569 27.5555 97.305 25.308 95.8794 23.1754C93.974 20.3275 91.7971 17.6756 89.3831 15.2624C86.837 12.7156 84.0269 10.4345 81.0002 8.45767C80.2701 7.98029 79.527 7.52177 78.7724 7.0813L78.3901 7.73667Z" fill="white"/>
</mask>
<g mask="url(#mask10_2387_221)">
<path d="M78.3901 7.73667C79.1349 8.17058 79.8666 8.62254 80.5859 9.09172C83.5692 11.0414 86.3383 13.2897 88.8466 15.7981C91.2262 18.1776 93.3703 20.7901 95.2478 23.597C96.6537 25.6968 97.8997 27.9123 98.9873 30.2164L99.6731 29.8932C98.569 27.5555 97.305 25.308 95.8794 23.1754C93.974 20.3275 91.7971 17.6756 89.3831 15.2624C86.837 12.7156 84.0269 10.4345 81.0002 8.45767C80.2701 7.98029 79.527 7.52177 78.7724 7.0813L78.3901 7.73667Z" fill="#0A533C"/>
</g>
<mask id="mask11_2387_221" style="mask-type:luminance" maskUnits="userSpaceOnUse" x="19" y="0" width="45" height="13">
<path d="M20.4625 12.0226C21.6138 11.1007 22.7976 10.2197 24.0258 9.39784C26.6351 7.65154 29.4132 6.13982 32.3298 4.88977C35.3951 3.57655 38.6136 2.55207 41.9527 1.85404C45.3678 1.13796 48.9084 0.758198 52.5373 0.758198C55.9734 0.758198 59.3307 1.09942 62.5786 1.74332C62.8317 1.79335 63.0836 1.84748 63.3367 1.90244L63.4959 1.16011C63.2406 1.10597 62.9843 1.04938 62.727 0.998525C59.4306 0.346429 56.0247 0.000291522 52.5373 0.000291522C48.8549 0.000291522 45.2621 0.38499 41.7963 1.11091C38.4086 1.82042 35.142 2.85966 32.0318 4.19256C29.0706 5.46148 26.2523 6.99616 23.6041 8.76708C22.3581 9.59963 21.1561 10.4953 19.9883 11.4312L20.4625 12.0226Z" fill="white"/>
</mask>
<g mask="url(#mask11_2387_221)">
<path d="M20.4625 12.0226C21.6138 11.1007 22.7976 10.2197 24.0258 9.39784C26.6351 7.65154 29.4132 6.13982 32.3298 4.88977C35.3951 3.57655 38.6136 2.55207 41.9527 1.85404C45.3678 1.13796 48.9084 0.758198 52.5373 0.758198C55.9734 0.758198 59.3307 1.09942 62.5786 1.74332C62.8317 1.79335 63.0836 1.84748 63.3367 1.90244L63.4959 1.16011C63.2406 1.10597 62.9843 1.04938 62.727 0.998525C59.4306 0.346429 56.0247 0.000291522 52.5373 0.000291522C48.8549 0.000291522 45.2621 0.38499 41.7963 1.11091C38.4086 1.82042 35.142 2.85966 32.0318 4.19256C29.0706 5.46148 26.2523 6.99616 23.6041 8.76708C22.3581 9.59963 21.1561 10.4953 19.9883 11.4312L20.4625 12.0226Z" fill="#0A533C"/>
</g>
<mask id="mask12_2387_221" style="mask-type:luminance" maskUnits="userSpaceOnUse" x="8" y="11" width="13" height="13">
<path d="M16.2284 15.7981C17.5661 14.4603 18.9849 13.2061 20.4632 12.0225L19.989 11.4311C18.4898 12.6303 17.0492 13.905 15.6923 15.2625C13.1759 17.7782 10.9202 20.5531 8.95898 23.5396L9.59271 23.9555C11.5257 21.0124 13.7494 18.2777 16.2284 15.7981Z" fill="white"/>
</mask>
<g mask="url(#mask12_2387_221)">
<path d="M16.2284 15.7981C17.5661 14.4603 18.9849 13.2061 20.4632 12.0225L19.989 11.4311C18.4898 12.6303 17.0492 13.905 15.6923 15.2625C13.1759 17.7782 10.9202 20.5531 8.95898 23.5396L9.59271 23.9555C11.5257 21.0124 13.7494 18.2777 16.2284 15.7981Z" fill="#D5D5D5"/>
</g>
<path d="M61.4878 96.0236C61.4878 94.8506 62.4388 93.9008 63.6114 93.9008C64.7848 93.9008 65.7358 94.8506 65.7358 96.0236C65.7358 97.1957 64.7848 98.1464 63.6114 98.1464C62.4388 98.1464 61.4878 97.1957 61.4878 96.0236Z" fill="black" fill-opacity="0.3"/>
<path d="M39.9468 8.19106C39.9468 7.01893 40.8974 6.06745 42.071 6.06745C43.2438 6.06745 44.1948 7.01893 44.1948 8.19106C44.1948 9.36401 43.2438 10.3163 42.071 10.3163C40.8974 10.3163 39.9468 9.36401 39.9468 8.19106Z" fill="black" fill-opacity="0.3"/>
<path d="M5.96729 44.1423C5.96729 42.9701 6.91828 42.0203 8.0909 42.0203C9.26328 42.0203 10.2153 42.9701 10.2153 44.1423C10.2153 45.3168 9.26328 46.2675 8.0909 46.2675C6.91828 46.2675 5.96729 45.3168 5.96729 44.1423Z" fill="black" fill-opacity="0.3"/>
<path d="M17.7993 83.4331C17.7993 82.2602 18.7506 81.3087 19.9233 81.3087C21.096 81.3087 22.047 82.2602 22.047 83.4331C22.047 84.6061 21.096 85.5575 19.9233 85.5575C18.7506 85.5575 17.7993 84.6061 17.7993 83.4331Z" fill="black" fill-opacity="0.3"/>
<path d="M94.2549 62.499C94.2549 61.3268 95.2055 60.3753 96.3785 60.3753C97.5515 60.3753 98.5021 61.3268 98.5021 62.499C98.5021 63.6719 97.5515 64.6217 96.3785 64.6217C95.2055 64.6217 94.2549 63.6719 94.2549 62.499Z" fill="black" fill-opacity="0.3"/>
<path d="M83.7871 21.9958C83.7871 20.8236 84.7386 19.8722 85.9107 19.8722C87.0837 19.8722 88.0352 20.8236 88.0352 21.9958C88.0352 23.1687 87.0837 24.1186 85.9107 24.1186C84.7386 24.1186 83.7871 23.1687 83.7871 21.9958Z" fill="black" fill-opacity="0.3"/>
<mask id="mask13_2387_221" style="mask-type:luminance" maskUnits="userSpaceOnUse" x="17" y="17" width="71" height="70">
<path d="M25.8847 74.2432C26.1656 74.5794 26.4517 74.9131 26.7471 75.2427C26.4524 74.9131 26.1656 74.5794 25.8847 74.2432ZM24.9946 73.1177C25.154 73.3256 25.3157 73.5351 25.4797 73.7396C25.3157 73.5334 25.154 73.3256 24.9946 73.1177ZM24.328 72.212C24.39 72.2973 24.4501 72.3869 24.5127 72.4739C24.4501 72.3869 24.39 72.299 24.328 72.212ZM74.0025 24.9182C73.7845 24.7467 73.5648 24.5786 73.3443 24.413C73.5657 24.5786 73.7845 24.7467 74.0025 24.9182ZM79.1894 29.9742C78.9097 29.6379 78.6241 29.3042 78.3301 28.9755C78.6241 29.3042 78.9106 29.6362 79.1894 29.9742ZM81.5619 71.0333C82.8191 69.1078 83.8651 67.0826 84.6982 64.9914C85.4924 63.005 86.0948 60.9586 86.5055 58.881C86.9473 56.6462 87.1712 54.3777 87.1712 52.1082C87.1712 49.7146 86.9169 47.3227 86.426 44.9713C85.9622 42.7585 85.2829 40.5837 84.3847 38.4799C83.5584 36.5408 82.5513 34.6609 81.3566 32.8705C81.0778 32.4548 80.7854 32.0434 80.488 31.6361C80.3968 31.5102 80.3004 31.3869 80.2067 31.2618C79.9878 30.9712 79.7639 30.6839 79.535 30.3983C79.431 30.2699 79.3288 30.1389 79.2232 30.0122C78.9292 29.659 78.6309 29.3092 78.3217 28.9662L78.2161 28.8437C77.8367 28.4246 77.4438 28.0123 77.0391 27.6059C76.6107 27.1792 76.1748 26.7652 75.7303 26.3656L75.7295 26.3639L75.6188 26.2692C75.2496 25.9397 74.8736 25.6195 74.4934 25.3094C74.359 25.1987 74.223 25.0898 74.0861 24.9825C73.7837 24.7417 73.4795 24.5085 73.1719 24.2795C73.0393 24.1823 72.9058 24.0818 72.7723 23.9855C72.3397 23.6754 71.9054 23.3721 71.4627 23.0831C69.5363 21.8259 67.5113 20.7807 65.4208 19.9459C63.4336 19.1534 61.3867 18.5519 59.3091 18.1404C57.0754 17.6985 54.8067 17.4746 52.5376 17.4746C50.1438 17.4746 47.752 17.7281 45.4005 18.2198C43.1872 18.682 41.0132 19.3638 38.9085 20.2611C36.9696 21.0883 35.0906 22.0946 33.3001 23.2893C31.442 24.5321 29.6756 25.9676 28.0359 27.6059C26.3059 29.338 24.8005 31.2086 23.5127 33.1823C22.2559 35.1095 21.2107 37.1348 20.3767 39.2234C19.5826 41.2123 18.9812 43.2587 18.5693 45.3363C18.1287 47.5711 17.9043 49.838 17.9043 52.1082C17.9043 54.5019 18.1588 56.8938 18.6496 59.246C19.1123 61.4588 19.7925 63.6319 20.6902 65.7374C21.5166 67.6757 22.5232 69.5547 23.7196 71.3451C23.9973 71.7625 24.2894 72.1723 24.588 72.5795C24.6801 72.7054 24.7745 72.8288 24.8682 72.9538C25.087 73.2445 25.3114 73.5334 25.5418 73.819C25.6448 73.9474 25.7471 74.0767 25.8521 74.2034C26.1454 74.5583 26.4462 74.9081 26.7554 75.2528C27.169 75.7133 27.5947 76.167 28.0359 76.6097C29.7671 78.3401 31.6374 79.8457 33.6114 81.1325C35.5385 82.3898 37.5626 83.4349 39.6534 84.2697C41.6413 85.0622 43.6872 85.6638 45.7648 86.0753C47.9996 86.5171 50.2683 86.7419 52.5376 86.7419C54.9311 86.7419 57.3229 86.4876 59.6745 85.9958C61.8878 85.5336 64.0627 84.8518 66.1664 83.9545C68.1054 83.1274 69.985 82.1228 71.7745 80.9264C73.6341 79.6852 75.3991 78.248 77.0391 76.6097C78.7695 74.8785 80.2751 73.007 81.5619 71.0333Z" fill="white"/>
</mask>
<g mask="url(#mask13_2387_221)">
<path d="M25.8847 74.2432C26.1656 74.5794 26.4517 74.9131 26.7471 75.2427C26.4524 74.9131 26.1656 74.5794 25.8847 74.2432ZM24.9946 73.1177C25.154 73.3256 25.3157 73.5351 25.4797 73.7396C25.3157 73.5334 25.154 73.3256 24.9946 73.1177ZM24.328 72.212C24.39 72.2973 24.4501 72.3869 24.5127 72.4739C24.4501 72.3869 24.39 72.299 24.328 72.212ZM74.0025 24.9182C73.7845 24.7467 73.5648 24.5786 73.3443 24.413C73.5657 24.5786 73.7845 24.7467 74.0025 24.9182ZM79.1894 29.9742C78.9097 29.6379 78.6241 29.3042 78.3301 28.9755C78.6241 29.3042 78.9106 29.6362 79.1894 29.9742ZM81.5619 71.0333C82.8191 69.1078 83.8651 67.0826 84.6982 64.9914C85.4924 63.005 86.0948 60.9586 86.5055 58.881C86.9473 56.6462 87.1712 54.3777 87.1712 52.1082C87.1712 49.7146 86.9169 47.3227 86.426 44.9713C85.9622 42.7585 85.2829 40.5837 84.3847 38.4799C83.5584 36.5408 82.5513 34.6609 81.3566 32.8705C81.0778 32.4548 80.7854 32.0434 80.488 31.6361C80.3968 31.5102 80.3004 31.3869 80.2067 31.2618C79.9878 30.9712 79.7639 30.6839 79.535 30.3983C79.431 30.2699 79.3288 30.1389 79.2232 30.0122C78.9292 29.659 78.6309 29.3092 78.3217 28.9662L78.2161 28.8437C77.8367 28.4246 77.4438 28.0123 77.0391 27.6059C76.6107 27.1792 76.1748 26.7652 75.7303 26.3656L75.7295 26.3639L75.6188 26.2692C75.2496 25.9397 74.8736 25.6195 74.4934 25.3094C74.359 25.1987 74.223 25.0898 74.0861 24.9825C73.7837 24.7417 73.4795 24.5085 73.1719 24.2795C73.0393 24.1823 72.9058 24.0818 72.7723 23.9855C72.3397 23.6754 71.9054 23.3721 71.4627 23.0831C69.5363 21.8259 67.5113 20.7807 65.4208 19.9459C63.4336 19.1534 61.3867 18.5519 59.3091 18.1404C57.0754 17.6985 54.8067 17.4746 52.5376 17.4746C50.1438 17.4746 47.752 17.7281 45.4005 18.2198C43.1872 18.682 41.0132 19.3638 38.9085 20.2611C36.9696 21.0883 35.0906 22.0946 33.3001 23.2893C31.442 24.5321 29.6756 25.9676 28.0359 27.6059C26.3059 29.338 24.8005 31.2086 23.5127 33.1823C22.2559 35.1095 21.2107 37.1348 20.3767 39.2234C19.5826 41.2123 18.9812 43.2587 18.5693 45.3363C18.1287 47.5711 17.9043 49.838 17.9043 52.1082C17.9043 54.5019 18.1588 56.8938 18.6496 59.246C19.1123 61.4588 19.7925 63.6319 20.6902 65.7374C21.5166 67.6757 22.5232 69.5547 23.7196 71.3451C23.9973 71.7625 24.2894 72.1723 24.588 72.5795C24.6801 72.7054 24.7745 72.8288 24.8682 72.9538C25.087 73.2445 25.3114 73.5334 25.5418 73.819C25.6448 73.9474 25.7471 74.0767 25.8521 74.2034C26.1454 74.5583 26.4462 74.9081 26.7554 75.2528C27.169 75.7133 27.5947 76.167 28.0359 76.6097C29.7671 78.3401 31.6374 79.8457 33.6114 81.1325C35.5385 82.3898 37.5626 83.4349 39.6534 84.2697C41.6413 85.0622 43.6872 85.6638 45.7648 86.0753C47.9996 86.5171 50.2683 86.7419 52.5376 86.7419C54.9311 86.7419 57.3229 86.4876 59.6745 85.9958C61.8878 85.5336 64.0627 84.8518 66.1664 83.9545C68.1054 83.1274 69.985 82.1228 71.7745 80.9264C73.6341 79.6852 75.3991 78.248 77.0391 76.6097C78.7695 74.8785 80.2751 73.007 81.5619 71.0333Z" fill="#0A533C"/>
</g>
<path d="M49.3137 84.6918C49.728 84.7304 50.1452 84.7624 50.5637 84.7845C50.1452 84.7607 49.728 84.7304 49.3137 84.6918ZM47.9594 84.5327C48.2067 84.5663 48.4554 84.5983 48.7037 84.6262C48.4554 84.5967 48.2067 84.5663 47.9594 84.5327ZM46.903 84.3728C47.003 84.3883 47.1023 84.408 47.2022 84.4252C47.1023 84.408 47.003 84.39 46.903 84.3728ZM46.9207 19.4568C46.8187 19.4741 46.7194 19.4946 46.6175 19.5126C46.7194 19.4946 46.8194 19.4741 46.9207 19.4568ZM55.3826 19.146C54.9693 19.1066 54.554 19.0746 54.1359 19.0508C54.554 19.0746 54.9693 19.105 55.3826 19.146ZM84.5594 45.1338C84.1099 42.9946 83.452 40.9333 82.608 38.9672C81.8058 37.0995 80.8355 35.3212 79.7158 33.6487C78.5125 31.8516 77.1386 30.1775 75.6146 28.6518C74.0061 27.0449 72.2286 25.6087 70.3183 24.3586C68.5211 23.1824 66.6034 22.18 64.5864 21.3688C62.7277 20.6208 60.7908 20.0351 58.7844 19.6357C58.3176 19.543 57.8466 19.4626 57.3723 19.3904C57.2262 19.3666 57.0788 19.3477 56.9314 19.3264C56.5896 19.2788 56.2458 19.2354 55.8997 19.1985C55.7447 19.1804 55.5877 19.1632 55.4313 19.1493C54.9978 19.1082 54.5604 19.0746 54.1224 19.0508L53.9712 19.0402C53.4336 19.0139 52.8927 19 52.3483 19C51.7745 19 51.2029 19.0156 50.6358 19.0443H50.6338L50.4954 19.0541C50.026 19.0812 49.5592 19.1197 49.0946 19.1648C48.9296 19.1821 48.7662 19.2017 48.6012 19.2206C48.2371 19.2624 47.8751 19.3092 47.5157 19.3633C47.3602 19.3855 47.2042 19.4084 47.0494 19.4339C46.5506 19.5143 46.0546 19.6037 45.5637 19.7062C43.4247 20.1565 41.3632 20.8143 39.3987 21.6576C37.5301 22.4606 35.7512 23.4309 34.0793 24.5506C32.2808 25.7539 30.607 27.1286 29.0815 28.6518C27.4747 30.2603 26.0387 32.037 24.789 33.9481C23.6131 35.7445 22.6096 37.663 21.7986 39.6792C21.0525 41.537 20.4657 43.4761 20.0672 45.4816C19.6519 47.5642 19.4302 49.7157 19.4302 51.9181C19.4302 54.2427 19.6759 56.5115 20.1373 58.7015C20.5869 60.8399 21.2443 62.9036 22.0886 64.8681C22.8912 66.7358 23.8608 68.5158 24.9803 70.1866C26.1854 71.9838 27.5583 73.6595 29.0835 75.1835C30.6909 76.792 32.4682 78.2275 34.3779 79.4767C36.1758 80.653 38.0931 81.6553 40.11 82.4682C41.9678 83.2146 43.9062 83.801 45.9127 84.1997C46.3788 84.2924 46.8508 84.3728 47.3243 84.4466C47.4708 84.4687 47.6182 84.4884 47.7649 84.5089C48.1074 84.5573 48.4521 84.6 48.7979 84.6369C48.9536 84.6549 49.1087 84.6722 49.2657 84.6869C49.6998 84.7288 50.1372 84.7624 50.5771 84.7845C51.1635 84.8165 51.7536 84.8354 52.3483 84.8354C54.6735 84.8354 56.9414 84.591 59.1321 84.1292C61.2708 83.6788 63.3332 83.0218 65.2977 82.1778C67.1653 81.3756 68.9452 80.4061 70.616 79.2864C72.4148 78.0815 74.0897 76.7084 75.6146 75.1835C77.2214 73.5767 78.6577 71.7984 79.9069 69.8889C81.0832 68.0909 82.0872 66.174 82.8976 64.157C83.644 62.2983 84.2313 60.3601 84.6307 58.3537C85.045 56.2711 85.2672 54.1196 85.2672 51.9181C85.2672 49.5919 85.0204 47.3239 84.5594 45.1338Z" fill="white"/>
<path d="M88.4019 51.9831C88.4019 71.8589 72.2894 87.9714 52.4136 87.9714C32.5378 87.9714 16.4253 71.8589 16.4253 51.9831C16.4253 32.1073 32.5378 15.9948 52.4136 15.9948C72.2894 15.9948 88.4019 32.1073 88.4019 51.9831ZM18.4053 51.9831C18.4053 70.7654 33.6313 85.9914 52.4136 85.9914C71.1959 85.9914 86.4219 70.7654 86.4219 51.9831C86.4219 33.2008 71.1959 17.9748 52.4136 17.9748C33.6313 17.9748 18.4053 33.2008 18.4053 51.9831Z" fill="white"/>
<rect x="89.4282" y="80.9999" width="4" height="4" transform="rotate(88.188 89.4282 80.9999)" fill="#067233"/>
<rect x="19.4282" y="17.9999" width="4" height="4" transform="rotate(88.188 19.4282 17.9999)" fill="#067233"/>
<rect x="70.519" y="5.42668" width="4" height="4" transform="rotate(66.2837 70.519 5.42668)" fill="#067233"/>
<rect x="36.0923" y="92.9999" width="4" height="4" transform="rotate(66.2837 36.0923 92.9999)" fill="#067233"/>
<rect x="6.26465" y="62.9999" width="4" height="4" transform="rotate(27.2993 6.26465 62.9999)" fill="#067233"/>
<rect x="97.2646" y="35.9999" width="4" height="4" transform="rotate(27.2993 97.2646 35.9999)" fill="#067233"/>
<defs>
<radialGradient id="paint0_radial_2387_221" cx="0" cy="0" r="1" gradientUnits="userSpaceOnUse" gradientTransform="translate(52.5378 52.1074) rotate(90) scale(52.1074 52.1076)">
<stop stop-color="#00FF26"/>
<stop offset="1" stop-color="#005127"/>
</radialGradient>
</defs>
</svg>
