<svg width="105" height="105" viewBox="0 0 105 105" fill="none" xmlns="http://www.w3.org/2000/svg">
<path d="M82.8215 72.0857C81.432 74.2101 79.8358 76.1853 78.0485 77.9734C76.353 79.6681 74.4911 81.1945 72.4938 82.534C70.6351 83.7791 68.6566 84.8569 66.5794 85.7494C64.3949 86.6869 62.1027 87.4186 59.7253 87.9189C57.2898 88.4316 54.7686 88.7039 52.1828 88.7039C49.734 88.7039 47.3431 88.4586 45.0281 87.9968C42.7971 87.5531 40.6414 86.9018 38.5767 86.0717C36.3351 85.1695 34.2028 84.0547 32.2044 82.7473C30.0807 81.3569 28.1054 79.7607 26.3176 77.9734C24.6225 76.278 23.0958 74.4168 21.7568 72.4187C20.5117 70.5592 19.4339 68.5816 18.5416 66.5039C17.6034 64.3204 16.8719 62.0278 16.3721 59.6508C15.8594 57.2155 15.5864 54.6924 15.5864 52.1078C15.5864 49.6585 15.8322 47.2667 16.2936 44.952C16.7377 42.7217 17.3897 40.5669 18.2195 38.5024C19.1211 36.259 20.2372 34.1272 21.5434 32.129C22.9334 30.0062 24.53 28.0295 26.3169 26.2413C28.0119 24.5467 29.8744 23.0202 31.8718 21.6824C33.7306 20.4372 35.7091 19.3594 37.7849 18.467C39.9705 17.5278 42.263 16.7978 44.6401 16.2958C47.0755 15.7848 49.5968 15.5117 52.1828 15.5117C54.6324 15.5117 57.0233 15.7577 59.3382 16.2179C61.5689 16.6617 63.724 17.3129 65.7887 18.1447C68.0309 19.0453 70.1634 20.1617 72.1607 21.4691C74.2844 22.8578 76.2611 24.454 78.0493 26.2413C79.7431 27.9368 81.2704 29.7979 82.609 31.7977C83.8534 33.6563 84.932 35.6348 85.8244 37.7108C86.7628 39.896 87.4936 42.1885 87.9939 44.5656C88.5058 47.0009 88.7797 49.5224 88.7797 52.1078C88.7797 54.5562 88.5328 56.9481 88.0719 59.2628C87.6281 61.4931 86.976 63.6478 86.1459 65.7124C85.2437 67.9558 84.1289 70.0884 82.8215 72.0857ZM75.5557 87.1208C76.0643 86.7812 76.563 86.4253 77.0568 86.0635C76.5646 86.4269 76.0643 86.7812 75.5557 87.1208ZM15.4124 72.5967C15.5486 72.8403 15.6883 73.0823 15.8299 73.3243C15.6896 73.0823 15.5486 72.8403 15.4124 72.5967ZM14.6739 71.2064C14.7479 71.3516 14.8206 71.4959 14.8966 71.6403C14.8213 71.4959 14.7479 71.3516 14.6739 71.2064ZM10.1645 54.6251C10.1699 54.7211 10.1769 54.8187 10.1833 54.9147C10.1769 54.8187 10.1705 54.7211 10.1645 54.6251ZM28.8091 17.0939C28.3009 17.4351 27.803 17.7895 27.3111 18.1512C27.802 17.7879 28.3009 17.4351 28.8091 17.0939ZM88.9512 31.6164C88.8167 31.3744 88.678 31.1341 88.5378 30.8954C88.6772 31.1357 88.8167 31.3744 88.9512 31.6164ZM88.1211 30.1875C87.8209 29.697 87.5157 29.2122 87.1967 28.7349C87.5157 29.2122 87.8217 29.697 88.1211 30.1875ZM103.887 45.6262L93.953 46.8713V46.8754C93.8087 45.7132 93.6184 44.5623 93.3805 43.4312C92.808 40.6932 91.9689 38.0553 90.8911 35.5413C90.6917 35.0754 90.476 34.6169 90.2603 34.1592L90.2619 34.1616L99.3183 29.8931C98.2142 27.5554 96.9502 25.3079 95.5246 23.1752C93.6192 20.3273 91.4423 17.6755 89.0283 15.2623C86.4822 12.7154 83.6721 10.4343 80.6454 8.45755C79.9153 7.98017 79.1722 7.52164 78.4176 7.08117L73.3763 15.7323L73.378 15.734C71.6095 14.7004 69.7607 13.7924 67.8402 13.023C65.6577 12.147 63.3802 11.4596 61.0342 10.956L63.1415 1.15982C62.8861 1.10568 62.6298 1.04908 62.3725 0.998229C59.0762 0.346133 55.6702 -6.72513e-07 52.1828 -6.72513e-07C48.5004 -6.72513e-07 44.9076 0.384701 41.4418 1.11062C38.0541 1.82013 34.7875 2.85937 31.6773 4.19227C28.7161 5.46119 25.8978 6.99587 23.2496 8.76678C22.0036 9.59933 20.8017 10.495 19.6338 11.4309L25.8882 19.2454C24.6771 20.2166 23.5133 21.2444 22.4169 22.3427C20.3599 24.399 18.5175 26.6695 16.9199 29.1138L16.9776 29.0293L8.60379 23.5394L8.53259 23.6452C6.67268 26.4915 5.08345 29.5305 3.80239 32.7262C2.62271 35.666 1.70371 38.7411 1.0745 41.9179C0.420846 45.2128 0.0754395 48.6201 0.0754395 52.1078C0.0754395 54.3028 0.214799 56.4658 0.479164 58.5902L10.4134 57.3442L10.4124 57.3336C10.5566 58.4992 10.7467 59.6508 10.9847 60.7852C11.5579 63.5207 12.3974 66.1594 13.474 68.6735C13.6736 69.1394 13.8882 69.5979 14.1035 70.0548L5.0472 74.3225C6.151 76.661 7.415 78.9069 8.84084 81.0395C10.7467 83.8882 12.9232 86.5393 15.3371 88.9533C17.8828 91.4993 20.6937 93.7804 23.7206 95.7572C24.4496 96.2346 25.1933 96.6931 25.9478 97.1352L30.9895 88.4824L30.9885 88.4808C32.7565 89.5143 34.6053 90.4223 36.5251 91.1934C38.9016 92.1448 41.3851 92.888 43.9516 93.3957C43.7433 93.3547 43.5389 93.303 43.3312 93.2587L41.2249 103.055C41.4802 103.109 41.7356 103.166 41.9939 103.217C45.2893 103.869 48.6952 104.215 52.1828 104.215C55.865 104.215 59.4577 103.832 62.923 103.104C66.3113 102.395 69.5778 101.355 72.6882 100.024C75.6484 98.7552 78.4676 97.2205 81.1145 95.4496C82.3621 94.6154 83.5638 93.7197 84.731 92.7854L78.4766 84.9693C79.689 83.9981 80.8521 82.9704 81.9487 81.8745C83.9813 79.8411 85.8031 77.5986 87.3878 75.1854L95.7625 80.6761L95.8339 80.5703C97.6934 77.7233 99.283 74.6859 100.563 71.4894C101.744 68.548 102.662 65.4745 103.291 62.2969C103.944 59.002 104.291 55.5938 104.291 52.1078C104.291 49.912 104.151 47.749 103.887 45.6262Z" fill="url(#paint0_radial_2387_548)"/>
<path d="M13.4741 68.6737C12.3975 66.1596 11.558 63.5208 10.9848 60.7853C10.7473 59.6542 10.5587 58.5067 10.4135 57.3444L0.479248 58.5904C0.657734 60.0274 0.89257 61.4481 1.18671 62.8483C1.89606 66.2367 2.93416 69.5037 4.26805 72.6133C4.51576 73.1899 4.77972 73.7567 5.04728 74.3227L14.1036 70.0549C13.8883 69.5981 13.6736 69.1396 13.4741 68.6737Z" fill="#F8FBF7"/>
<path d="M95.7627 80.6763L87.388 75.1855C85.8032 77.5987 83.9815 79.8413 81.9489 81.8746C80.8522 82.9705 79.6891 83.9983 78.4768 84.9694L84.7312 92.7856C86.2314 91.5847 87.6709 90.3109 89.0285 88.9534C91.545 86.4369 93.8006 83.662 95.7627 80.6763Z" fill="#F8FBF7"/>
<path d="M36.5253 91.193C34.6055 90.422 32.7567 89.514 30.9896 88.4821L25.948 97.1349C28.1361 98.412 30.4257 99.5349 32.8012 100.488C35.5042 101.572 38.3196 102.433 41.2251 103.055L43.3314 93.2584C40.9854 92.7548 38.7079 92.0674 36.5253 91.193Z" fill="#F8FBF7"/>
<path d="M90.8906 35.5415C91.9684 38.0555 92.8075 40.6934 93.3801 43.4314C93.6171 44.5617 93.8074 45.71 93.9526 46.8715L103.887 45.6264C103.707 44.1877 103.473 42.767 103.18 41.3668C102.469 37.98 101.431 34.713 100.098 31.6018C99.851 31.0252 99.5852 30.4584 99.3178 29.8932L90.2615 34.1618C90.4772 34.6187 90.6921 35.0772 90.8906 35.5415Z" fill="#F8FBF7"/>
<path d="M67.84 13.0233C69.7605 13.7927 71.6085 14.7007 73.3761 15.7326L78.4173 7.08143C76.2289 5.80267 73.9404 4.67976 71.5642 3.72663C68.8615 2.64391 66.0457 1.78183 63.1412 1.16008L61.0339 10.9563C63.3799 11.4599 65.6574 12.1473 67.84 13.0233Z" fill="#F8FBF7"/>
<path d="M22.4174 22.3428C23.5138 21.2445 24.6775 20.2167 25.8886 19.2456L19.6343 11.4311C18.1351 12.6303 16.6945 13.9049 15.3376 15.2624C12.8211 17.7781 10.5655 20.553 8.60425 23.5396L16.9781 29.0295C18.5629 26.6163 20.3844 24.3737 22.4174 22.3428Z" fill="#F8FBF7"/>
<mask id="mask0_2387_548" style="mask-type:luminance" maskUnits="userSpaceOnUse" x="14" y="14" width="76" height="76">
<path d="M38.7182 20.6457C40.7976 19.7598 42.945 19.0872 45.1318 18.6287C47.4551 18.1431 49.8177 17.8937 52.1827 17.8921C54.4246 17.8921 56.6665 18.1144 58.8728 18.5499C60.9257 18.9568 62.9468 19.5515 64.9106 20.3348C66.9756 21.1583 68.9764 22.1918 70.8802 23.4337C72.8299 24.7051 74.6787 26.1938 76.3881 27.9032C78.0065 29.5207 79.4255 31.267 80.6526 33.1028C81.8329 34.872 82.8279 36.7282 83.6449 38.6427C84.5307 40.7228 85.2041 42.8711 85.6602 45.0562C86.1458 47.3808 86.3976 49.7423 86.3976 52.1062C86.3976 54.3496 86.1761 56.5905 85.7389 58.7986C85.3337 60.8509 84.7382 62.872 83.9549 64.8348C83.1305 66.9018 82.0987 68.9008 80.856 70.8046C79.5846 72.7535 78.0975 74.6023 76.3881 76.3117C74.7681 77.9317 73.0235 79.3507 71.1878 80.577C69.4193 81.759 67.5623 82.7523 65.6469 83.5692C63.5674 84.4567 61.4201 85.1294 59.2333 85.5862C56.91 86.0718 54.5473 86.3228 52.1827 86.3228C49.9411 86.3228 47.6999 86.1005 45.4926 85.665C43.4401 85.2598 41.4182 84.6634 39.4545 83.8801C37.3894 83.0566 35.3891 82.0231 33.4859 80.782C31.5362 79.5098 29.6868 78.0227 27.9774 76.3117C26.3578 74.6942 24.938 72.9479 23.7128 71.1122C22.5305 69.3429 21.5369 67.4875 20.7198 65.5714C19.8342 63.4929 19.161 61.3439 18.7038 59.1587C18.2194 56.8341 17.9679 54.4735 17.9679 52.1079C17.9679 49.8653 18.1889 47.6244 18.6253 45.4163C19.0313 43.364 19.6266 41.3421 20.41 39.3785C21.2344 37.3131 22.2668 35.3141 23.509 33.4103C24.7804 31.4614 26.268 29.6126 27.9774 27.9032C29.5971 26.2832 31.3414 24.8642 33.1773 23.6363C34.9463 22.456 36.803 21.4626 38.7182 20.6457ZM20.9877 31.7658C19.6362 33.8369 18.5122 36.0122 17.6167 38.2605C16.7638 40.3956 16.1156 42.5955 15.675 44.8282C15.1996 47.2299 14.9592 49.6685 14.9592 52.1062C14.9592 54.6794 15.2312 57.2508 15.7603 59.7788C16.2565 62.1559 16.989 64.4936 17.9535 66.7558C18.8426 68.8401 19.9236 70.8587 21.2084 72.7846C22.5433 74.7803 24.0867 76.6792 25.849 78.4411C27.7095 80.3014 29.7205 81.9189 31.8412 83.3035C33.9127 84.6536 36.0886 85.7765 38.3353 86.6739C40.4714 87.5261 42.6711 88.1733 44.9043 88.6154C47.3045 89.0895 49.7444 89.3315 52.1827 89.3315C54.7556 89.3315 57.3253 89.0575 59.8529 88.5293C62.232 88.0322 64.5687 87.3005 66.8302 86.3359C68.914 85.4484 70.9343 84.3673 72.8586 83.0804C74.8559 81.7458 76.754 80.2038 78.5158 78.4411C80.3762 76.5807 81.9945 74.5687 83.3774 72.4475C84.7292 70.378 85.8529 68.2019 86.7478 65.9544C87.6009 63.8193 88.2489 61.6195 88.6902 59.3859C89.1659 56.9851 89.4063 54.5465 89.4063 52.1062C89.4063 49.5356 89.1331 46.9641 88.6049 44.4361C88.107 42.0582 87.3761 39.7213 86.4115 37.4591C85.5224 35.3748 84.4413 33.3562 83.1568 31.4311C81.8223 29.4346 80.2777 27.5358 78.5158 25.7739C76.6555 23.9135 74.6451 22.296 72.5239 20.9114C70.4528 19.5613 68.2767 18.4384 66.0308 17.541C63.8936 16.6888 61.6946 16.0416 59.4614 15.5995C57.0606 15.1254 54.6217 14.8835 52.1827 14.8835C49.6104 14.8835 47.0398 15.1574 44.5121 15.6857C42.1331 16.1827 39.7964 16.9144 37.5343 17.879C35.4506 18.7665 33.4304 19.8492 31.5064 21.1345C29.509 22.4691 27.6112 24.0112 25.849 25.7739C23.988 27.6342 22.3709 29.6463 20.9877 31.7658Z" fill="white"/>
</mask>
<g mask="url(#mask0_2387_548)">
<path d="M38.5954 20.5259C40.6747 19.6401 42.8217 18.9676 45.0083 18.5092C47.3312 18.0237 49.6936 17.7743 52.0582 17.7727C54.2999 17.7727 56.5415 17.995 58.7475 18.4304C60.8001 18.8372 62.821 19.4318 64.7845 20.215C66.8492 21.0385 68.8497 22.0718 70.7533 23.3135C72.7027 24.5847 74.5513 26.0732 76.2605 27.7824C77.8786 29.3997 79.2975 31.1457 80.5244 32.9812C81.7046 34.7502 82.6994 36.6061 83.5163 38.5203C84.402 40.6002 85.0754 42.7481 85.5314 44.9329C86.0169 47.2572 86.2687 49.6183 86.2687 51.9819C86.2687 54.225 86.0472 56.4656 85.6101 58.6733C85.205 60.7253 84.6095 62.7461 83.8263 64.7087C83.0021 66.7754 81.9703 68.7741 80.7278 70.6776C79.4566 72.6262 77.9697 74.4748 76.2605 76.1839C74.6407 77.8037 72.8963 79.2225 71.0608 80.4486C69.2926 81.6304 67.4358 82.6236 65.5207 83.4404C63.4415 84.3278 61.2944 85.0003 59.1079 85.4571C56.7849 85.9426 54.4226 86.1936 52.0582 86.1936C49.8169 86.1936 47.576 85.9713 45.369 85.5359C43.3167 85.1307 41.2952 84.5345 39.3317 83.7513C37.2669 82.9278 35.2668 81.8945 33.3638 80.6536C31.4145 79.3816 29.5653 77.8947 27.8561 76.1839C26.2367 74.5666 24.8171 72.8206 23.592 70.9851C22.4099 69.2161 21.4164 67.361 20.5994 65.4452C19.7139 63.367 19.0408 61.2182 18.5837 59.0334C18.0993 56.7092 17.8479 54.3488 17.8479 51.9836C17.8479 49.7413 18.0689 47.5007 18.5052 45.293C18.9111 43.241 19.5064 41.2194 20.2897 39.256C21.114 37.1909 22.1462 35.1922 23.3882 33.2887C24.6595 31.3401 26.1469 29.4915 27.8561 27.7824C29.4756 26.1626 31.2197 24.7438 33.0553 23.5161C34.8241 22.3359 36.6806 21.3427 38.5954 20.5259ZM20.8673 31.6444C19.516 33.7152 18.3921 35.8902 17.4967 38.1381C16.6439 40.2729 15.9958 42.4725 15.5553 44.7049C15.0799 47.1063 14.8396 49.5445 14.8396 51.9819C14.8396 54.5547 15.1116 57.1258 15.6405 59.6534C16.1367 62.0302 16.8691 64.3675 17.8334 66.6294C18.7225 68.7134 19.8033 70.7317 21.088 72.6574C22.4227 74.6527 23.9659 76.5513 25.7279 78.313C27.5883 80.173 29.5989 81.7903 31.7194 83.1747C33.7906 84.5246 35.9662 85.6474 38.2126 86.5446C40.3485 87.3967 42.5479 88.0438 44.7808 88.4859C47.1807 88.9599 49.6202 89.2018 52.0582 89.2018C54.6308 89.2018 57.2001 88.9279 59.7275 88.3998C62.1062 87.9028 64.4426 87.1712 66.7038 86.2067C68.7874 85.3193 70.8074 84.2384 72.7315 82.9516C74.7285 81.6173 76.6263 80.0754 78.388 78.313C80.248 76.4529 81.8662 74.4412 83.2489 72.3203C84.6005 70.2511 85.7241 68.0753 86.6189 65.8282C87.4718 63.6934 88.1197 61.4938 88.561 59.2606C89.0367 56.8601 89.2769 54.4218 89.2769 51.9819C89.2769 49.4116 89.0038 46.8405 88.4757 44.3129C87.9778 41.9354 87.2471 39.5988 86.2826 37.3369C85.3936 35.2529 84.3126 33.2346 83.0283 31.3098C81.6939 29.3136 80.1496 27.415 78.388 25.6533C76.5279 23.7933 74.5177 22.176 72.3968 20.7916C70.326 19.4417 68.1502 18.3189 65.9045 17.4217C63.7677 16.5696 61.5689 15.9225 59.336 15.4804C56.9355 15.0064 54.4969 14.7645 52.0582 14.7645C49.4863 14.7645 46.916 15.0384 44.3887 15.5666C42.0099 16.0636 39.6735 16.7951 37.4117 17.7596C35.3283 18.647 33.3084 19.7295 31.3846 21.0147C29.3875 22.349 27.4899 23.8909 25.7279 25.6533C23.8672 27.5134 22.2503 29.5252 20.8673 31.6444Z" fill="#DB3300"/>
</g>
<mask id="mask1_2387_548" style="mask-type:luminance" maskUnits="userSpaceOnUse" x="0" y="58" width="6" height="17">
<path d="M5.73391 73.9987C5.4702 73.441 5.20846 72.884 4.96493 72.3148C3.65188 69.2503 2.62854 66.0301 1.92846 62.6917C1.6385 61.3137 1.40744 59.9118 1.23158 58.4961L0.479248 58.5904C0.657734 60.0275 0.89257 61.4482 1.18671 62.8483C1.89606 66.2368 2.93416 69.5038 4.26805 72.6134C4.51576 73.19 4.77972 73.7568 5.04728 74.3227L5.73391 73.9987Z" fill="white"/>
</mask>
<g mask="url(#mask1_2387_548)">
<path d="M5.73391 73.9987C5.4702 73.441 5.20846 72.884 4.96493 72.3148C3.65188 69.2503 2.62854 66.0301 1.92846 62.6917C1.6385 61.3137 1.40744 59.9118 1.23158 58.4961L0.479248 58.5904C0.657734 60.0275 0.89257 61.4482 1.18671 62.8483C1.89606 66.2368 2.93416 69.5038 4.26805 72.6134C4.51576 73.19 4.77972 73.7568 5.04728 74.3227L5.73391 73.9987Z" fill="#D5D5D5"/>
</g>
<mask id="mask2_2387_548" style="mask-type:luminance" maskUnits="userSpaceOnUse" x="84" y="80" width="12" height="13">
<path d="M88.4912 88.4171C87.155 89.7549 85.736 91.009 84.2571 92.1935L84.7312 92.7857C86.2314 91.5848 87.6709 90.311 89.0285 88.9535C91.545 86.437 93.8006 83.6621 95.7627 80.6764L95.1278 80.2614C93.1953 83.2028 90.9724 85.9375 88.4912 88.4171Z" fill="white"/>
</mask>
<g mask="url(#mask2_2387_548)">
<path d="M88.4912 88.4171C87.155 89.7549 85.736 91.009 84.2571 92.1935L84.7312 92.7857C86.2314 91.5848 87.6709 90.311 89.0285 88.9535C91.545 86.437 93.8006 83.6621 95.7627 80.6764L95.1278 80.2614C93.1953 83.2028 90.9724 85.9375 88.4912 88.4171Z" fill="#D5D5D5"/>
</g>
<mask id="mask3_2387_548" style="mask-type:luminance" maskUnits="userSpaceOnUse" x="25" y="96" width="17" height="8">
<path d="M33.0835 99.7837C30.7409 98.8461 28.4872 97.7371 26.3309 96.4781L25.948 97.1351C28.1361 98.4122 30.4257 99.5351 32.8012 100.488C35.5042 101.573 38.3196 102.433 41.2251 103.055L41.3833 102.313C38.5215 101.701 35.7473 100.852 33.0835 99.7837Z" fill="white"/>
</mask>
<g mask="url(#mask3_2387_548)">
<path d="M33.0835 99.7837C30.7409 98.8461 28.4872 97.7371 26.3309 96.4781L25.948 97.1351C28.1361 98.4122 30.4257 99.5351 32.8012 100.488C35.5042 101.573 38.3196 102.433 41.2251 103.055L41.3833 102.313C38.5215 101.701 35.7473 100.852 33.0835 99.7837Z" fill="#D5D5D5"/>
</g>
<mask id="mask4_2387_548" style="mask-type:luminance" maskUnits="userSpaceOnUse" x="98" y="29" width="6" height="17">
<path d="M99.4011 31.9002C100.714 34.9662 101.739 38.1849 102.437 41.5233C102.727 42.903 102.958 44.3031 103.134 45.7189L103.887 45.6262C103.707 44.1875 103.474 42.7668 103.18 41.3666C102.47 37.9798 101.431 34.7128 100.098 31.6016C99.8515 31.025 99.5857 30.4582 99.3183 29.893L98.6326 30.2162C98.8959 30.774 99.1575 31.3326 99.4011 31.9002Z" fill="white"/>
</mask>
<g mask="url(#mask4_2387_548)">
<path d="M99.4011 31.9002C100.714 34.9662 101.739 38.1849 102.437 41.5233C102.727 42.903 102.958 44.3031 103.134 45.7189L103.887 45.6262C103.707 44.1875 103.474 42.7668 103.18 41.3666C102.47 37.9798 101.431 34.7128 100.098 31.6016C99.8515 31.025 99.5857 30.4582 99.3183 29.893L98.6326 30.2162C98.8959 30.774 99.1575 31.3326 99.4011 31.9002Z" fill="#D5D5D5"/>
</g>
<mask id="mask5_2387_548" style="mask-type:luminance" maskUnits="userSpaceOnUse" x="62" y="1" width="17" height="7">
<path d="M71.2822 4.43092C73.624 5.3701 75.8797 6.47742 78.0353 7.7365L78.4175 7.08112C76.2291 5.80236 73.9406 4.67945 71.5643 3.72632C68.8616 2.6436 66.0459 1.78151 63.1414 1.15977L62.9822 1.90209C65.844 2.51482 68.6188 3.36296 71.2822 4.43092Z" fill="white"/>
</mask>
<g mask="url(#mask5_2387_548)">
<path d="M71.2822 4.43092C73.624 5.3701 75.8797 6.47742 78.0353 7.7365L78.4175 7.08112C76.2291 5.80236 73.9406 4.67945 71.5643 3.72632C68.8616 2.6436 66.0459 1.78151 63.1414 1.15977L62.9822 1.90209C65.844 2.51482 68.6188 3.36296 71.2822 4.43092Z" fill="#D5D5D5"/>
</g>
<mask id="mask6_2387_548" style="mask-type:luminance" maskUnits="userSpaceOnUse" x="0" y="23" width="10" height="36">
<path d="M1.2315 58.496C0.971969 56.4035 0.834167 54.2709 0.834167 52.1079C0.834167 48.6703 1.17375 45.3138 1.81846 42.0673C2.43906 38.9347 3.3442 35.9064 4.506 33.0085C5.7691 29.8587 7.33527 26.8648 9.1677 24.0596L9.23751 23.9554L8.60379 23.5395L8.53259 23.6454C6.67268 26.4916 5.08345 29.5306 3.80239 32.7263C2.62271 35.6661 1.70371 38.7412 1.0745 41.918C0.420846 45.2129 0.0754395 48.6202 0.0754395 52.1079C0.0754395 54.3029 0.214799 56.4659 0.479164 58.5903L1.2315 58.496Z" fill="white"/>
</mask>
<g mask="url(#mask6_2387_548)">
<path d="M1.2315 58.496C0.971969 56.4035 0.834167 54.2709 0.834167 52.1079C0.834167 48.6703 1.17375 45.3138 1.81846 42.0673C2.43906 38.9347 3.3442 35.9064 4.506 33.0085C5.7691 29.8587 7.33527 26.8648 9.1677 24.0596L9.23751 23.9554L8.60379 23.5395L8.53259 23.6454C6.67268 26.4916 5.08345 29.5306 3.80239 32.7263C2.62271 35.6661 1.70371 38.7412 1.0745 41.918C0.420846 45.2129 0.0754395 48.6202 0.0754395 52.1079C0.0754395 54.3029 0.214799 56.4659 0.479164 58.5903L1.2315 58.496Z" fill="#DB3300"/>
</g>
<mask id="mask7_2387_548" style="mask-type:luminance" maskUnits="userSpaceOnUse" x="5" y="73" width="22" height="25">
<path d="M26.3306 96.4785C25.5857 96.0446 24.8535 95.5927 24.1338 95.1235C21.1518 93.1738 18.3825 90.9263 15.8737 88.4171C13.4941 86.0384 11.3496 83.4251 9.47194 80.6182C8.06702 78.5184 6.82156 76.3029 5.73375 73.9988L5.04712 74.3228C6.15092 76.6614 7.41492 78.9072 8.84076 81.0399C10.7466 83.8886 12.9231 86.5396 15.337 88.9536C17.8827 91.4996 20.6936 93.7807 23.7205 95.7575C24.4495 96.2349 25.1932 96.6934 25.9477 97.1355L26.3306 96.4785Z" fill="white"/>
</mask>
<g mask="url(#mask7_2387_548)">
<path d="M26.3306 96.4785C25.5857 96.0446 24.8535 95.5927 24.1338 95.1235C21.1518 93.1738 18.3825 90.9263 15.8737 88.4171C13.4941 86.0384 11.3496 83.4251 9.47194 80.6182C8.06702 78.5184 6.82156 76.3029 5.73375 73.9988L5.04712 74.3228C6.15092 76.6614 7.41492 78.9072 8.84076 81.0399C10.7466 83.8886 12.9231 86.5396 15.337 88.9536C17.8827 91.4996 20.6936 93.7807 23.7205 95.7575C24.4495 96.2349 25.1932 96.6934 25.9477 97.1355L26.3306 96.4785Z" fill="#DB3300"/>
</g>
<mask id="mask8_2387_548" style="mask-type:luminance" maskUnits="userSpaceOnUse" x="41" y="92" width="44" height="13">
<path d="M84.2569 92.1934C83.1061 93.1145 81.9224 93.9954 80.6937 94.819C78.0845 96.5636 75.3063 98.0762 72.3895 99.3254C69.3243 100.639 66.1052 101.663 62.7672 102.363C59.352 103.079 55.8115 103.457 52.1828 103.457C48.7464 103.457 45.3901 103.116 42.1412 102.472C41.8881 102.422 41.6362 102.368 41.3831 102.314L41.2249 103.055C41.4802 103.109 41.7355 103.166 41.9938 103.217C45.2893 103.869 48.6952 104.215 52.1828 104.215C55.8649 104.215 59.4577 103.832 62.9229 103.104C66.3113 102.395 69.5777 101.356 72.6881 100.024C75.6484 98.7553 78.4676 97.2206 81.1145 95.4497C82.3621 94.6155 83.5638 93.7198 84.731 92.7856L84.2569 92.1934Z" fill="white"/>
</mask>
<g mask="url(#mask8_2387_548)">
<path d="M84.2569 92.1934C83.1061 93.1145 81.9224 93.9954 80.6937 94.819C78.0845 96.5636 75.3063 98.0762 72.3895 99.3254C69.3243 100.639 66.1052 101.663 62.7672 102.363C59.352 103.079 55.8115 103.457 52.1828 103.457C48.7464 103.457 45.3901 103.116 42.1412 102.472C41.8881 102.422 41.6362 102.368 41.3831 102.314L41.2249 103.055C41.4802 103.109 41.7355 103.166 41.9938 103.217C45.2893 103.869 48.6952 104.215 52.1828 104.215C55.8649 104.215 59.4577 103.832 62.9229 103.104C66.3113 102.395 69.5777 101.356 72.6881 100.024C75.6484 98.7553 78.4676 97.2206 81.1145 95.4497C82.3621 94.6155 83.5638 93.7198 84.731 92.7856L84.2569 92.1934Z" fill="#DB3300"/>
</g>
<mask id="mask9_2387_548" style="mask-type:luminance" maskUnits="userSpaceOnUse" x="95" y="45" width="10" height="36">
<path d="M103.887 45.6262L103.134 45.7189V45.7205C103.394 47.813 103.532 49.944 103.532 52.1078C103.532 55.5446 103.192 58.9011 102.548 62.1484C101.927 65.2801 101.022 68.3076 99.8597 71.208C98.5973 74.3561 97.0315 77.35 95.1974 80.1569L95.1277 80.2611L95.7626 80.6761L95.8339 80.5703C97.6934 77.7233 99.2831 74.6859 100.563 71.4894C101.744 68.548 102.662 65.4745 103.291 62.2969C103.945 59.002 104.291 55.5938 104.291 52.1078C104.291 49.912 104.151 47.749 103.887 45.6262Z" fill="white"/>
</mask>
<g mask="url(#mask9_2387_548)">
<path d="M103.887 45.6262L103.134 45.7189V45.7205C103.394 47.813 103.532 49.944 103.532 52.1078C103.532 55.5446 103.192 58.9011 102.548 62.1484C101.927 65.2801 101.022 68.3076 99.8597 71.208C98.5973 74.3561 97.0315 77.35 95.1974 80.1569L95.1277 80.2611L95.7626 80.6761L95.8339 80.5703C97.6934 77.7233 99.2831 74.6859 100.563 71.4894C101.744 68.548 102.662 65.4745 103.291 62.2969C103.945 59.002 104.291 55.5938 104.291 52.1078C104.291 49.912 104.151 47.749 103.887 45.6262Z" fill="#DB3300"/>
</g>
<mask id="mask10_2387_548" style="mask-type:luminance" maskUnits="userSpaceOnUse" x="78" y="7" width="22" height="24">
<path d="M78.0354 7.73667C78.7802 8.17058 79.5118 8.62254 80.2312 9.09172C83.2144 11.0414 85.9836 13.2897 88.4919 15.7981C90.8714 18.1776 93.0156 20.7901 94.8931 23.597C96.299 25.6968 97.545 27.9123 98.6326 30.2164L99.3183 29.8932C98.2143 27.5555 96.9503 25.308 95.5247 23.1754C93.6193 20.3275 91.4423 17.6756 89.0283 15.2624C86.4823 12.7156 83.6721 10.4345 80.6454 8.45767C79.9154 7.98029 79.1723 7.52177 78.4176 7.0813L78.0354 7.73667Z" fill="white"/>
</mask>
<g mask="url(#mask10_2387_548)">
<path d="M78.0354 7.73667C78.7802 8.17058 79.5118 8.62254 80.2312 9.09172C83.2144 11.0414 85.9836 13.2897 88.4919 15.7981C90.8714 18.1776 93.0156 20.7901 94.8931 23.597C96.299 25.6968 97.545 27.9123 98.6326 30.2164L99.3183 29.8932C98.2143 27.5555 96.9503 25.308 95.5247 23.1754C93.6193 20.3275 91.4423 17.6756 89.0283 15.2624C86.4823 12.7156 83.6721 10.4345 80.6454 8.45767C79.9154 7.98029 79.1723 7.52177 78.4176 7.0813L78.0354 7.73667Z" fill="#DB3300"/>
</g>
<mask id="mask11_2387_548" style="mask-type:luminance" maskUnits="userSpaceOnUse" x="19" y="0" width="45" height="13">
<path d="M20.1077 12.0226C21.259 11.1007 22.4429 10.2197 23.671 9.39784C26.2804 7.65154 29.0584 6.13982 31.975 4.88977C35.0404 3.57655 38.2589 2.55207 41.5979 1.85404C45.0131 1.13796 48.5536 0.758198 52.1826 0.758198C55.6186 0.758198 58.9759 1.09942 62.2239 1.74332C62.477 1.79335 62.7289 1.84748 62.982 1.90244L63.1412 1.16011C62.8859 1.10597 62.6295 1.04938 62.3722 0.998525C59.0759 0.346429 55.6699 0.000291522 52.1826 0.000291522C48.5001 0.000291522 44.9074 0.38499 41.4415 1.11091C38.0538 1.82042 34.7873 2.85966 31.6771 4.19256C28.7159 5.46148 25.8975 6.99616 23.2494 8.76708C22.0033 9.59963 20.8014 10.4953 19.6335 11.4312L20.1077 12.0226Z" fill="white"/>
</mask>
<g mask="url(#mask11_2387_548)">
<path d="M20.1077 12.0226C21.259 11.1007 22.4429 10.2197 23.671 9.39784C26.2804 7.65154 29.0584 6.13982 31.975 4.88977C35.0404 3.57655 38.2589 2.55207 41.5979 1.85404C45.0131 1.13796 48.5536 0.758198 52.1826 0.758198C55.6186 0.758198 58.9759 1.09942 62.2239 1.74332C62.477 1.79335 62.7289 1.84748 62.982 1.90244L63.1412 1.16011C62.8859 1.10597 62.6295 1.04938 62.3722 0.998525C59.0759 0.346429 55.6699 0.000291522 52.1826 0.000291522C48.5001 0.000291522 44.9074 0.38499 41.4415 1.11091C38.0538 1.82042 34.7873 2.85966 31.6771 4.19256C28.7159 5.46148 25.8975 6.99616 23.2494 8.76708C22.0033 9.59963 20.8014 10.4953 19.6335 11.4312L20.1077 12.0226Z" fill="#DB3300"/>
</g>
<mask id="mask12_2387_548" style="mask-type:luminance" maskUnits="userSpaceOnUse" x="8" y="11" width="13" height="13">
<path d="M15.8737 15.7981C17.2113 14.4603 18.6301 13.2061 20.1084 12.0225L19.6343 11.4311C18.1351 12.6303 16.6945 13.905 15.3376 15.2625C12.8211 17.7782 10.5655 20.5531 8.60425 23.5396L9.23797 23.9555C11.171 21.0124 13.3946 18.2777 15.8737 15.7981Z" fill="white"/>
</mask>
<g mask="url(#mask12_2387_548)">
<path d="M15.8737 15.7981C17.2113 14.4603 18.6301 13.2061 20.1084 12.0225L19.6343 11.4311C18.1351 12.6303 16.6945 13.905 15.3376 15.2625C12.8211 17.7782 10.5655 20.5531 8.60425 23.5396L9.23797 23.9555C11.171 21.0124 13.3946 18.2777 15.8737 15.7981Z" fill="#D5D5D5"/>
</g>
<path d="M61.1331 96.0236C61.1331 94.8506 62.084 93.9008 63.2567 93.9008C64.43 93.9008 65.381 94.8506 65.381 96.0236C65.381 97.1957 64.43 98.1464 63.2567 98.1464C62.084 98.1464 61.1331 97.1957 61.1331 96.0236Z" fill="black" fill-opacity="0.3"/>
<path d="M39.592 8.19106C39.592 7.01893 40.5427 6.06745 41.7163 6.06745C42.889 6.06745 43.84 7.01893 43.84 8.19106C43.84 9.36401 42.889 10.3163 41.7163 10.3163C40.5427 10.3163 39.592 9.36401 39.592 8.19106Z" fill="black" fill-opacity="0.3"/>
<path d="M5.61255 44.1423C5.61255 42.9701 6.56354 42.0203 7.73617 42.0203C8.90855 42.0203 9.86052 42.9701 9.86052 44.1423C9.86052 45.3168 8.90855 46.2675 7.73617 46.2675C6.56354 46.2675 5.61255 45.3168 5.61255 44.1423Z" fill="black" fill-opacity="0.3"/>
<path d="M17.4446 83.4331C17.4446 82.2602 18.3959 81.3087 19.5685 81.3087C20.7412 81.3087 21.6922 82.2602 21.6922 83.4331C21.6922 84.6061 20.7412 85.5575 19.5685 85.5575C18.3959 85.5575 17.4446 84.6061 17.4446 83.4331Z" fill="black" fill-opacity="0.3"/>
<path d="M93.9001 62.499C93.9001 61.3268 94.8508 60.3753 96.0238 60.3753C97.1967 60.3753 98.1474 61.3268 98.1474 62.499C98.1474 63.6719 97.1967 64.6217 96.0238 64.6217C94.8508 64.6217 93.9001 63.6719 93.9001 62.499Z" fill="black" fill-opacity="0.3"/>
<path d="M83.4324 21.9958C83.4324 20.8236 84.3839 19.8722 85.556 19.8722C86.7289 19.8722 87.6804 20.8236 87.6804 21.9958C87.6804 23.1687 86.7289 24.1186 85.556 24.1186C84.3839 24.1186 83.4324 23.1687 83.4324 21.9958Z" fill="black" fill-opacity="0.3"/>
<mask id="mask13_2387_548" style="mask-type:luminance" maskUnits="userSpaceOnUse" x="17" y="17" width="70" height="70">
<path d="M25.53 74.2432C25.8109 74.5794 26.097 74.9131 26.3924 75.2427C26.0977 74.9131 25.8109 74.5794 25.53 74.2432ZM24.6399 73.1177C24.7993 73.3256 24.961 73.5351 25.125 73.7396C24.961 73.5334 24.7993 73.3256 24.6399 73.1177ZM23.9732 72.212C24.0352 72.2973 24.0953 72.3869 24.158 72.4739C24.0953 72.3869 24.0352 72.299 23.9732 72.212ZM73.6478 24.9182C73.4298 24.7467 73.2101 24.5786 72.9896 24.413C73.2109 24.5786 73.4298 24.7467 73.6478 24.9182ZM78.8347 29.9742C78.555 29.6379 78.2694 29.3042 77.9754 28.9755C78.2694 29.3042 78.5558 29.6362 78.8347 29.9742ZM81.2072 71.0333C82.4644 69.1078 83.5104 67.0826 84.3435 64.9914C85.1377 63.005 85.7401 60.9586 86.1507 58.881C86.5926 56.6462 86.8165 54.3777 86.8165 52.1082C86.8165 49.7146 86.5622 47.3227 86.0713 44.9713C85.6074 42.7585 84.9281 40.5837 84.03 38.4799C83.2037 36.5408 82.1965 34.6609 81.0018 32.8705C80.723 32.4548 80.4307 32.0434 80.1333 31.6361C80.042 31.5102 79.9457 31.3869 79.8519 31.2618C79.6331 30.9712 79.4092 30.6839 79.1802 30.3983C79.0763 30.2699 78.9741 30.1389 78.8684 30.0122C78.5744 29.659 78.2762 29.3092 77.9669 28.9662L77.8613 28.8437C77.482 28.4246 77.0891 28.0123 76.6844 27.6059C76.256 27.1792 75.82 26.7652 75.3756 26.3656L75.3748 26.3639L75.2641 26.2692C74.8948 25.9397 74.5189 25.6195 74.1386 25.3094C74.0043 25.1987 73.8683 25.0898 73.7314 24.9825C73.4289 24.7417 73.1248 24.5085 72.8172 24.2795C72.6846 24.1823 72.5511 24.0818 72.4176 23.9855C71.985 23.6754 71.5507 23.3721 71.108 23.0831C69.1816 21.8259 67.1566 20.7807 65.0661 19.9459C63.0789 19.1534 61.032 18.5519 58.9544 18.1404C56.7207 17.6985 54.4519 17.4746 52.1829 17.4746C49.7891 17.4746 47.3973 17.7281 45.0458 18.2198C42.8325 18.682 40.6585 19.3638 38.5538 20.2611C36.6148 21.0883 34.7358 22.0946 32.9454 23.2893C31.0873 24.5321 29.3209 25.9676 27.6812 27.6059C25.9512 29.338 24.4458 31.2086 23.158 33.1823C21.9012 35.1095 20.8559 37.1348 20.0219 39.2234C19.2279 41.2123 18.6265 43.2587 18.2146 45.3363C17.774 47.5711 17.5496 49.838 17.5496 52.1082C17.5496 54.5019 17.804 56.8938 18.2949 59.246C18.7575 61.4588 19.4378 63.6319 20.3355 65.7374C21.1619 67.6757 22.1685 69.5547 23.3649 71.3451C23.6425 71.7625 23.9346 72.1723 24.2333 72.5795C24.3254 72.7054 24.4198 72.8288 24.5135 72.9538C24.7323 73.2445 24.9567 73.5334 25.1871 73.819C25.2901 73.9474 25.3923 74.0767 25.4974 74.2034C25.7907 74.5583 26.0914 74.9081 26.4007 75.2528C26.8142 75.7133 27.24 76.167 27.6812 76.6097C29.4123 78.3401 31.2826 79.8457 33.2567 81.1325C35.1837 82.3898 37.2079 83.4349 39.2987 84.2697C41.2866 85.0622 43.3324 85.6638 45.4101 86.0753C47.6449 86.5171 49.9135 86.7419 52.1829 86.7419C54.5764 86.7419 56.9682 86.4876 59.3197 85.9958C61.533 85.5336 63.708 84.8518 65.8116 83.9545C67.7506 83.1274 69.6302 82.1228 71.4197 80.9264C73.2794 79.6852 75.0444 78.248 76.6844 76.6097C78.4147 74.8785 79.9204 73.007 81.2072 71.0333Z" fill="white"/>
</mask>
<g mask="url(#mask13_2387_548)">
<path d="M25.53 74.2432C25.8109 74.5794 26.097 74.9131 26.3924 75.2427C26.0977 74.9131 25.8109 74.5794 25.53 74.2432ZM24.6399 73.1177C24.7993 73.3256 24.961 73.5351 25.125 73.7396C24.961 73.5334 24.7993 73.3256 24.6399 73.1177ZM23.9732 72.212C24.0352 72.2973 24.0953 72.3869 24.158 72.4739C24.0953 72.3869 24.0352 72.299 23.9732 72.212ZM73.6478 24.9182C73.4298 24.7467 73.2101 24.5786 72.9896 24.413C73.2109 24.5786 73.4298 24.7467 73.6478 24.9182ZM78.8347 29.9742C78.555 29.6379 78.2694 29.3042 77.9754 28.9755C78.2694 29.3042 78.5558 29.6362 78.8347 29.9742ZM81.2072 71.0333C82.4644 69.1078 83.5104 67.0826 84.3435 64.9914C85.1377 63.005 85.7401 60.9586 86.1507 58.881C86.5926 56.6462 86.8165 54.3777 86.8165 52.1082C86.8165 49.7146 86.5622 47.3227 86.0713 44.9713C85.6074 42.7585 84.9281 40.5837 84.03 38.4799C83.2037 36.5408 82.1965 34.6609 81.0018 32.8705C80.723 32.4548 80.4307 32.0434 80.1333 31.6361C80.042 31.5102 79.9457 31.3869 79.8519 31.2618C79.6331 30.9712 79.4092 30.6839 79.1802 30.3983C79.0763 30.2699 78.9741 30.1389 78.8684 30.0122C78.5744 29.659 78.2762 29.3092 77.9669 28.9662L77.8613 28.8437C77.482 28.4246 77.0891 28.0123 76.6844 27.6059C76.256 27.1792 75.82 26.7652 75.3756 26.3656L75.3748 26.3639L75.2641 26.2692C74.8948 25.9397 74.5189 25.6195 74.1386 25.3094C74.0043 25.1987 73.8683 25.0898 73.7314 24.9825C73.4289 24.7417 73.1248 24.5085 72.8172 24.2795C72.6846 24.1823 72.5511 24.0818 72.4176 23.9855C71.985 23.6754 71.5507 23.3721 71.108 23.0831C69.1816 21.8259 67.1566 20.7807 65.0661 19.9459C63.0789 19.1534 61.032 18.5519 58.9544 18.1404C56.7207 17.6985 54.4519 17.4746 52.1829 17.4746C49.7891 17.4746 47.3973 17.7281 45.0458 18.2198C42.8325 18.682 40.6585 19.3638 38.5538 20.2611C36.6148 21.0883 34.7358 22.0946 32.9454 23.2893C31.0873 24.5321 29.3209 25.9676 27.6812 27.6059C25.9512 29.338 24.4458 31.2086 23.158 33.1823C21.9012 35.1095 20.8559 37.1348 20.0219 39.2234C19.2279 41.2123 18.6265 43.2587 18.2146 45.3363C17.774 47.5711 17.5496 49.838 17.5496 52.1082C17.5496 54.5019 17.804 56.8938 18.2949 59.246C18.7575 61.4588 19.4378 63.6319 20.3355 65.7374C21.1619 67.6757 22.1685 69.5547 23.3649 71.3451C23.6425 71.7625 23.9346 72.1723 24.2333 72.5795C24.3254 72.7054 24.4198 72.8288 24.5135 72.9538C24.7323 73.2445 24.9567 73.5334 25.1871 73.819C25.2901 73.9474 25.3923 74.0767 25.4974 74.2034C25.7907 74.5583 26.0914 74.9081 26.4007 75.2528C26.8142 75.7133 27.24 76.167 27.6812 76.6097C29.4123 78.3401 31.2826 79.8457 33.2567 81.1325C35.1837 82.3898 37.2079 83.4349 39.2987 84.2697C41.2866 85.0622 43.3324 85.6638 45.4101 86.0753C47.6449 86.5171 49.9135 86.7419 52.1829 86.7419C54.5764 86.7419 56.9682 86.4876 59.3197 85.9958C61.533 85.5336 63.708 84.8518 65.8116 83.9545C67.7506 83.1274 69.6302 82.1228 71.4197 80.9264C73.2794 79.6852 75.0444 78.248 76.6844 76.6097C78.4147 74.8785 79.9204 73.007 81.2072 71.0333Z" fill="#DB3300"/>
</g>
<path d="M48.959 84.6918C49.3733 84.7304 49.7905 84.7624 50.209 84.7845C49.7905 84.7607 49.3733 84.7304 48.959 84.6918ZM47.6047 84.5327C47.852 84.5663 48.1007 84.5983 48.349 84.6262C48.1007 84.5967 47.852 84.5663 47.6047 84.5327ZM46.5483 84.3728C46.6483 84.3883 46.7475 84.408 46.8475 84.4252C46.7475 84.408 46.6483 84.39 46.5483 84.3728ZM46.5659 19.4568C46.464 19.4741 46.3646 19.4946 46.2627 19.5126C46.3646 19.4946 46.4646 19.4741 46.5659 19.4568ZM55.0279 19.146C54.6146 19.1066 54.1993 19.0746 53.7811 19.0508C54.1993 19.0746 54.6146 19.105 55.0279 19.146ZM84.2046 45.1338C83.7551 42.9946 83.0973 40.9333 82.2533 38.9672C81.4511 37.0995 80.4807 35.3212 79.3611 33.6487C78.1578 31.8516 76.7839 30.1775 75.2598 28.6518C73.6513 27.0449 71.8739 25.6087 69.9635 24.3586C68.1664 23.1824 66.2486 22.18 64.2316 21.3688C62.373 20.6208 60.436 20.0351 58.4296 19.6357C57.9628 19.543 57.4918 19.4626 57.0176 19.3904C56.8715 19.3666 56.7241 19.3477 56.5767 19.3264C56.2349 19.2788 55.891 19.2354 55.545 19.1985C55.39 19.1804 55.233 19.1632 55.0765 19.1493C54.643 19.1082 54.2057 19.0746 53.7677 19.0508L53.6165 19.0402C53.0788 19.0139 52.538 19 51.9936 19C51.4197 19 50.8482 19.0156 50.2811 19.0443H50.2791L50.1407 19.0541C49.6713 19.0812 49.2045 19.1197 48.7399 19.1648C48.5749 19.1821 48.4115 19.2017 48.2464 19.2206C47.8824 19.2624 47.5204 19.3092 47.1609 19.3633C47.0055 19.3855 46.8495 19.4084 46.6947 19.4339C46.1958 19.5143 45.6998 19.6037 45.209 19.7062C43.0699 20.1565 41.0084 20.8143 39.0439 21.6576C37.1753 22.4606 35.3965 23.4309 33.7245 24.5506C31.9261 25.7539 30.2523 27.1286 28.7268 28.6518C27.1199 30.2603 25.6839 32.037 24.4343 33.9481C23.2584 35.7445 22.2549 37.663 21.4439 39.6792C20.6977 41.537 20.111 43.4761 19.7124 45.4816C19.2972 47.5642 19.0754 49.7157 19.0754 51.9181C19.0754 54.2427 19.3212 56.5115 19.7826 58.7015C20.2322 60.8399 20.8896 62.9036 21.7339 64.8681C22.5365 66.7358 23.5061 68.5158 24.6256 70.1866C25.8307 71.9838 27.2036 73.6595 28.7288 75.1835C30.3362 76.792 32.1135 78.2275 34.0232 79.4767C35.821 80.653 37.7383 81.6553 39.7552 82.4682C41.613 83.2146 43.5515 83.801 45.5579 84.1997C46.0241 84.2924 46.496 84.3728 46.9696 84.4466C47.116 84.4687 47.2634 84.4884 47.4102 84.5089C47.7526 84.5573 48.0974 84.6 48.4431 84.6369C48.5989 84.6549 48.7539 84.6722 48.9109 84.6869C49.3451 84.7288 49.7824 84.7624 50.2224 84.7845C50.8087 84.8165 51.3989 84.8354 51.9936 84.8354C54.3188 84.8354 56.5867 84.591 58.7773 84.1292C60.916 83.6788 62.9785 83.0218 64.943 82.1778C66.8106 81.3756 68.5904 80.4061 70.2613 79.2864C72.0601 78.0815 73.735 76.7084 75.2598 75.1835C76.8667 73.5767 78.303 71.7984 79.5522 69.8889C80.7284 68.0909 81.7324 66.174 82.5428 64.157C83.2892 62.2983 83.8765 60.3601 84.276 58.3537C84.6902 56.2711 84.9125 54.1196 84.9125 51.9181C84.9125 49.5919 84.6656 47.3239 84.2046 45.1338Z" fill="white"/>
<path d="M88.0472 51.9831C88.0472 71.8589 71.9347 87.9714 52.0589 87.9714C32.1831 87.9714 16.0706 71.8589 16.0706 51.9831C16.0706 32.1073 32.1831 15.9948 52.0589 15.9948C71.9347 15.9948 88.0472 32.1073 88.0472 51.9831ZM18.0506 51.9831C18.0506 70.7654 33.2766 85.9914 52.0589 85.9914C70.8411 85.9914 86.0672 70.7654 86.0672 51.9831C86.0672 33.2008 70.8411 17.9748 52.0589 17.9748C33.2766 17.9748 18.0506 33.2008 18.0506 51.9831Z" fill="white"/>
<rect x="89.0735" y="80.9999" width="4" height="4" transform="rotate(88.188 89.0735 80.9999)" fill="#E14000"/>
<rect x="19.0735" y="17.9999" width="4" height="4" transform="rotate(88.188 19.0735 17.9999)" fill="#E14000"/>
<rect x="70.1643" y="5.42668" width="4" height="4" transform="rotate(66.2837 70.1643 5.42668)" fill="#E14000"/>
<rect x="35.7375" y="92.9999" width="4" height="4" transform="rotate(66.2837 35.7375 92.9999)" fill="#E14000"/>
<rect x="5.90991" y="62.9999" width="4" height="4" transform="rotate(27.2993 5.90991 62.9999)" fill="#E14000"/>
<rect x="96.9099" y="35.9999" width="4" height="4" transform="rotate(27.2993 96.9099 35.9999)" fill="#E14000"/>
<defs>
<radialGradient id="paint0_radial_2387_548" cx="0" cy="0" r="1" gradientUnits="userSpaceOnUse" gradientTransform="translate(52.183 52.1074) rotate(90) scale(52.1074 52.1076)">
<stop stop-color="#FFDD00"/>
<stop offset="1" stop-color="#DC3100"/>
</radialGradient>
</defs>
</svg>
