<svg width="105" height="105" viewBox="0 0 105 105" fill="none" xmlns="http://www.w3.org/2000/svg">
<path d="M82.9611 72.0857C81.5716 74.2101 79.9754 76.1853 78.1881 77.9734C76.4927 79.6681 74.6307 81.1945 72.6334 82.534C70.7747 83.7791 68.7963 84.8569 66.7191 85.7494C64.5345 86.6869 62.2424 87.4186 59.865 87.9189C57.4295 88.4316 54.9082 88.7039 52.3225 88.7039C49.8736 88.7039 47.4828 88.4586 45.1678 87.9968C42.9368 87.5531 40.781 86.9018 38.7164 86.0717C36.4747 85.1695 34.3424 84.0547 32.3441 82.7473C30.2204 81.3569 28.245 79.7607 26.4572 77.9734C24.7622 76.278 23.2355 74.4168 21.8965 72.4187C20.6514 70.5592 19.5736 68.5816 18.6812 66.5039C17.743 64.3204 17.0115 62.0278 16.5117 59.6508C15.9991 57.2155 15.726 54.6924 15.726 52.1078C15.726 49.6585 15.9719 47.2667 16.4332 44.952C16.8773 42.7217 17.5293 40.5669 18.3592 38.5024C19.2608 36.259 20.3768 34.1272 21.6831 32.129C23.0731 30.0062 24.6697 28.0295 26.4566 26.2413C28.1515 24.5467 30.0141 23.0202 32.0114 21.6824C33.8702 20.4372 35.8487 19.3594 37.9246 18.467C40.1101 17.5278 42.4026 16.7978 44.7797 16.2958C47.2152 15.7848 49.7365 15.5117 52.3225 15.5117C54.772 15.5117 57.1629 15.7577 59.4779 16.2179C61.7085 16.6617 63.8637 17.3129 65.9283 18.1447C68.1705 19.0453 70.3031 20.1617 72.3004 21.4691C74.424 22.8578 76.4008 24.454 78.1889 26.2413C79.8827 27.9368 81.41 29.7979 82.7487 31.7977C83.993 33.6563 85.0716 35.6348 85.964 37.7108C86.9024 39.896 87.6332 42.1885 88.1336 44.5656C88.6454 47.0009 88.9194 49.5224 88.9194 52.1078C88.9194 54.5562 88.6725 56.9481 88.2115 59.2628C87.7678 61.4931 87.1157 63.6478 86.2856 65.7124C85.3833 67.9558 84.2686 70.0884 82.9611 72.0857ZM75.6954 87.1208C76.2039 86.7812 76.7026 86.4253 77.1964 86.0635C76.7043 86.4269 76.2039 86.7812 75.6954 87.1208ZM15.5521 72.5967C15.6882 72.8403 15.828 73.0823 15.9696 73.3243C15.8292 73.0823 15.6882 72.8403 15.5521 72.5967ZM14.8135 71.2064C14.8876 71.3516 14.9602 71.4959 15.0362 71.6403C14.9609 71.4959 14.8876 71.3516 14.8135 71.2064ZM10.3041 54.6251C10.3095 54.7211 10.3166 54.8187 10.323 54.9147C10.3166 54.8187 10.3102 54.7211 10.3041 54.6251ZM28.9487 17.0939C28.4405 17.4351 27.9426 17.7895 27.4508 18.1512C27.9416 17.7879 28.4405 17.4351 28.9487 17.0939ZM89.0908 31.6164C88.9563 31.3744 88.8177 31.1341 88.6774 30.8954C88.8169 31.1357 88.9563 31.3744 89.0908 31.6164ZM88.2607 30.1875C87.9605 29.697 87.6554 29.2122 87.3363 28.7349C87.6554 29.2122 87.9613 29.697 88.2607 30.1875ZM104.027 45.6262L94.0927 46.8713V46.8754C93.9483 45.7132 93.758 44.5623 93.5202 43.4312C92.9476 40.6932 92.1085 38.0553 91.0307 35.5413C90.8314 35.0754 90.6157 34.6169 90.3999 34.1592L90.4016 34.1616L99.4579 29.8931C98.3539 27.5554 97.0899 25.3079 95.6643 23.1752C93.7588 20.3273 91.5819 17.6755 89.1679 15.2623C86.6219 12.7154 83.8117 10.4343 80.785 8.45755C80.055 7.98017 79.3118 7.52164 78.5572 7.08117L73.516 15.7323L73.5176 15.734C71.7492 14.7004 69.9003 13.7924 67.9799 13.023C65.7973 12.147 63.5198 11.4596 61.1738 10.956L63.2811 1.15982C63.0258 1.10568 62.7694 1.04908 62.5121 0.998229C59.2158 0.346133 55.8098 -6.72513e-07 52.3225 -6.72513e-07C48.64 -6.72513e-07 45.0473 0.384701 41.5814 1.11062C38.1937 1.82013 34.9272 2.85937 31.817 4.19227C28.8558 5.46119 26.0374 6.99587 23.3893 8.76678C22.1432 9.59933 20.9413 10.495 19.7735 11.4309L26.0278 19.2454C24.8167 20.2166 23.653 21.2444 22.5565 22.3427C20.4995 24.399 18.6572 26.6695 17.0596 29.1138L17.1172 29.0293L8.74343 23.5394L8.67224 23.6452C6.81233 26.4915 5.2231 29.5305 3.94204 32.7262C2.76236 35.666 1.84336 38.7411 1.21415 41.9179C0.560494 45.2128 0.215088 48.6201 0.215088 52.1078C0.215088 54.3028 0.354447 56.4658 0.618813 58.5902L10.5531 57.3442L10.5521 57.3336C10.6963 58.4992 10.8863 59.6508 11.1244 60.7852C11.6976 63.5207 12.5371 66.1594 13.6136 68.6735C13.8132 69.1394 14.0279 69.5979 14.2432 70.0548L5.18685 74.3225C6.29065 76.661 7.55465 78.9069 8.98049 81.0395C10.8863 83.8882 13.0629 86.5393 15.4768 88.9533C18.0225 91.4993 20.8334 93.7804 23.8602 95.7572C24.5892 96.2346 25.3329 96.6931 26.0875 97.1352L31.1291 88.4824L31.1281 88.4808C32.8962 89.5143 34.7449 90.4223 36.6648 91.1934C39.0413 92.1448 41.5247 92.888 44.0912 93.3957C43.883 93.3547 43.6785 93.303 43.4709 93.2587L41.3645 103.055C41.6199 103.109 41.8752 103.166 42.1335 103.217C45.429 103.869 48.8349 104.215 52.3225 104.215C56.0046 104.215 59.5974 103.832 63.0626 103.104C66.451 102.395 69.7174 101.355 72.8278 100.024C75.7881 98.7552 78.6073 97.2205 81.2542 95.4496C82.5018 94.6154 83.7034 93.7197 84.8707 92.7854L78.6163 84.9693C79.8286 83.9981 80.9917 82.9704 82.0884 81.8745C84.1209 79.8411 85.9427 77.5986 87.5274 75.1854L95.9021 80.6761L95.9735 80.5703C97.833 77.7233 99.4227 74.6859 100.703 71.4894C101.883 68.548 102.801 65.4745 103.43 62.2969C104.084 59.002 104.43 55.5938 104.43 52.1078C104.43 49.912 104.291 47.749 104.027 45.6262Z" fill="url(#paint0_radial_2387_112)"/>
<path d="M13.6137 68.6737C12.5372 66.1596 11.6976 63.5208 11.1244 60.7853C10.887 59.6542 10.6983 58.5067 10.5531 57.3444L0.618896 58.5904C0.797382 60.0274 1.03222 61.4481 1.32636 62.8483C2.03571 66.2367 3.07381 69.5037 4.4077 72.6133C4.65541 73.1899 4.91937 73.7567 5.18693 74.3227L14.2433 70.0549C14.028 69.5981 13.8133 69.1396 13.6137 68.6737Z" fill="#F8FBF7"/>
<path d="M95.9023 80.6763L87.5276 75.1855C85.9429 77.5987 84.1211 79.8413 82.0886 81.8746C80.9919 82.9705 79.8288 83.9983 78.6165 84.9694L84.8708 92.7856C86.3711 91.5847 87.8106 90.3109 89.1681 88.9534C91.6846 86.4369 93.9403 83.662 95.9023 80.6763Z" fill="#F8FBF7"/>
<path d="M36.665 91.193C34.7451 90.422 32.8963 89.514 31.1293 88.4821L26.0876 97.1349C28.2757 98.412 30.5654 99.5349 32.9409 100.488C35.6438 101.572 38.4593 102.433 41.3647 103.055L43.471 93.2584C41.1251 92.7548 38.8476 92.0674 36.665 91.193Z" fill="#F8FBF7"/>
<path d="M91.0303 35.5415C92.1081 38.0555 92.9472 40.6934 93.5197 43.4314C93.7568 44.5617 93.947 45.71 94.0922 46.8715L104.026 45.6264C103.847 44.1877 103.613 42.767 103.319 41.3668C102.609 37.98 101.57 34.713 100.238 31.6018C99.9906 31.0252 99.7249 30.4584 99.4575 29.8932L90.4011 34.1618C90.6168 34.6187 90.8318 35.0772 91.0303 35.5415Z" fill="#F8FBF7"/>
<path d="M67.9797 13.0233C69.9001 13.7927 71.7481 14.7007 73.5157 15.7326L78.557 7.08143C76.3686 5.80267 74.0801 4.67976 71.7038 3.72663C69.0011 2.64391 66.1854 1.78183 63.2809 1.16008L61.1736 10.9563C63.5196 11.4599 65.7971 12.1473 67.9797 13.0233Z" fill="#F8FBF7"/>
<path d="M22.557 22.3428C23.6534 21.2445 24.8172 20.2167 26.0283 19.2456L19.7739 11.4311C18.2747 12.6303 16.8342 13.9049 15.4772 15.2624C12.9608 17.7781 10.7051 20.553 8.7439 23.5396L17.1177 29.0295C18.7025 26.6163 20.524 24.3737 22.557 22.3428Z" fill="#F8FBF7"/>
<mask id="mask0_2387_112" style="mask-type:luminance" maskUnits="userSpaceOnUse" x="15" y="14" width="75" height="76">
<path d="M38.8578 20.6457C40.9373 19.7598 43.0846 19.0872 45.2715 18.6287C47.5947 18.1431 49.9574 17.8937 52.3223 17.8921C54.5643 17.8921 56.8062 18.1144 59.0125 18.5499C61.0653 18.9568 63.0865 19.5515 65.0502 20.3348C67.1153 21.1583 69.116 22.1918 71.0198 23.4337C72.9696 24.7051 74.8184 26.1938 76.5278 27.9032C78.1461 29.5207 79.5651 31.267 80.7922 33.1028C81.9726 34.872 82.9675 36.7282 83.7845 38.6427C84.6704 40.7228 85.3438 42.8711 85.7998 45.0562C86.2854 47.3808 86.5372 49.7423 86.5372 52.1062C86.5372 54.3496 86.3158 56.5905 85.8786 58.7986C85.4734 60.8509 84.8779 62.872 84.0945 64.8348C83.2702 66.9018 82.2383 68.9008 80.9957 70.8046C79.7243 72.7535 78.2372 74.6023 76.5278 76.3117C74.9078 77.9317 73.1631 79.3507 71.3274 80.577C69.559 81.759 67.7019 82.7523 65.7866 83.5692C63.7071 84.4567 61.5598 85.1294 59.373 85.5862C57.0496 86.0718 54.687 86.3228 52.3223 86.3228C50.0807 86.3228 47.8395 86.1005 45.6322 85.665C43.5797 85.2598 41.5579 84.6634 39.5941 83.8801C37.5291 83.0566 35.5288 82.0231 33.6255 80.782C31.6759 79.5098 29.8265 78.0227 28.1171 76.3117C26.4974 74.6942 25.0777 72.9479 23.8525 71.1122C22.6702 69.3429 21.6765 67.4875 20.8595 65.5714C19.9738 63.4929 19.3007 61.3439 18.8435 59.1587C18.359 56.8341 18.1075 54.4735 18.1075 52.1079C18.1075 49.8653 18.3286 47.6244 18.765 45.4163C19.1709 43.364 19.7662 41.3421 20.5497 39.3785C21.3741 37.3131 22.4065 35.3141 23.6486 33.4103C24.92 31.4614 26.4077 29.6126 28.1171 27.9032C29.7367 26.2832 31.4811 24.8642 33.317 23.6363C35.086 22.456 36.9427 21.4626 38.8578 20.6457ZM21.1274 31.7658C19.7758 33.8369 18.6519 36.0122 17.7563 38.2605C16.9034 40.3956 16.2553 42.5955 15.8146 44.8282C15.3392 47.2299 15.0989 49.6685 15.0989 52.1062C15.0989 54.6794 15.3709 57.2508 15.8999 59.7788C16.3962 62.1559 17.1287 64.4936 18.0931 66.7558C18.9823 68.8401 20.0633 70.8587 21.3481 72.7846C22.683 74.7803 24.2263 76.6792 25.9886 78.4411C27.8492 80.3014 29.8601 81.9189 31.9809 83.3035C34.0523 84.6536 36.2283 85.7765 38.4749 86.6739C40.6111 87.5261 42.8107 88.1733 45.0439 88.6154C47.4441 89.0895 49.884 89.3315 52.3223 89.3315C54.8953 89.3315 57.4649 89.0575 59.9926 88.5293C62.3716 88.0322 64.7084 87.3005 66.9699 86.3359C69.0537 85.4484 71.074 84.3673 72.9983 83.0804C74.9956 81.7458 76.8936 80.2038 78.6555 78.4411C80.5158 76.5807 82.1342 74.5687 83.5171 72.4475C84.8689 70.378 85.9926 68.2019 86.8875 65.9544C87.7405 63.8193 88.3885 61.6195 88.8298 59.3859C89.3056 56.9851 89.5459 54.5465 89.5459 52.1062C89.5459 49.5356 89.2728 46.9641 88.7445 44.4361C88.2466 42.0582 87.5158 39.7213 86.5512 37.4591C85.662 35.3748 84.581 33.3562 83.2964 31.4311C81.9619 29.4346 80.4174 27.5358 78.6555 25.7739C76.7952 23.9135 74.7848 22.296 72.6636 20.9114C70.5925 19.5613 68.4164 18.4384 66.1704 17.541C64.0333 16.6888 61.8343 16.0416 59.6011 15.5995C57.2002 15.1254 54.7613 14.8835 52.3223 14.8835C49.7501 14.8835 47.1794 15.1574 44.6518 15.6857C42.2727 16.1827 39.936 16.9144 37.6739 17.879C35.5903 18.7665 33.5701 19.8492 31.646 21.1345C29.6487 22.4691 27.7508 24.0112 25.9886 25.7739C24.1277 27.6342 22.5105 29.6463 21.1274 31.7658Z" fill="white"/>
</mask>
<g mask="url(#mask0_2387_112)">
<path d="M38.7351 20.5259C40.8143 19.6401 42.9613 18.9676 45.1479 18.5092C47.4709 18.0237 49.8332 17.7743 52.1978 17.7727C54.4395 17.7727 56.6811 17.995 58.8871 18.4304C60.9397 18.8372 62.9606 19.4318 64.9241 20.215C66.9889 21.0385 68.9894 22.0718 70.8929 23.3135C72.8424 24.5847 74.691 26.0732 76.4002 27.7824C78.0183 29.3997 79.4371 31.1457 80.6641 32.9812C81.8442 34.7502 82.8391 36.6061 83.6559 38.5203C84.5417 40.6002 85.215 42.7481 85.671 44.9329C86.1565 47.2572 86.4083 49.6183 86.4083 51.9819C86.4083 54.225 86.1869 56.4656 85.7497 58.6733C85.3446 60.7253 84.7492 62.7461 83.9659 64.7087C83.1417 66.7754 82.11 68.7741 80.8675 70.6776C79.5962 72.6262 78.1093 74.4748 76.4002 76.1839C74.7804 77.8037 73.036 79.2225 71.2005 80.4486C69.4323 81.6304 67.5755 82.6236 65.6604 83.4404C63.5811 84.3278 61.4341 85.0003 59.2476 85.4571C56.9245 85.9426 54.5622 86.1936 52.1978 86.1936C49.9566 86.1936 47.7156 85.9713 45.5086 85.5359C43.4564 85.1307 41.4348 84.5345 39.4713 83.7513C37.4065 82.9278 35.4065 81.8945 33.5035 80.6536C31.5541 79.3816 29.7049 77.8947 27.9958 76.1839C26.3763 74.5666 24.9567 72.8206 23.7317 70.9851C22.5495 69.2161 21.556 67.361 20.7391 65.4452C19.8536 63.367 19.1805 61.2182 18.7234 59.0334C18.239 56.7092 17.9875 54.3488 17.9875 51.9836C17.9875 49.7413 18.2085 47.5007 18.6449 45.293C19.0507 43.241 19.646 41.2194 20.4293 39.256C21.2536 37.1909 22.2859 35.1922 23.5279 33.2887C24.7991 31.3401 26.2866 29.4915 27.9958 27.7824C29.6152 26.1626 31.3593 24.7438 33.195 23.5161C34.9638 22.3359 36.8202 21.3427 38.7351 20.5259ZM21.0069 31.6444C19.6556 33.7152 18.5318 35.8902 17.6363 38.1381C16.7836 40.2729 16.1355 42.4725 15.6949 44.7049C15.2196 47.1063 14.9792 49.5445 14.9792 51.9819C14.9792 54.5547 15.2512 57.1258 15.7802 59.6534C16.2764 62.0302 17.0088 64.3675 17.9731 66.6294C18.8621 68.7134 19.943 70.7317 21.2276 72.6574C22.5623 74.6527 24.1055 76.5513 25.8676 78.313C27.7279 80.173 29.7386 81.7903 31.859 83.1747C33.9302 84.5246 36.1059 85.6474 38.3522 86.5446C40.4881 87.3967 42.6875 88.0438 44.9204 88.4859C47.3203 88.9599 49.7599 89.2018 52.1978 89.2018C54.7705 89.2018 57.3398 88.9279 59.8671 88.3998C62.2459 87.9028 64.5823 87.1712 66.8435 86.2067C68.927 85.3193 70.9471 84.2384 72.8711 82.9516C74.8681 81.6173 76.7659 80.0754 78.5276 78.313C80.3877 76.4529 82.0058 74.4412 83.3886 72.3203C84.7402 70.2511 85.8638 68.0753 86.7585 65.8282C87.6115 63.6934 88.2594 61.4938 88.7006 59.2606C89.1763 56.8601 89.4166 54.4218 89.4166 51.9819C89.4166 49.4116 89.1435 46.8405 88.6153 44.3129C88.1175 41.9354 87.3867 39.5988 86.4223 37.3369C85.5332 35.2529 84.4523 33.2346 83.1679 31.3098C81.8336 29.3136 80.2893 27.415 78.5276 25.6533C76.6675 23.7933 74.6574 22.176 72.5365 20.7916C70.4656 19.4417 68.2898 18.3189 66.0442 17.4217C63.9073 16.5696 61.7086 15.9225 59.4757 15.4804C57.0751 15.0064 54.6365 14.7645 52.1978 14.7645C49.626 14.7645 47.0556 15.0384 44.5283 15.5666C42.1496 16.0636 39.8132 16.7951 37.5514 17.7596C35.468 18.647 33.4481 19.7295 31.5243 21.0147C29.5271 22.349 27.6296 23.8909 25.8676 25.6533C24.0069 27.5134 22.3899 29.5252 21.0069 31.6444Z" fill="#02304E"/>
</g>
<mask id="mask1_2387_112" style="mask-type:luminance" maskUnits="userSpaceOnUse" x="0" y="58" width="6" height="17">
<path d="M5.87356 73.9987C5.60985 73.441 5.34811 72.884 5.10458 72.3148C3.79153 69.2503 2.76819 66.0301 2.06811 62.6917C1.77815 61.3137 1.54709 59.9118 1.37123 58.4961L0.618896 58.5904C0.797382 60.0275 1.03222 61.4482 1.32636 62.8483C2.03571 66.2368 3.07381 69.5038 4.4077 72.6134C4.65541 73.19 4.91937 73.7568 5.18693 74.3227L5.87356 73.9987Z" fill="white"/>
</mask>
<g mask="url(#mask1_2387_112)">
<path d="M5.87356 73.9987C5.60985 73.441 5.34811 72.884 5.10458 72.3148C3.79153 69.2503 2.76819 66.0301 2.06811 62.6917C1.77815 61.3137 1.54709 59.9118 1.37123 58.4961L0.618896 58.5904C0.797382 60.0275 1.03222 61.4482 1.32636 62.8483C2.03571 66.2368 3.07381 69.5038 4.4077 72.6134C4.65541 73.19 4.91937 73.7568 5.18693 74.3227L5.87356 73.9987Z" fill="#D5D5D5"/>
</g>
<mask id="mask2_2387_112" style="mask-type:luminance" maskUnits="userSpaceOnUse" x="84" y="80" width="12" height="13">
<path d="M88.6308 88.4171C87.2947 89.7549 85.8756 91.009 84.3967 92.1935L84.8708 92.7857C86.3711 91.5848 87.8106 90.311 89.1681 88.9535C91.6846 86.437 93.9403 83.6621 95.9023 80.6764L95.2675 80.2614C93.335 83.2028 91.1121 85.9375 88.6308 88.4171Z" fill="white"/>
</mask>
<g mask="url(#mask2_2387_112)">
<path d="M88.6308 88.4171C87.2947 89.7549 85.8756 91.009 84.3967 92.1935L84.8708 92.7857C86.3711 91.5848 87.8106 90.311 89.1681 88.9535C91.6846 86.437 93.9403 83.6621 95.9023 80.6764L95.2675 80.2614C93.335 83.2028 91.1121 85.9375 88.6308 88.4171Z" fill="#D5D5D5"/>
</g>
<mask id="mask3_2387_112" style="mask-type:luminance" maskUnits="userSpaceOnUse" x="26" y="96" width="16" height="8">
<path d="M33.2231 99.7837C30.8806 98.8461 28.6269 97.7371 26.4705 96.4781L26.0876 97.1351C28.2757 98.4122 30.5654 99.5351 32.9409 100.488C35.6438 101.573 38.4593 102.433 41.3647 103.055L41.523 102.313C38.6611 101.701 35.887 100.852 33.2231 99.7837Z" fill="white"/>
</mask>
<g mask="url(#mask3_2387_112)">
<path d="M33.2231 99.7837C30.8806 98.8461 28.6269 97.7371 26.4705 96.4781L26.0876 97.1351C28.2757 98.4122 30.5654 99.5351 32.9409 100.488C35.6438 101.573 38.4593 102.433 41.3647 103.055L41.523 102.313C38.6611 101.701 35.887 100.852 33.2231 99.7837Z" fill="#D5D5D5"/>
</g>
<mask id="mask4_2387_112" style="mask-type:luminance" maskUnits="userSpaceOnUse" x="98" y="29" width="7" height="17">
<path d="M99.5408 31.9002C100.854 34.9662 101.878 38.1849 102.577 41.5233C102.867 42.903 103.097 44.3031 103.274 45.7189L104.027 45.6262C103.847 44.1875 103.613 42.7668 103.32 41.3666C102.609 37.9798 101.571 34.7128 100.238 31.6016C99.9911 31.025 99.7253 30.4582 99.4579 29.893L98.7722 30.2162C99.0355 30.774 99.2972 31.3326 99.5408 31.9002Z" fill="white"/>
</mask>
<g mask="url(#mask4_2387_112)">
<path d="M99.5408 31.9002C100.854 34.9662 101.878 38.1849 102.577 41.5233C102.867 42.903 103.097 44.3031 103.274 45.7189L104.027 45.6262C103.847 44.1875 103.613 42.7668 103.32 41.3666C102.609 37.9798 101.571 34.7128 100.238 31.6016C99.9911 31.025 99.7253 30.4582 99.4579 29.893L98.7722 30.2162C99.0355 30.774 99.2972 31.3326 99.5408 31.9002Z" fill="#D5D5D5"/>
</g>
<mask id="mask5_2387_112" style="mask-type:luminance" maskUnits="userSpaceOnUse" x="63" y="1" width="16" height="7">
<path d="M71.4218 4.43092C73.7636 5.3701 76.0193 6.47742 78.1749 7.7365L78.5571 7.08112C76.3687 5.80236 74.0802 4.67945 71.704 3.72632C69.0013 2.6436 66.1855 1.78151 63.281 1.15977L63.1218 1.90209C65.9837 2.51482 68.7585 3.36296 71.4218 4.43092Z" fill="white"/>
</mask>
<g mask="url(#mask5_2387_112)">
<path d="M71.4218 4.43092C73.7636 5.3701 76.0193 6.47742 78.1749 7.7365L78.5571 7.08112C76.3687 5.80236 74.0802 4.67945 71.704 3.72632C69.0013 2.6436 66.1855 1.78151 63.281 1.15977L63.1218 1.90209C65.9837 2.51482 68.7585 3.36296 71.4218 4.43092Z" fill="#D5D5D5"/>
</g>
<mask id="mask6_2387_112" style="mask-type:luminance" maskUnits="userSpaceOnUse" x="0" y="23" width="10" height="36">
<path d="M1.37114 58.496C1.11162 56.4035 0.973816 54.2709 0.973816 52.1079C0.973816 48.6703 1.3134 45.3138 1.95811 42.0673C2.57871 38.9347 3.48385 35.9064 4.64565 33.0085C5.90875 29.8587 7.47492 26.8648 9.30735 24.0596L9.37716 23.9554L8.74343 23.5395L8.67224 23.6454C6.81233 26.4916 5.2231 29.5306 3.94204 32.7263C2.76236 35.6661 1.84336 38.7412 1.21415 41.918C0.560494 45.2129 0.215088 48.6202 0.215088 52.1079C0.215088 54.3029 0.354447 56.4659 0.618813 58.5903L1.37114 58.496Z" fill="white"/>
</mask>
<g mask="url(#mask6_2387_112)">
<path d="M1.37114 58.496C1.11162 56.4035 0.973816 54.2709 0.973816 52.1079C0.973816 48.6703 1.3134 45.3138 1.95811 42.0673C2.57871 38.9347 3.48385 35.9064 4.64565 33.0085C5.90875 29.8587 7.47492 26.8648 9.30735 24.0596L9.37716 23.9554L8.74343 23.5395L8.67224 23.6454C6.81233 26.4916 5.2231 29.5306 3.94204 32.7263C2.76236 35.6661 1.84336 38.7412 1.21415 41.918C0.560494 45.2129 0.215088 48.6202 0.215088 52.1079C0.215088 54.3029 0.354447 56.4659 0.618813 58.5903L1.37114 58.496Z" fill="#02304E"/>
</g>
<mask id="mask7_2387_112" style="mask-type:luminance" maskUnits="userSpaceOnUse" x="5" y="73" width="22" height="25">
<path d="M26.4703 96.4785C25.7253 96.0446 24.9932 95.5927 24.2735 95.1235C21.2915 93.1738 18.5222 90.9263 16.0134 88.4171C13.6337 86.0384 11.4892 83.4251 9.61159 80.6182C8.20667 78.5184 6.96121 76.3029 5.8734 73.9988L5.18677 74.3228C6.29057 76.6614 7.55457 78.9072 8.98041 81.0399C10.8862 83.8886 13.0628 86.5396 15.4767 88.9536C18.0224 91.4996 20.8333 93.7807 23.8602 95.7575C24.5891 96.2349 25.3328 96.6934 26.0874 97.1355L26.4703 96.4785Z" fill="white"/>
</mask>
<g mask="url(#mask7_2387_112)">
<path d="M26.4703 96.4785C25.7253 96.0446 24.9932 95.5927 24.2735 95.1235C21.2915 93.1738 18.5222 90.9263 16.0134 88.4171C13.6337 86.0384 11.4892 83.4251 9.61159 80.6182C8.20667 78.5184 6.96121 76.3029 5.8734 73.9988L5.18677 74.3228C6.29057 76.6614 7.55457 78.9072 8.98041 81.0399C10.8862 83.8886 13.0628 86.5396 15.4767 88.9536C18.0224 91.4996 20.8333 93.7807 23.8602 95.7575C24.5891 96.2349 25.3328 96.6934 26.0874 97.1355L26.4703 96.4785Z" fill="#02304E"/>
</g>
<mask id="mask8_2387_112" style="mask-type:luminance" maskUnits="userSpaceOnUse" x="41" y="92" width="44" height="13">
<path d="M84.3965 92.1934C83.2457 93.1145 82.0621 93.9954 80.8334 94.819C78.2241 96.5636 75.446 98.0762 72.5292 99.3254C69.4639 100.639 66.2449 101.663 62.9069 102.363C59.4916 103.079 55.9511 103.457 52.3224 103.457C48.8861 103.457 45.5298 103.116 42.2809 102.472C42.0278 102.422 41.7759 102.368 41.5227 102.314L41.3645 103.055C41.6198 103.109 41.8752 103.166 42.1335 103.217C45.4289 103.869 48.8348 104.215 52.3224 104.215C56.0046 104.215 59.5973 103.832 63.0626 103.104C66.4509 102.395 69.7174 101.356 72.8277 100.024C75.788 98.7553 78.6072 97.2206 81.2541 95.4497C82.5017 94.6155 83.7034 93.7198 84.8706 92.7856L84.3965 92.1934Z" fill="white"/>
</mask>
<g mask="url(#mask8_2387_112)">
<path d="M84.3965 92.1934C83.2457 93.1145 82.0621 93.9954 80.8334 94.819C78.2241 96.5636 75.446 98.0762 72.5292 99.3254C69.4639 100.639 66.2449 101.663 62.9069 102.363C59.4916 103.079 55.9511 103.457 52.3224 103.457C48.8861 103.457 45.5298 103.116 42.2809 102.472C42.0278 102.422 41.7759 102.368 41.5227 102.314L41.3645 103.055C41.6198 103.109 41.8752 103.166 42.1335 103.217C45.4289 103.869 48.8348 104.215 52.3224 104.215C56.0046 104.215 59.5973 103.832 63.0626 103.104C66.4509 102.395 69.7174 101.356 72.8277 100.024C75.788 98.7553 78.6072 97.2206 81.2541 95.4497C82.5017 94.6155 83.7034 93.7198 84.8706 92.7856L84.3965 92.1934Z" fill="#02304E"/>
</g>
<mask id="mask9_2387_112" style="mask-type:luminance" maskUnits="userSpaceOnUse" x="95" y="45" width="10" height="36">
<path d="M104.027 45.6262L103.274 45.7189V45.7205C103.534 47.813 103.672 49.944 103.672 52.1078C103.672 55.5446 103.331 58.9011 102.687 62.1484C102.066 65.2801 101.162 68.3076 99.9993 71.208C98.737 74.3561 97.1711 77.35 95.3371 80.1569L95.2673 80.2611L95.9022 80.6761L95.9736 80.5703C97.8331 77.7233 99.4227 74.6859 100.703 71.4894C101.883 68.548 102.801 65.4745 103.43 62.2969C104.084 59.002 104.43 55.5938 104.43 52.1078C104.43 49.912 104.291 47.749 104.027 45.6262Z" fill="white"/>
</mask>
<g mask="url(#mask9_2387_112)">
<path d="M104.027 45.6262L103.274 45.7189V45.7205C103.534 47.813 103.672 49.944 103.672 52.1078C103.672 55.5446 103.331 58.9011 102.687 62.1484C102.066 65.2801 101.162 68.3076 99.9993 71.208C98.737 74.3561 97.1711 77.35 95.3371 80.1569L95.2673 80.2611L95.9022 80.6761L95.9736 80.5703C97.8331 77.7233 99.4227 74.6859 100.703 71.4894C101.883 68.548 102.801 65.4745 103.43 62.2969C104.084 59.002 104.43 55.5938 104.43 52.1078C104.43 49.912 104.291 47.749 104.027 45.6262Z" fill="#02304E"/>
</g>
<mask id="mask10_2387_112" style="mask-type:luminance" maskUnits="userSpaceOnUse" x="78" y="7" width="22" height="24">
<path d="M78.175 7.73667C78.9198 8.17058 79.6515 8.62254 80.3708 9.09172C83.3541 11.0414 86.1232 13.2897 88.6315 15.7981C91.0111 18.1776 93.1552 20.7901 95.0327 23.597C96.4386 25.6968 97.6846 27.9123 98.7722 30.2164L99.458 29.8932C98.3539 27.5555 97.0899 25.308 95.6643 23.1754C93.7589 20.3275 91.582 17.6756 89.168 15.2624C86.6219 12.7156 83.8118 10.4345 80.7851 8.45767C80.055 7.98029 79.3119 7.52177 78.5573 7.0813L78.175 7.73667Z" fill="white"/>
</mask>
<g mask="url(#mask10_2387_112)">
<path d="M78.175 7.73667C78.9198 8.17058 79.6515 8.62254 80.3708 9.09172C83.3541 11.0414 86.1232 13.2897 88.6315 15.7981C91.0111 18.1776 93.1552 20.7901 95.0327 23.597C96.4386 25.6968 97.6846 27.9123 98.7722 30.2164L99.458 29.8932C98.3539 27.5555 97.0899 25.308 95.6643 23.1754C93.7589 20.3275 91.582 17.6756 89.168 15.2624C86.6219 12.7156 83.8118 10.4345 80.7851 8.45767C80.055 7.98029 79.3119 7.52177 78.5573 7.0813L78.175 7.73667Z" fill="#02304E"/>
</g>
<mask id="mask11_2387_112" style="mask-type:luminance" maskUnits="userSpaceOnUse" x="19" y="0" width="45" height="13">
<path d="M20.2474 12.0226C21.3987 11.1007 22.5825 10.2197 23.8107 9.39784C26.4201 7.65154 29.1981 6.13982 32.1147 4.88977C35.18 3.57655 38.3985 2.55207 41.7376 1.85404C45.1528 1.13796 48.6933 0.758198 52.3222 0.758198C55.7583 0.758198 59.1156 1.09942 62.3635 1.74332C62.6166 1.79335 62.8685 1.84748 63.1216 1.90244L63.2809 1.16011C63.0255 1.10597 62.7692 1.04938 62.5119 0.998525C59.2156 0.346429 55.8096 0.000291522 52.3222 0.000291522C48.6398 0.000291522 45.047 0.38499 41.5812 1.11091C38.1935 1.82042 34.9269 2.85966 31.8167 4.19256C28.8555 5.46148 26.0372 6.99616 23.389 8.76708C22.143 9.59963 20.9411 10.4953 19.7732 11.4312L20.2474 12.0226Z" fill="white"/>
</mask>
<g mask="url(#mask11_2387_112)">
<path d="M20.2474 12.0226C21.3987 11.1007 22.5825 10.2197 23.8107 9.39784C26.4201 7.65154 29.1981 6.13982 32.1147 4.88977C35.18 3.57655 38.3985 2.55207 41.7376 1.85404C45.1528 1.13796 48.6933 0.758198 52.3222 0.758198C55.7583 0.758198 59.1156 1.09942 62.3635 1.74332C62.6166 1.79335 62.8685 1.84748 63.1216 1.90244L63.2809 1.16011C63.0255 1.10597 62.7692 1.04938 62.5119 0.998525C59.2156 0.346429 55.8096 0.000291522 52.3222 0.000291522C48.6398 0.000291522 45.047 0.38499 41.5812 1.11091C38.1935 1.82042 34.9269 2.85966 31.8167 4.19256C28.8555 5.46148 26.0372 6.99616 23.389 8.76708C22.143 9.59963 20.9411 10.4953 19.7732 11.4312L20.2474 12.0226Z" fill="#02304E"/>
</g>
<mask id="mask12_2387_112" style="mask-type:luminance" maskUnits="userSpaceOnUse" x="8" y="11" width="13" height="13">
<path d="M16.0133 15.7981C17.351 14.4603 18.7698 13.2061 20.2481 12.0225L19.7739 11.4311C18.2747 12.6303 16.8341 13.905 15.4772 15.2625C12.9608 17.7782 10.7051 20.5531 8.7439 23.5396L9.37762 23.9555C11.3106 21.0124 13.5343 18.2777 16.0133 15.7981Z" fill="white"/>
</mask>
<g mask="url(#mask12_2387_112)">
<path d="M16.0133 15.7981C17.351 14.4603 18.7698 13.2061 20.2481 12.0225L19.7739 11.4311C18.2747 12.6303 16.8341 13.905 15.4772 15.2625C12.9608 17.7782 10.7051 20.5531 8.7439 23.5396L9.37762 23.9555C11.3106 21.0124 13.5343 18.2777 16.0133 15.7981Z" fill="#D5D5D5"/>
</g>
<path d="M61.2727 96.0236C61.2727 94.8506 62.2237 93.9008 63.3963 93.9008C64.5697 93.9008 65.5207 94.8506 65.5207 96.0236C65.5207 97.1957 64.5697 98.1464 63.3963 98.1464C62.2237 98.1464 61.2727 97.1957 61.2727 96.0236Z" fill="black" fill-opacity="0.3"/>
<path d="M39.7317 8.19106C39.7317 7.01893 40.6824 6.06745 41.856 6.06745C43.0287 6.06745 43.9797 7.01893 43.9797 8.19106C43.9797 9.36401 43.0287 10.3163 41.856 10.3163C40.6824 10.3163 39.7317 9.36401 39.7317 8.19106Z" fill="black" fill-opacity="0.3"/>
<path d="M5.7522 44.1423C5.7522 42.9701 6.70319 42.0203 7.87582 42.0203C9.04819 42.0203 10.0002 42.9701 10.0002 44.1423C10.0002 45.3168 9.04819 46.2675 7.87582 46.2675C6.70319 46.2675 5.7522 45.3168 5.7522 44.1423Z" fill="black" fill-opacity="0.3"/>
<path d="M17.5842 83.4331C17.5842 82.2602 18.5356 81.3087 19.7082 81.3087C20.8809 81.3087 21.8319 82.2602 21.8319 83.4331C21.8319 84.6061 20.8809 85.5575 19.7082 85.5575C18.5356 85.5575 17.5842 84.6061 17.5842 83.4331Z" fill="black" fill-opacity="0.3"/>
<path d="M94.0398 62.499C94.0398 61.3268 94.9905 60.3753 96.1634 60.3753C97.3364 60.3753 98.287 61.3268 98.287 62.499C98.287 63.6719 97.3364 64.6217 96.1634 64.6217C94.9905 64.6217 94.0398 63.6719 94.0398 62.499Z" fill="black" fill-opacity="0.3"/>
<path d="M83.572 21.9958C83.572 20.8236 84.5235 19.8722 85.6956 19.8722C86.8686 19.8722 87.8201 20.8236 87.8201 21.9958C87.8201 23.1687 86.8686 24.1186 85.6956 24.1186C84.5235 24.1186 83.572 23.1687 83.572 21.9958Z" fill="black" fill-opacity="0.3"/>
<mask id="mask13_2387_112" style="mask-type:luminance" maskUnits="userSpaceOnUse" x="17" y="17" width="70" height="70">
<path d="M25.6696 74.2432C25.9506 74.5794 26.2366 74.9131 26.532 75.2427C26.2373 74.9131 25.9506 74.5794 25.6696 74.2432ZM24.7795 73.1177C24.9389 73.3256 25.1007 73.5351 25.2647 73.7396C25.1007 73.5334 24.9389 73.3256 24.7795 73.1177ZM24.1129 72.212C24.1749 72.2973 24.235 72.3869 24.2977 72.4739C24.235 72.3869 24.1749 72.299 24.1129 72.212ZM73.7874 24.9182C73.5694 24.7467 73.3497 24.5786 73.1292 24.413C73.3506 24.5786 73.5694 24.7467 73.7874 24.9182ZM78.9743 29.9742C78.6946 29.6379 78.4091 29.3042 78.115 28.9755C78.4091 29.3042 78.6955 29.6362 78.9743 29.9742ZM81.3468 71.0333C82.604 69.1078 83.65 67.0826 84.4831 64.9914C85.2773 63.005 85.8797 60.9586 86.2904 58.881C86.7323 56.6462 86.9562 54.3777 86.9562 52.1082C86.9562 49.7146 86.7018 47.3227 86.2109 44.9713C85.7471 42.7585 85.0678 40.5837 84.1696 38.4799C83.3433 36.5408 82.3362 34.6609 81.1415 32.8705C80.8627 32.4548 80.5703 32.0434 80.2729 31.6361C80.1817 31.5102 80.0854 31.3869 79.9916 31.2618C79.7727 30.9712 79.5488 30.6839 79.3199 30.3983C79.2159 30.2699 79.1137 30.1389 79.0081 30.0122C78.7141 29.659 78.4158 29.3092 78.1066 28.9662L78.001 28.8437C77.6216 28.4246 77.2287 28.0123 76.824 27.6059C76.3956 27.1792 75.9597 26.7652 75.5152 26.3656L75.5144 26.3639L75.4037 26.2692C75.0345 25.9397 74.6585 25.6195 74.2783 25.3094C74.144 25.1987 74.0079 25.0898 73.8711 24.9825C73.5686 24.7417 73.2644 24.5085 72.9569 24.2795C72.8242 24.1823 72.6907 24.0818 72.5572 23.9855C72.1246 23.6754 71.6903 23.3721 71.2476 23.0831C69.3212 21.8259 67.2962 20.7807 65.2058 19.9459C63.2185 19.1534 61.1717 18.5519 59.094 18.1404C56.8603 17.6985 54.5916 17.4746 52.3225 17.4746C49.9287 17.4746 47.5369 17.7281 45.1854 18.2198C42.9722 18.682 40.7981 19.3638 38.6935 20.2611C36.7545 21.0883 34.8755 22.0946 33.085 23.2893C31.2269 24.5321 29.4606 25.9676 27.8208 27.6059C26.0908 29.338 24.5854 31.2086 23.2976 33.1823C22.0408 35.1095 20.9956 37.1348 20.1616 39.2234C19.3675 41.2123 18.7661 43.2587 18.3542 45.3363C17.9136 47.5711 17.6892 49.838 17.6892 52.1082C17.6892 54.5019 17.9437 56.8938 18.4345 59.246C18.8972 61.4588 19.5774 63.6319 20.4751 65.7374C21.3015 67.6757 22.3082 69.5547 23.5045 71.3451C23.7822 71.7625 24.0743 72.1723 24.3729 72.5795C24.465 72.7054 24.5594 72.8288 24.6531 72.9538C24.8719 73.2445 25.0964 73.5334 25.3268 73.819C25.4298 73.9474 25.532 74.0767 25.637 74.2034C25.9304 74.5583 26.2311 74.9081 26.5403 75.2528C26.9539 75.7133 27.3796 76.167 27.8208 76.6097C29.552 78.3401 31.4223 79.8457 33.3963 81.1325C35.3234 82.3898 37.3475 83.4349 39.4383 84.2697C41.4262 85.0622 43.4721 85.6638 45.5497 86.0753C47.7845 86.5171 50.0532 86.7419 52.3225 86.7419C54.716 86.7419 57.1078 86.4876 59.4594 85.9958C61.6727 85.5336 63.8476 84.8518 65.9513 83.9545C67.8903 83.1274 69.7699 82.1228 71.5594 80.9264C73.419 79.6852 75.184 78.248 76.824 76.6097C78.5544 74.8785 80.06 73.007 81.3468 71.0333Z" fill="white"/>
</mask>
<g mask="url(#mask13_2387_112)">
<path d="M25.6696 74.2432C25.9506 74.5794 26.2366 74.9131 26.532 75.2427C26.2373 74.9131 25.9506 74.5794 25.6696 74.2432ZM24.7795 73.1177C24.9389 73.3256 25.1007 73.5351 25.2647 73.7396C25.1007 73.5334 24.9389 73.3256 24.7795 73.1177ZM24.1129 72.212C24.1749 72.2973 24.235 72.3869 24.2977 72.4739C24.235 72.3869 24.1749 72.299 24.1129 72.212ZM73.7874 24.9182C73.5694 24.7467 73.3497 24.5786 73.1292 24.413C73.3506 24.5786 73.5694 24.7467 73.7874 24.9182ZM78.9743 29.9742C78.6946 29.6379 78.4091 29.3042 78.115 28.9755C78.4091 29.3042 78.6955 29.6362 78.9743 29.9742ZM81.3468 71.0333C82.604 69.1078 83.65 67.0826 84.4831 64.9914C85.2773 63.005 85.8797 60.9586 86.2904 58.881C86.7323 56.6462 86.9562 54.3777 86.9562 52.1082C86.9562 49.7146 86.7018 47.3227 86.2109 44.9713C85.7471 42.7585 85.0678 40.5837 84.1696 38.4799C83.3433 36.5408 82.3362 34.6609 81.1415 32.8705C80.8627 32.4548 80.5703 32.0434 80.2729 31.6361C80.1817 31.5102 80.0854 31.3869 79.9916 31.2618C79.7727 30.9712 79.5488 30.6839 79.3199 30.3983C79.2159 30.2699 79.1137 30.1389 79.0081 30.0122C78.7141 29.659 78.4158 29.3092 78.1066 28.9662L78.001 28.8437C77.6216 28.4246 77.2287 28.0123 76.824 27.6059C76.3956 27.1792 75.9597 26.7652 75.5152 26.3656L75.5144 26.3639L75.4037 26.2692C75.0345 25.9397 74.6585 25.6195 74.2783 25.3094C74.144 25.1987 74.0079 25.0898 73.8711 24.9825C73.5686 24.7417 73.2644 24.5085 72.9569 24.2795C72.8242 24.1823 72.6907 24.0818 72.5572 23.9855C72.1246 23.6754 71.6903 23.3721 71.2476 23.0831C69.3212 21.8259 67.2962 20.7807 65.2058 19.9459C63.2185 19.1534 61.1717 18.5519 59.094 18.1404C56.8603 17.6985 54.5916 17.4746 52.3225 17.4746C49.9287 17.4746 47.5369 17.7281 45.1854 18.2198C42.9722 18.682 40.7981 19.3638 38.6935 20.2611C36.7545 21.0883 34.8755 22.0946 33.085 23.2893C31.2269 24.5321 29.4606 25.9676 27.8208 27.6059C26.0908 29.338 24.5854 31.2086 23.2976 33.1823C22.0408 35.1095 20.9956 37.1348 20.1616 39.2234C19.3675 41.2123 18.7661 43.2587 18.3542 45.3363C17.9136 47.5711 17.6892 49.838 17.6892 52.1082C17.6892 54.5019 17.9437 56.8938 18.4345 59.246C18.8972 61.4588 19.5774 63.6319 20.4751 65.7374C21.3015 67.6757 22.3082 69.5547 23.5045 71.3451C23.7822 71.7625 24.0743 72.1723 24.3729 72.5795C24.465 72.7054 24.5594 72.8288 24.6531 72.9538C24.8719 73.2445 25.0964 73.5334 25.3268 73.819C25.4298 73.9474 25.532 74.0767 25.637 74.2034C25.9304 74.5583 26.2311 74.9081 26.5403 75.2528C26.9539 75.7133 27.3796 76.167 27.8208 76.6097C29.552 78.3401 31.4223 79.8457 33.3963 81.1325C35.3234 82.3898 37.3475 83.4349 39.4383 84.2697C41.4262 85.0622 43.4721 85.6638 45.5497 86.0753C47.7845 86.5171 50.0532 86.7419 52.3225 86.7419C54.716 86.7419 57.1078 86.4876 59.4594 85.9958C61.6727 85.5336 63.8476 84.8518 65.9513 83.9545C67.8903 83.1274 69.7699 82.1228 71.5594 80.9264C73.419 79.6852 75.184 78.248 76.824 76.6097C78.5544 74.8785 80.06 73.007 81.3468 71.0333Z" fill="#02304E"/>
</g>
<path d="M49.0986 84.6918C49.5129 84.7304 49.9301 84.7624 50.3486 84.7845C49.9301 84.7607 49.5129 84.7304 49.0986 84.6918ZM47.7443 84.5327C47.9916 84.5663 48.2403 84.5983 48.4886 84.6262C48.2403 84.5967 47.9916 84.5663 47.7443 84.5327ZM46.6879 84.3728C46.7879 84.3883 46.8872 84.408 46.9872 84.4252C46.8872 84.408 46.7879 84.39 46.6879 84.3728ZM46.7056 19.4568C46.6036 19.4741 46.5043 19.4946 46.4024 19.5126C46.5043 19.4946 46.6043 19.4741 46.7056 19.4568ZM55.1676 19.146C54.7542 19.1066 54.3389 19.0746 53.9208 19.0508C54.3389 19.0746 54.7542 19.105 55.1676 19.146ZM84.3443 45.1338C83.8948 42.9946 83.237 40.9333 82.3929 38.9672C81.5907 37.0995 80.6204 35.3212 79.5007 33.6487C78.2974 31.8516 76.9235 30.1775 75.3995 28.6518C73.791 27.0449 72.0135 25.6087 70.1032 24.3586C68.306 23.1824 66.3883 22.18 64.3713 21.3688C62.5126 20.6208 60.5757 20.0351 58.5693 19.6357C58.1025 19.543 57.6315 19.4626 57.1572 19.3904C57.0111 19.3666 56.8637 19.3477 56.7163 19.3264C56.3745 19.2788 56.0307 19.2354 55.6846 19.1985C55.5296 19.1804 55.3726 19.1632 55.2162 19.1493C54.7827 19.1082 54.3453 19.0746 53.9073 19.0508L53.7562 19.0402C53.2185 19.0139 52.6776 19 52.1332 19C51.5594 19 50.9878 19.0156 50.4207 19.0443H50.4187L50.2804 19.0541C49.8109 19.0812 49.3441 19.1197 48.8795 19.1648C48.7145 19.1821 48.5511 19.2017 48.3861 19.2206C48.0221 19.2624 47.66 19.3092 47.3006 19.3633C47.1451 19.3855 46.9891 19.4084 46.8343 19.4339C46.3355 19.5143 45.8395 19.6037 45.3486 19.7062C43.2096 20.1565 41.1481 20.8143 39.1836 21.6576C37.315 22.4606 35.5361 23.4309 33.8642 24.5506C32.0657 25.7539 30.3919 27.1286 28.8664 28.6518C27.2596 30.2603 25.8236 32.037 24.5739 33.9481C23.398 35.7445 22.3945 37.663 21.5835 39.6792C20.8374 41.537 20.2506 43.4761 19.8521 45.4816C19.4368 47.5642 19.2151 49.7157 19.2151 51.9181C19.2151 54.2427 19.4608 56.5115 19.9222 58.7015C20.3718 60.8399 21.0292 62.9036 21.8735 64.8681C22.6761 66.7358 23.6457 68.5158 24.7652 70.1866C25.9703 71.9838 27.3432 73.6595 28.8684 75.1835C30.4758 76.792 32.2532 78.2275 34.1628 79.4767C35.9607 80.653 37.878 81.6553 39.8949 82.4682C41.7527 83.2146 43.6912 83.801 45.6976 84.1997C46.1637 84.2924 46.6357 84.3728 47.1092 84.4466C47.2557 84.4687 47.4031 84.4884 47.5498 84.5089C47.8923 84.5573 48.237 84.6 48.5828 84.6369C48.7385 84.6549 48.8936 84.6722 49.0506 84.6869C49.4847 84.7288 49.9221 84.7624 50.3621 84.7845C50.9484 84.8165 51.5385 84.8354 52.1332 84.8354C54.4584 84.8354 56.7263 84.591 58.917 84.1292C61.0557 83.6788 63.1181 83.0218 65.0826 82.1778C66.9502 81.3756 68.7301 80.4061 70.4009 79.2864C72.1997 78.0815 73.8747 76.7084 75.3995 75.1835C77.0064 73.5767 78.4426 71.7984 79.6918 69.8889C80.8681 68.0909 81.8721 66.174 82.6825 64.157C83.4289 62.2983 84.0162 60.3601 84.4156 58.3537C84.8299 56.2711 85.0522 54.1196 85.0522 51.9181C85.0522 49.5919 84.8053 47.3239 84.3443 45.1338Z" fill="white"/>
<path d="M88.1868 51.9831C88.1868 71.8589 72.0743 87.9714 52.1985 87.9714C32.3227 87.9714 16.2102 71.8589 16.2102 51.9831C16.2102 32.1073 32.3227 15.9948 52.1985 15.9948C72.0743 15.9948 88.1868 32.1073 88.1868 51.9831ZM18.1902 51.9831C18.1902 70.7654 33.4162 85.9914 52.1985 85.9914C70.9808 85.9914 86.2068 70.7654 86.2068 51.9831C86.2068 33.2008 70.9808 17.9748 52.1985 17.9748C33.4162 17.9748 18.1902 33.2008 18.1902 51.9831Z" fill="white"/>
<rect x="89.2131" y="80.9999" width="4" height="4" transform="rotate(88.188 89.2131 80.9999)" fill="#008B8A"/>
<rect x="19.2131" y="17.9999" width="4" height="4" transform="rotate(88.188 19.2131 17.9999)" fill="#008B8A"/>
<rect x="70.304" y="5.42668" width="4" height="4" transform="rotate(66.2837 70.304 5.42668)" fill="#008B8A"/>
<rect x="35.8772" y="92.9999" width="4" height="4" transform="rotate(66.2837 35.8772 92.9999)" fill="#008B8A"/>
<rect x="6.04956" y="62.9999" width="4" height="4" transform="rotate(27.2993 6.04956 62.9999)" fill="#008B8A"/>
<rect x="97.0496" y="35.9999" width="4" height="4" transform="rotate(27.2993 97.0496 35.9999)" fill="#008B8A"/>
<defs>
<radialGradient id="paint0_radial_2387_112" cx="0" cy="0" r="1" gradientUnits="userSpaceOnUse" gradientTransform="translate(52.3227 52.1074) rotate(90) scale(52.1074 52.1076)">
<stop stop-color="#02FFD8"/>
<stop offset="1" stop-color="#025470"/>
</radialGradient>
</defs>
</svg>
