<svg width="106" height="105" viewBox="0 0 106 105" fill="none" xmlns="http://www.w3.org/2000/svg">
<path d="M83.6064 72.0857C82.2169 74.2101 80.6207 76.1853 78.8334 77.9734C77.1379 79.6681 75.276 81.1945 73.2787 82.534C71.42 83.7791 69.4416 84.8569 67.3644 85.7494C65.1798 86.6869 62.8876 87.4186 60.5102 87.9189C58.0747 88.4316 55.5535 88.7039 52.9677 88.7039C50.5189 88.7039 48.128 88.4586 45.813 87.9968C43.5821 87.5531 41.4263 86.9018 39.3616 86.0717C37.12 85.1695 34.9877 84.0547 32.9893 82.7473C30.8656 81.3569 28.8903 79.7607 27.1025 77.9734C25.4075 76.278 23.8807 74.4168 22.5418 72.4187C21.2966 70.5592 20.2188 68.5816 19.3265 66.5039C18.3883 64.3204 17.6568 62.0278 17.157 59.6508C16.6443 57.2155 16.3713 54.6924 16.3713 52.1078C16.3713 49.6585 16.6171 47.2667 17.0785 44.952C17.5226 42.7217 18.1746 40.5669 19.0044 38.5024C19.9061 36.259 21.0221 34.1272 22.3283 32.129C23.7183 30.0062 25.3149 28.0295 27.1018 26.2413C28.7968 24.5467 30.6593 23.0202 32.6567 21.6824C34.5155 20.4372 36.494 19.3594 38.5699 18.467C40.7554 17.5278 43.0479 16.7978 45.425 16.2958C47.8605 15.7848 50.3817 15.5117 52.9677 15.5117C55.4173 15.5117 57.8082 15.7577 60.1231 16.2179C62.3538 16.6617 64.5089 17.3129 66.5736 18.1447C68.8158 19.0453 70.9483 20.1617 72.9456 21.4691C75.0693 22.8578 77.0461 24.454 78.8342 26.2413C80.528 27.9368 82.0553 29.7979 83.3939 31.7977C84.6383 33.6563 85.7169 35.6348 86.6093 37.7108C87.5477 39.896 88.2785 42.1885 88.7789 44.5656C89.2907 47.0009 89.5647 49.5224 89.5647 52.1078C89.5647 54.5562 89.3178 56.9481 88.8568 59.2628C88.413 61.4931 87.7609 63.6478 86.9308 65.7124C86.0286 67.9558 84.9139 70.0884 83.6064 72.0857ZM76.3406 87.1208C76.8492 86.7812 77.3479 86.4253 77.8417 86.0635C77.3495 86.4269 76.8492 86.7812 76.3406 87.1208ZM16.1973 72.5967C16.3335 72.8403 16.4732 73.0823 16.6148 73.3243C16.4745 73.0823 16.3335 72.8403 16.1973 72.5967ZM15.4588 71.2064C15.5328 71.3516 15.6055 71.4959 15.6815 71.6403C15.6062 71.4959 15.5328 71.3516 15.4588 71.2064ZM10.9494 54.6251C10.9548 54.7211 10.9618 54.8187 10.9682 54.9147C10.9618 54.8187 10.9555 54.7211 10.9494 54.6251ZM29.594 17.0939C29.0858 17.4351 28.5879 17.7895 28.0961 18.1512C28.5869 17.7879 29.0858 17.4351 29.594 17.0939ZM89.7361 31.6164C89.6016 31.3744 89.4629 31.1341 89.3227 30.8954C89.4621 31.1357 89.6016 31.3744 89.7361 31.6164ZM88.906 30.1875C88.6058 29.697 88.3007 29.2122 87.9816 28.7349C88.3007 29.2122 88.6066 29.697 88.906 30.1875ZM104.672 45.6262L94.7379 46.8713V46.8754C94.5936 45.7132 94.4033 44.5623 94.1654 43.4312C93.5929 40.6932 92.7538 38.0553 91.676 35.5413C91.4767 35.0754 91.2609 34.6169 91.0452 34.1592L91.0468 34.1616L100.103 29.8931C98.9991 27.5554 97.7351 25.3079 96.3095 23.1752C94.4041 20.3273 92.2272 17.6755 89.8132 15.2623C87.2671 12.7154 84.457 10.4343 81.4303 8.45755C80.7003 7.98017 79.9571 7.52164 79.2025 7.08117L74.1613 15.7323L74.1629 15.734C72.3944 14.7004 70.5456 13.7924 68.6252 13.023C66.4426 12.147 64.1651 11.4596 61.8191 10.956L63.9264 1.15982C63.671 1.10568 63.4147 1.04908 63.1574 0.998229C59.8611 0.346133 56.4551 -6.72513e-07 52.9677 -6.72513e-07C49.2853 -6.72513e-07 45.6926 0.384701 42.2267 1.11062C38.839 1.82013 35.5724 2.85937 32.4622 4.19227C29.5011 5.46119 26.6827 6.99587 24.0345 8.76678C22.7885 9.59933 21.5866 10.495 20.4187 11.4309L26.6731 19.2454C25.462 20.2166 24.2982 21.2444 23.2018 22.3427C21.1448 24.399 19.3024 26.6695 17.7048 29.1138L17.7625 29.0293L9.3887 23.5394L9.3175 23.6452C7.45759 26.4915 5.86836 29.5305 4.5873 32.7262C3.40763 35.666 2.48862 38.7411 1.85941 41.9179C1.20576 45.2128 0.860352 48.6201 0.860352 52.1078C0.860352 54.3028 0.999711 56.4658 1.26408 58.5902L11.1983 57.3442L11.1973 57.3336C11.3415 58.4992 11.5316 59.6508 11.7696 60.7852C12.3428 63.5207 13.1823 66.1594 14.2589 68.6735C14.4585 69.1394 14.6731 69.5979 14.8884 70.0548L5.83211 74.3225C6.93592 76.661 8.19992 78.9069 9.62575 81.0395C11.5316 83.8882 13.7081 86.5393 16.122 88.9533C18.6677 91.4993 21.4786 93.7804 24.5055 95.7572C25.2345 96.2346 25.9782 96.6931 26.7327 97.1352L31.7744 88.4824L31.7734 88.4808C33.5414 89.5143 35.3902 90.4223 37.31 91.1934C39.6865 92.1448 42.17 92.888 44.7365 93.3957C44.5282 93.3547 44.3238 93.303 44.1161 93.2587L42.0098 103.055C42.2652 103.109 42.5205 103.166 42.7788 103.217C46.0742 103.869 49.4801 104.215 52.9677 104.215C56.6499 104.215 60.2427 103.832 63.7079 103.104C67.0962 102.395 70.3627 101.355 73.4731 100.024C76.4333 98.7552 79.2525 97.2205 81.8994 95.4496C83.147 94.6154 84.3487 93.7197 85.5159 92.7854L79.2615 84.9693C80.4739 83.9981 81.637 82.9704 82.7336 81.8745C84.7662 79.8411 86.588 77.5986 88.1727 75.1854L96.5474 80.6761L96.6188 80.5703C98.4783 77.7233 100.068 74.6859 101.348 71.4894C102.529 68.548 103.447 65.4745 104.076 62.2969C104.729 59.002 105.076 55.5938 105.076 52.1078C105.076 49.912 104.936 47.749 104.672 45.6262Z" fill="url(#paint0_radial_2387_439)"/>
<path d="M14.259 68.6737C13.1824 66.1596 12.3429 63.5208 11.7697 60.7853C11.5322 59.6542 11.3436 58.5067 11.1984 57.3444L1.26416 58.5904C1.44265 60.0274 1.67748 61.4481 1.97162 62.8483C2.68097 66.2367 3.71908 69.5037 5.05296 72.6133C5.30067 73.1899 5.56463 73.7567 5.83219 74.3227L14.8885 70.0549C14.6732 69.5981 14.4586 69.1396 14.259 68.6737Z" fill="#F8FBF7"/>
<path d="M96.5476 80.6763L88.1729 75.1855C86.5882 77.5987 84.7664 79.8413 82.7338 81.8746C81.6371 82.9705 80.474 83.9983 79.2617 84.9694L85.5161 92.7856C87.0163 91.5847 88.4559 90.3109 89.8134 88.9534C92.3299 86.4369 94.5856 83.662 96.5476 80.6763Z" fill="#F8FBF7"/>
<path d="M37.3102 91.193C35.3904 90.422 33.5416 89.514 31.7746 88.4821L26.7329 97.1349C28.921 98.412 31.2106 99.5349 33.5861 100.488C36.2891 101.572 39.1045 102.433 42.01 103.055L44.1163 93.2584C41.7703 92.7548 39.4928 92.0674 37.3102 91.193Z" fill="#F8FBF7"/>
<path d="M91.6755 35.5415C92.7533 38.0555 93.5924 40.6934 94.165 43.4314C94.402 44.5617 94.5923 45.71 94.7375 46.8715L104.671 45.6264C104.492 44.1877 104.258 42.767 103.964 41.3668C103.254 37.98 102.216 34.713 100.883 31.6018C100.636 31.0252 100.37 30.4584 100.103 29.8932L91.0464 34.1618C91.2621 34.6187 91.477 35.0772 91.6755 35.5415Z" fill="#F8FBF7"/>
<path d="M68.6249 13.0233C70.5454 13.7927 72.3934 14.7007 74.161 15.7326L79.2022 7.08143C77.0138 5.80267 74.7253 4.67976 72.3491 3.72663C69.6464 2.64391 66.8306 1.78183 63.9261 1.16008L61.8188 10.9563C64.1648 11.4599 66.4423 12.1473 68.6249 13.0233Z" fill="#F8FBF7"/>
<path d="M23.2023 22.3428C24.2987 21.2445 25.4625 20.2167 26.6736 19.2456L20.4192 11.4311C18.92 12.6303 17.4794 13.9049 16.1225 15.2624C13.606 17.7781 11.3504 20.553 9.38916 23.5396L17.763 29.0295C19.3478 26.6163 21.1693 24.3737 23.2023 22.3428Z" fill="#F8FBF7"/>
<mask id="mask0_2387_439" style="mask-type:luminance" maskUnits="userSpaceOnUse" x="15" y="14" width="76" height="76">
<path d="M39.5031 20.6457C41.5826 19.7598 43.7299 19.0872 45.9167 18.6287C48.24 18.1431 50.6026 17.8937 52.9676 17.8921C55.2096 17.8921 57.4515 18.1144 59.6577 18.5499C61.7106 18.9568 63.7317 19.5515 65.6955 20.3348C67.7605 21.1583 69.7613 22.1918 71.6651 23.4337C73.6148 24.7051 75.4636 26.1938 77.173 27.9032C78.7914 29.5207 80.2104 31.267 81.4375 33.1028C82.6178 34.872 83.6128 36.7282 84.4298 38.6427C85.3156 40.7228 85.989 42.8711 86.4451 45.0562C86.9307 47.3808 87.1825 49.7423 87.1825 52.1062C87.1825 54.3496 86.961 56.5905 86.5238 58.7986C86.1186 60.8509 85.5231 62.872 84.7398 64.8348C83.9155 66.9018 82.8836 68.9008 81.6409 70.8046C80.3695 72.7535 78.8824 74.6023 77.173 76.3117C75.553 77.9317 73.8084 79.3507 71.9727 80.577C70.2042 81.759 68.3472 82.7523 66.4318 83.5692C64.3523 84.4567 62.205 85.1294 60.0182 85.5862C57.6949 86.0718 55.3323 86.3228 52.9676 86.3228C50.726 86.3228 48.4848 86.1005 46.2775 85.665C44.225 85.2598 42.2032 84.6634 40.2394 83.8801C38.1743 83.0566 36.174 82.0231 34.2708 80.782C32.3212 79.5098 30.4717 78.0227 28.7624 76.3117C27.1427 74.6942 25.7229 72.9479 24.4977 71.1122C23.3154 69.3429 22.3218 67.4875 21.5047 65.5714C20.6191 63.4929 19.9459 61.3439 19.4887 59.1587C19.0043 56.8341 18.7528 54.4735 18.7528 52.1079C18.7528 49.8653 18.9739 47.6244 19.4102 45.4163C19.8162 43.364 20.4115 41.3421 21.1949 39.3785C22.0194 37.3131 23.0517 35.3141 24.2939 33.4103C25.5653 31.4614 27.053 29.6126 28.7624 27.9032C30.382 26.2832 32.1263 24.8642 33.9622 23.6363C35.7312 22.456 37.588 21.4626 39.5031 20.6457ZM21.7726 31.7658C20.4211 33.8369 19.2971 36.0122 18.4016 38.2605C17.5487 40.3956 16.9005 42.5955 16.4599 44.8282C15.9845 47.2299 15.7441 49.6685 15.7441 52.1062C15.7441 54.6794 16.0161 57.2508 16.5452 59.7788C17.0414 62.1559 17.7739 64.4936 18.7384 66.7558C19.6275 68.8401 20.7085 70.8587 21.9934 72.7846C23.3282 74.7803 24.8716 76.6792 26.6339 78.4411C28.4945 80.3014 30.5054 81.9189 32.6261 83.3035C34.6976 84.6536 36.8735 85.7765 39.1202 86.6739C41.2563 87.5261 43.456 88.1733 45.6892 88.6154C48.0894 89.0895 50.5293 89.3315 52.9676 89.3315C55.5405 89.3315 58.1102 89.0575 60.6379 88.5293C63.0169 88.0322 65.3536 87.3005 67.6151 86.3359C69.699 85.4484 71.7192 84.3673 73.6435 83.0804C75.6408 81.7458 77.5389 80.2038 79.3008 78.4411C81.1611 76.5807 82.7794 74.5687 84.1624 72.4475C85.5141 70.378 86.6379 68.2019 87.5328 65.9544C88.3858 63.8193 89.0338 61.6195 89.4751 59.3859C89.9508 56.9851 90.1912 54.5465 90.1912 52.1062C90.1912 49.5356 89.918 46.9641 89.3898 44.4361C88.8919 42.0582 88.1611 39.7213 87.1965 37.4591C86.3073 35.3748 85.2262 33.3562 83.9417 31.4311C82.6072 29.4346 81.0626 27.5358 79.3008 25.7739C77.4404 23.9135 75.43 22.296 73.3089 20.9114C71.2377 19.5613 69.0616 18.4384 66.8157 17.541C64.6786 16.6888 62.4796 16.0416 60.2464 15.5995C57.8455 15.1254 55.4066 14.8835 52.9676 14.8835C50.3954 14.8835 47.8247 15.1574 45.297 15.6857C42.918 16.1827 40.5813 16.9144 38.3192 17.879C36.2355 18.7665 34.2153 19.8492 32.2913 21.1345C30.2939 22.4691 28.3961 24.0112 26.6339 25.7739C24.7729 27.6342 23.1558 29.6463 21.7726 31.7658Z" fill="white"/>
</mask>
<g mask="url(#mask0_2387_439)">
<path d="M39.3803 20.5259C41.4596 19.6401 43.6066 18.9676 45.7932 18.5092C48.1161 18.0237 50.4785 17.7743 52.8431 17.7727C55.0848 17.7727 57.3264 17.995 59.5324 18.4304C61.585 18.8372 63.6059 19.4318 65.5694 20.215C67.6342 21.0385 69.6346 22.0718 71.5382 23.3135C73.4877 24.5847 75.3362 26.0732 77.0454 27.7824C78.6636 29.3997 80.0824 31.1457 81.3093 32.9812C82.4895 34.7502 83.4843 36.6061 84.3012 38.5203C85.187 40.6002 85.8603 42.7481 86.3163 44.9329C86.8018 47.2572 87.0536 49.6183 87.0536 51.9819C87.0536 54.225 86.8321 56.4656 86.395 58.6733C85.9899 60.7253 85.3944 62.7461 84.6112 64.7087C83.787 66.7754 82.7552 68.7741 81.5127 70.6776C80.2415 72.6262 78.7546 74.4748 77.0454 76.1839C75.4256 77.8037 73.6812 79.2225 71.8457 80.4486C70.0775 81.6304 68.2207 82.6236 66.3056 83.4404C64.2264 84.3278 62.0794 85.0003 59.8929 85.4571C57.5698 85.9426 55.2075 86.1936 52.8431 86.1936C50.6018 86.1936 48.3609 85.9713 46.1539 85.5359C44.1016 85.1307 42.0801 84.5345 40.1166 83.7513C38.0518 82.9278 36.0517 81.8945 34.1488 80.6536C32.1994 79.3816 30.3502 77.8947 28.641 76.1839C27.0216 74.5666 25.602 72.8206 24.377 70.9851C23.1948 69.2161 22.2013 67.361 21.3844 65.4452C20.4988 63.367 19.8258 61.2182 19.3686 59.0334C18.8842 56.7092 18.6328 54.3488 18.6328 51.9836C18.6328 49.7413 18.8538 47.5007 19.2901 45.293C19.696 43.241 20.2913 41.2194 21.0746 39.256C21.8989 37.1909 22.9311 35.1922 24.1732 33.2887C25.4444 31.3401 26.9319 29.4915 28.641 27.7824C30.2605 26.1626 32.0046 24.7438 33.8402 23.5161C35.609 22.3359 37.4655 21.3427 39.3803 20.5259ZM21.6522 31.6444C20.3009 33.7152 19.177 35.8902 18.2816 38.1381C17.4288 40.2729 16.7807 42.4725 16.3402 44.7049C15.8648 47.1063 15.6245 49.5445 15.6245 51.9819C15.6245 54.5547 15.8965 57.1258 16.4255 59.6534C16.9216 62.0302 17.654 64.3675 18.6183 66.6294C19.5074 68.7134 20.5882 70.7317 21.8729 72.6574C23.2076 74.6527 24.7508 76.5513 26.5128 78.313C28.3732 80.173 30.3838 81.7903 32.5043 83.1747C34.5755 84.5246 36.7511 85.6474 38.9975 86.5446C41.1334 87.3967 43.3328 88.0438 45.5657 88.4859C47.9656 88.9599 50.4052 89.2018 52.8431 89.2018C55.4157 89.2018 57.9851 88.9279 60.5124 88.3998C62.8911 87.9028 65.2275 87.1712 67.4887 86.2067C69.5723 85.3193 71.5923 84.2384 73.5164 82.9516C75.5134 81.6173 77.4112 80.0754 79.1729 78.313C81.0329 76.4529 82.6511 74.4412 84.0338 72.3203C85.3854 70.2511 86.509 68.0753 87.4038 65.8282C88.2567 63.6934 88.9046 61.4938 89.3459 59.2606C89.8216 56.8601 90.0619 54.4218 90.0619 51.9819C90.0619 49.4116 89.7888 46.8405 89.2606 44.3129C88.7628 41.9354 88.032 39.5988 87.0675 37.3369C86.1785 35.2529 85.0976 33.2346 83.8132 31.3098C82.4788 29.3136 80.9345 27.415 79.1729 25.6533C77.3128 23.7933 75.3026 22.176 73.1817 20.7916C71.1109 19.4417 68.9351 18.3189 66.6894 17.4217C64.5526 16.5696 62.3538 15.9225 60.1209 15.4804C57.7204 15.0064 55.2818 14.7645 52.8431 14.7645C50.2712 14.7645 47.7009 15.0384 45.1736 15.5666C42.7948 16.0636 40.4584 16.7951 38.1966 17.7596C36.1132 18.647 34.0933 19.7295 32.1695 21.0147C30.1724 22.349 28.2748 23.8909 26.5128 25.6533C24.6521 27.5134 23.0352 29.5252 21.6522 31.6444Z" fill="#220034"/>
</g>
<mask id="mask1_2387_439" style="mask-type:luminance" maskUnits="userSpaceOnUse" x="1" y="58" width="6" height="17">
<path d="M6.51882 73.9987C6.25511 73.441 5.99337 72.884 5.74984 72.3148C4.43679 69.2503 3.41345 66.0301 2.71337 62.6917C2.42341 61.3137 2.19235 59.9118 2.01649 58.4961L1.26416 58.5904C1.44265 60.0275 1.67748 61.4482 1.97162 62.8483C2.68097 66.2368 3.71908 69.5038 5.05296 72.6134C5.30067 73.19 5.56463 73.7568 5.83219 74.3227L6.51882 73.9987Z" fill="white"/>
</mask>
<g mask="url(#mask1_2387_439)">
<path d="M6.51882 73.9987C6.25511 73.441 5.99337 72.884 5.74984 72.3148C4.43679 69.2503 3.41345 66.0301 2.71337 62.6917C2.42341 61.3137 2.19235 59.9118 2.01649 58.4961L1.26416 58.5904C1.44265 60.0275 1.67748 61.4482 1.97162 62.8483C2.68097 66.2368 3.71908 69.5038 5.05296 72.6134C5.30067 73.19 5.56463 73.7568 5.83219 74.3227L6.51882 73.9987Z" fill="#D5D5D5"/>
</g>
<mask id="mask2_2387_439" style="mask-type:luminance" maskUnits="userSpaceOnUse" x="85" y="80" width="12" height="13">
<path d="M89.2761 88.4171C87.9399 89.7549 86.5209 91.009 85.042 92.1935L85.5161 92.7857C87.0163 91.5848 88.4559 90.311 89.8134 88.9535C92.3299 86.437 94.5856 83.6621 96.5476 80.6764L95.9127 80.2614C93.9802 83.2028 91.7573 85.9375 89.2761 88.4171Z" fill="white"/>
</mask>
<g mask="url(#mask2_2387_439)">
<path d="M89.2761 88.4171C87.9399 89.7549 86.5209 91.009 85.042 92.1935L85.5161 92.7857C87.0163 91.5848 88.4559 90.311 89.8134 88.9535C92.3299 86.437 94.5856 83.6621 96.5476 80.6764L95.9127 80.2614C93.9802 83.2028 91.7573 85.9375 89.2761 88.4171Z" fill="#D5D5D5"/>
</g>
<mask id="mask3_2387_439" style="mask-type:luminance" maskUnits="userSpaceOnUse" x="26" y="96" width="17" height="8">
<path d="M33.8684 99.7837C31.5259 98.8461 29.2721 97.7371 27.1158 96.4781L26.7329 97.1351C28.921 98.4122 31.2106 99.5351 33.5861 100.488C36.2891 101.573 39.1045 102.433 42.01 103.055L42.1682 102.313C39.3064 101.701 36.5322 100.852 33.8684 99.7837Z" fill="white"/>
</mask>
<g mask="url(#mask3_2387_439)">
<path d="M33.8684 99.7837C31.5259 98.8461 29.2721 97.7371 27.1158 96.4781L26.7329 97.1351C28.921 98.4122 31.2106 99.5351 33.5861 100.488C36.2891 101.573 39.1045 102.433 42.01 103.055L42.1682 102.313C39.3064 101.701 36.5322 100.852 33.8684 99.7837Z" fill="#D5D5D5"/>
</g>
<mask id="mask4_2387_439" style="mask-type:luminance" maskUnits="userSpaceOnUse" x="99" y="29" width="6" height="17">
<path d="M100.186 31.9002C101.499 34.9662 102.524 38.1849 103.222 41.5233C103.512 42.903 103.743 44.3031 103.919 45.7189L104.672 45.6262C104.492 44.1875 104.259 42.7668 103.965 41.3666C103.255 37.9798 102.216 34.7128 100.883 31.6016C100.636 31.025 100.371 30.4582 100.103 29.893L99.4175 30.2162C99.6808 30.774 99.9424 31.3326 100.186 31.9002Z" fill="white"/>
</mask>
<g mask="url(#mask4_2387_439)">
<path d="M100.186 31.9002C101.499 34.9662 102.524 38.1849 103.222 41.5233C103.512 42.903 103.743 44.3031 103.919 45.7189L104.672 45.6262C104.492 44.1875 104.259 42.7668 103.965 41.3666C103.255 37.9798 102.216 34.7128 100.883 31.6016C100.636 31.025 100.371 30.4582 100.103 29.893L99.4175 30.2162C99.6808 30.774 99.9424 31.3326 100.186 31.9002Z" fill="#D5D5D5"/>
</g>
<mask id="mask5_2387_439" style="mask-type:luminance" maskUnits="userSpaceOnUse" x="63" y="1" width="17" height="7">
<path d="M72.0671 4.43092C74.4089 5.3701 76.6646 6.47742 78.8202 7.7365L79.2024 7.08112C77.014 5.80236 74.7255 4.67945 72.3492 3.72632C69.6465 2.6436 66.8308 1.78151 63.9263 1.15977L63.7671 1.90209C66.6289 2.51482 69.4037 3.36296 72.0671 4.43092Z" fill="white"/>
</mask>
<g mask="url(#mask5_2387_439)">
<path d="M72.0671 4.43092C74.4089 5.3701 76.6646 6.47742 78.8202 7.7365L79.2024 7.08112C77.014 5.80236 74.7255 4.67945 72.3492 3.72632C69.6465 2.6436 66.8308 1.78151 63.9263 1.15977L63.7671 1.90209C66.6289 2.51482 69.4037 3.36296 72.0671 4.43092Z" fill="#D5D5D5"/>
</g>
<mask id="mask6_2387_439" style="mask-type:luminance" maskUnits="userSpaceOnUse" x="0" y="23" width="11" height="36">
<path d="M2.01641 58.496C1.75688 56.4035 1.61908 54.2709 1.61908 52.1079C1.61908 48.6703 1.95866 45.3138 2.60337 42.0673C3.22397 38.9347 4.12911 35.9064 5.29091 33.0085C6.55401 29.8587 8.12019 26.8648 9.95262 24.0596L10.0224 23.9554L9.3887 23.5395L9.3175 23.6454C7.45759 26.4916 5.86836 29.5306 4.5873 32.7263C3.40763 35.6661 2.48862 38.7412 1.85941 41.918C1.20576 45.2129 0.860352 48.6202 0.860352 52.1079C0.860352 54.3029 0.999711 56.4659 1.26408 58.5903L2.01641 58.496Z" fill="white"/>
</mask>
<g mask="url(#mask6_2387_439)">
<path d="M2.01641 58.496C1.75688 56.4035 1.61908 54.2709 1.61908 52.1079C1.61908 48.6703 1.95866 45.3138 2.60337 42.0673C3.22397 38.9347 4.12911 35.9064 5.29091 33.0085C6.55401 29.8587 8.12019 26.8648 9.95262 24.0596L10.0224 23.9554L9.3887 23.5395L9.3175 23.6454C7.45759 26.4916 5.86836 29.5306 4.5873 32.7263C3.40763 35.6661 2.48862 38.7412 1.85941 41.918C1.20576 45.2129 0.860352 48.6202 0.860352 52.1079C0.860352 54.3029 0.999711 56.4659 1.26408 58.5903L2.01641 58.496Z" fill="#220034"/>
</g>
<mask id="mask7_2387_439" style="mask-type:luminance" maskUnits="userSpaceOnUse" x="5" y="73" width="23" height="25">
<path d="M27.1155 96.4785C26.3706 96.0446 25.6384 95.5927 24.9188 95.1235C21.9367 93.1738 19.1674 90.9263 16.6586 88.4171C14.279 86.0384 12.1345 83.4251 10.2569 80.6182C8.85193 78.5184 7.60647 76.3029 6.51866 73.9988L5.83203 74.3228C6.93584 76.6614 8.19984 78.9072 9.62567 81.0399C11.5315 83.8886 13.708 86.5396 16.1219 88.9536C18.6677 91.4996 21.4786 93.7807 24.5054 95.7575C25.2344 96.2349 25.9781 96.6934 26.7326 97.1355L27.1155 96.4785Z" fill="white"/>
</mask>
<g mask="url(#mask7_2387_439)">
<path d="M27.1155 96.4785C26.3706 96.0446 25.6384 95.5927 24.9188 95.1235C21.9367 93.1738 19.1674 90.9263 16.6586 88.4171C14.279 86.0384 12.1345 83.4251 10.2569 80.6182C8.85193 78.5184 7.60647 76.3029 6.51866 73.9988L5.83203 74.3228C6.93584 76.6614 8.19984 78.9072 9.62567 81.0399C11.5315 83.8886 13.708 86.5396 16.1219 88.9536C18.6677 91.4996 21.4786 93.7807 24.5054 95.7575C25.2344 96.2349 25.9781 96.6934 26.7326 97.1355L27.1155 96.4785Z" fill="#220034"/>
</g>
<mask id="mask8_2387_439" style="mask-type:luminance" maskUnits="userSpaceOnUse" x="42" y="92" width="44" height="13">
<path d="M85.0418 92.1934C83.891 93.1145 82.7073 93.9954 81.4786 94.819C78.8694 96.5636 76.0912 98.0762 73.1744 99.3254C70.1092 100.639 66.8901 101.663 63.5521 102.363C60.1369 103.079 56.5964 103.457 52.9677 103.457C49.5313 103.457 46.1751 103.116 42.9261 102.472C42.673 102.422 42.4211 102.368 42.168 102.314L42.0098 103.055C42.2651 103.109 42.5205 103.166 42.7787 103.217C46.0742 103.869 49.4801 104.215 52.9677 104.215C56.6498 104.215 60.2426 103.832 63.7078 103.104C67.0962 102.395 70.3626 101.356 73.473 100.024C76.4333 98.7553 79.2525 97.2206 81.8994 95.4497C83.147 94.6155 84.3487 93.7198 85.5159 92.7856L85.0418 92.1934Z" fill="white"/>
</mask>
<g mask="url(#mask8_2387_439)">
<path d="M85.0418 92.1934C83.891 93.1145 82.7073 93.9954 81.4786 94.819C78.8694 96.5636 76.0912 98.0762 73.1744 99.3254C70.1092 100.639 66.8901 101.663 63.5521 102.363C60.1369 103.079 56.5964 103.457 52.9677 103.457C49.5313 103.457 46.1751 103.116 42.9261 102.472C42.673 102.422 42.4211 102.368 42.168 102.314L42.0098 103.055C42.2651 103.109 42.5205 103.166 42.7787 103.217C46.0742 103.869 49.4801 104.215 52.9677 104.215C56.6498 104.215 60.2426 103.832 63.7078 103.104C67.0962 102.395 70.3626 101.356 73.473 100.024C76.4333 98.7553 79.2525 97.2206 81.8994 95.4497C83.147 94.6155 84.3487 93.7198 85.5159 92.7856L85.0418 92.1934Z" fill="#220034"/>
</g>
<mask id="mask9_2387_439" style="mask-type:luminance" maskUnits="userSpaceOnUse" x="95" y="45" width="11" height="36">
<path d="M104.672 45.6262L103.919 45.7189V45.7205C104.179 47.813 104.317 49.944 104.317 52.1078C104.317 55.5446 103.976 58.9011 103.333 62.1484C102.712 65.2801 101.807 68.3076 100.645 71.208C99.3822 74.3561 97.8164 77.35 95.9823 80.1569L95.9126 80.2611L96.5475 80.6761L96.6188 80.5703C98.4783 77.7233 100.068 74.6859 101.348 71.4894C102.529 68.548 103.447 65.4745 104.076 62.2969C104.729 59.002 105.076 55.5938 105.076 52.1078C105.076 49.912 104.936 47.749 104.672 45.6262Z" fill="white"/>
</mask>
<g mask="url(#mask9_2387_439)">
<path d="M104.672 45.6262L103.919 45.7189V45.7205C104.179 47.813 104.317 49.944 104.317 52.1078C104.317 55.5446 103.976 58.9011 103.333 62.1484C102.712 65.2801 101.807 68.3076 100.645 71.208C99.3822 74.3561 97.8164 77.35 95.9823 80.1569L95.9126 80.2611L96.5475 80.6761L96.6188 80.5703C98.4783 77.7233 100.068 74.6859 101.348 71.4894C102.529 68.548 103.447 65.4745 104.076 62.2969C104.729 59.002 105.076 55.5938 105.076 52.1078C105.076 49.912 104.936 47.749 104.672 45.6262Z" fill="#220034"/>
</g>
<mask id="mask10_2387_439" style="mask-type:luminance" maskUnits="userSpaceOnUse" x="78" y="7" width="23" height="24">
<path d="M78.8203 7.73667C79.5651 8.17058 80.2968 8.62254 81.0161 9.09172C83.9993 11.0414 86.7685 13.2897 89.2768 15.7981C91.6563 18.1776 93.8005 20.7901 95.678 23.597C97.0839 25.6968 98.3299 27.9123 99.4175 30.2164L100.103 29.8932C98.9992 27.5555 97.7352 25.308 96.3096 23.1754C94.4042 20.3275 92.2272 17.6756 89.8133 15.2624C87.2672 12.7156 84.457 10.4345 81.4303 8.45767C80.7003 7.98029 79.9572 7.52177 79.2025 7.0813L78.8203 7.73667Z" fill="white"/>
</mask>
<g mask="url(#mask10_2387_439)">
<path d="M78.8203 7.73667C79.5651 8.17058 80.2968 8.62254 81.0161 9.09172C83.9993 11.0414 86.7685 13.2897 89.2768 15.7981C91.6563 18.1776 93.8005 20.7901 95.678 23.597C97.0839 25.6968 98.3299 27.9123 99.4175 30.2164L100.103 29.8932C98.9992 27.5555 97.7352 25.308 96.3096 23.1754C94.4042 20.3275 92.2272 17.6756 89.8133 15.2624C87.2672 12.7156 84.457 10.4345 81.4303 8.45767C80.7003 7.98029 79.9572 7.52177 79.2025 7.0813L78.8203 7.73667Z" fill="#220034"/>
</g>
<mask id="mask11_2387_439" style="mask-type:luminance" maskUnits="userSpaceOnUse" x="20" y="0" width="44" height="13">
<path d="M20.8926 12.0226C22.0439 11.1007 23.2278 10.2197 24.456 9.39784C27.0653 7.65154 29.8433 6.13982 32.76 4.88977C35.8253 3.57655 39.0438 2.55207 42.3828 1.85404C45.798 1.13796 49.3385 0.758198 52.9675 0.758198C56.4036 0.758198 59.7608 1.09942 63.0088 1.74332C63.2619 1.79335 63.5138 1.84748 63.7669 1.90244L63.9261 1.16011C63.6708 1.10597 63.4145 1.04938 63.1571 0.998525C59.8608 0.346429 56.4548 0.000291522 52.9675 0.000291522C49.2851 0.000291522 45.6923 0.38499 42.2264 1.11091C38.8387 1.82042 35.5722 2.85966 32.462 4.19256C29.5008 5.46148 26.6824 6.99616 24.0343 8.76708C22.7882 9.59963 21.5863 10.4953 20.4185 11.4312L20.8926 12.0226Z" fill="white"/>
</mask>
<g mask="url(#mask11_2387_439)">
<path d="M20.8926 12.0226C22.0439 11.1007 23.2278 10.2197 24.456 9.39784C27.0653 7.65154 29.8433 6.13982 32.76 4.88977C35.8253 3.57655 39.0438 2.55207 42.3828 1.85404C45.798 1.13796 49.3385 0.758198 52.9675 0.758198C56.4036 0.758198 59.7608 1.09942 63.0088 1.74332C63.2619 1.79335 63.5138 1.84748 63.7669 1.90244L63.9261 1.16011C63.6708 1.10597 63.4145 1.04938 63.1571 0.998525C59.8608 0.346429 56.4548 0.000291522 52.9675 0.000291522C49.2851 0.000291522 45.6923 0.38499 42.2264 1.11091C38.8387 1.82042 35.5722 2.85966 32.462 4.19256C29.5008 5.46148 26.6824 6.99616 24.0343 8.76708C22.7882 9.59963 21.5863 10.4953 20.4185 11.4312L20.8926 12.0226Z" fill="#220034"/>
</g>
<mask id="mask12_2387_439" style="mask-type:luminance" maskUnits="userSpaceOnUse" x="9" y="11" width="12" height="13">
<path d="M16.6586 15.7981C17.9962 14.4603 19.415 13.2061 20.8934 12.0225L20.4192 11.4311C18.92 12.6303 17.4794 13.905 16.1225 15.2625C13.606 17.7782 11.3504 20.5531 9.38916 23.5396L10.0229 23.9555C11.9559 21.0124 14.1796 18.2777 16.6586 15.7981Z" fill="white"/>
</mask>
<g mask="url(#mask12_2387_439)">
<path d="M16.6586 15.7981C17.9962 14.4603 19.415 13.2061 20.8934 12.0225L20.4192 11.4311C18.92 12.6303 17.4794 13.905 16.1225 15.2625C13.606 17.7782 11.3504 20.5531 9.38916 23.5396L10.0229 23.9555C11.9559 21.0124 14.1796 18.2777 16.6586 15.7981Z" fill="#D5D5D5"/>
</g>
<path d="M61.918 96.0236C61.918 94.8506 62.869 93.9008 64.0416 93.9008C65.2149 93.9008 66.1659 94.8506 66.1659 96.0236C66.1659 97.1957 65.2149 98.1464 64.0416 98.1464C62.869 98.1464 61.918 97.1957 61.918 96.0236Z" fill="black" fill-opacity="0.3"/>
<path d="M40.377 8.19106C40.377 7.01893 41.3276 6.06745 42.5012 6.06745C43.6739 6.06745 44.6249 7.01893 44.6249 8.19106C44.6249 9.36401 43.6739 10.3163 42.5012 10.3163C41.3276 10.3163 40.377 9.36401 40.377 8.19106Z" fill="black" fill-opacity="0.3"/>
<path d="M6.39746 44.1423C6.39746 42.9701 7.34846 42.0203 8.52108 42.0203C9.69346 42.0203 10.6454 42.9701 10.6454 44.1423C10.6454 45.3168 9.69346 46.2675 8.52108 46.2675C7.34846 46.2675 6.39746 45.3168 6.39746 44.1423Z" fill="black" fill-opacity="0.3"/>
<path d="M18.2295 83.4331C18.2295 82.2602 19.1808 81.3087 20.3534 81.3087C21.5261 81.3087 22.4771 82.2602 22.4771 83.4331C22.4771 84.6061 21.5261 85.5575 20.3534 85.5575C19.1808 85.5575 18.2295 84.6061 18.2295 83.4331Z" fill="black" fill-opacity="0.3"/>
<path d="M94.6851 62.499C94.6851 61.3268 95.6357 60.3753 96.8087 60.3753C97.9816 60.3753 98.9323 61.3268 98.9323 62.499C98.9323 63.6719 97.9816 64.6217 96.8087 64.6217C95.6357 64.6217 94.6851 63.6719 94.6851 62.499Z" fill="black" fill-opacity="0.3"/>
<path d="M84.2173 21.9958C84.2173 20.8236 85.1688 19.8722 86.3409 19.8722C87.5139 19.8722 88.4653 20.8236 88.4653 21.9958C88.4653 23.1687 87.5139 24.1186 86.3409 24.1186C85.1688 24.1186 84.2173 23.1687 84.2173 21.9958Z" fill="black" fill-opacity="0.3"/>
<mask id="mask13_2387_439" style="mask-type:luminance" maskUnits="userSpaceOnUse" x="18" y="17" width="70" height="70">
<path d="M26.3149 74.2432C26.5958 74.5794 26.8819 74.9131 27.1773 75.2427C26.8826 74.9131 26.5958 74.5794 26.3149 74.2432ZM25.4248 73.1177C25.5842 73.3256 25.7459 73.5351 25.9099 73.7396C25.7459 73.5334 25.5842 73.3256 25.4248 73.1177ZM24.7581 72.212C24.8202 72.2973 24.8802 72.3869 24.9429 72.4739C24.8802 72.3869 24.8202 72.299 24.7581 72.212ZM74.4327 24.9182C74.2147 24.7467 73.995 24.5786 73.7745 24.413C73.9959 24.5786 74.2147 24.7467 74.4327 24.9182ZM79.6196 29.9742C79.3399 29.6379 79.0543 29.3042 78.7603 28.9755C79.0543 29.3042 79.3407 29.6362 79.6196 29.9742ZM81.9921 71.0333C83.2493 69.1078 84.2953 67.0826 85.1284 64.9914C85.9226 63.005 86.525 60.9586 86.9356 58.881C87.3775 56.6462 87.6014 54.3777 87.6014 52.1082C87.6014 49.7146 87.3471 47.3227 86.8562 44.9713C86.3923 42.7585 85.713 40.5837 84.8149 38.4799C83.9886 36.5408 82.9815 34.6609 81.7867 32.8705C81.5079 32.4548 81.2156 32.0434 80.9182 31.6361C80.8269 31.5102 80.7306 31.3869 80.6368 31.2618C80.418 30.9712 80.1941 30.6839 79.9651 30.3983C79.8612 30.2699 79.759 30.1389 79.6534 30.0122C79.3593 29.659 79.0611 29.3092 78.7518 28.9662L78.6462 28.8437C78.2669 28.4246 77.874 28.0123 77.4693 27.6059C77.0409 27.1792 76.6049 26.7652 76.1605 26.3656L76.1597 26.3639L76.049 26.2692C75.6798 25.9397 75.3038 25.6195 74.9236 25.3094C74.7892 25.1987 74.6532 25.0898 74.5163 24.9825C74.2138 24.7417 73.9097 24.5085 73.6021 24.2795C73.4695 24.1823 73.336 24.0818 73.2025 23.9855C72.7699 23.6754 72.3356 23.3721 71.8929 23.0831C69.9665 21.8259 67.9415 20.7807 65.851 19.9459C63.8638 19.1534 61.8169 18.5519 59.7393 18.1404C57.5056 17.6985 55.2369 17.4746 52.9678 17.4746C50.574 17.4746 48.1822 17.7281 45.8307 18.2198C43.6174 18.682 41.4434 19.3638 39.3387 20.2611C37.3997 21.0883 35.5208 22.0946 33.7303 23.2893C31.8722 24.5321 30.1058 25.9676 28.4661 27.6059C26.7361 29.338 25.2307 31.2086 23.9429 33.1823C22.6861 35.1095 21.6409 37.1348 20.8068 39.2234C20.0128 41.2123 19.4114 43.2587 18.9995 45.3363C18.5589 47.5711 18.3345 49.838 18.3345 52.1082C18.3345 54.5019 18.589 56.8938 19.0798 59.246C19.5424 61.4588 20.2227 63.6319 21.1204 65.7374C21.9468 67.6757 22.9534 69.5547 24.1498 71.3451C24.4274 71.7625 24.7195 72.1723 25.0182 72.5795C25.1103 72.7054 25.2047 72.8288 25.2984 72.9538C25.5172 73.2445 25.7416 73.5334 25.972 73.819C26.075 73.9474 26.1772 74.0767 26.2823 74.2034C26.5756 74.5583 26.8763 74.9081 27.1856 75.2528C27.5991 75.7133 28.0249 76.167 28.4661 76.6097C30.1972 78.3401 32.0675 79.8457 34.0416 81.1325C35.9686 82.3898 37.9928 83.4349 40.0836 84.2697C42.0715 85.0622 44.1174 85.6638 46.195 86.0753C48.4298 86.5171 50.6984 86.7419 52.9678 86.7419C55.3613 86.7419 57.7531 86.4876 60.1046 85.9958C62.3179 85.5336 64.4929 84.8518 66.5966 83.9545C68.5355 83.1274 70.4151 82.1228 72.2047 80.9264C74.0643 79.6852 75.8293 78.248 77.4693 76.6097C79.1996 74.8785 80.7053 73.007 81.9921 71.0333Z" fill="white"/>
</mask>
<g mask="url(#mask13_2387_439)">
<path d="M26.3149 74.2432C26.5958 74.5794 26.8819 74.9131 27.1773 75.2427C26.8826 74.9131 26.5958 74.5794 26.3149 74.2432ZM25.4248 73.1177C25.5842 73.3256 25.7459 73.5351 25.9099 73.7396C25.7459 73.5334 25.5842 73.3256 25.4248 73.1177ZM24.7581 72.212C24.8202 72.2973 24.8802 72.3869 24.9429 72.4739C24.8802 72.3869 24.8202 72.299 24.7581 72.212ZM74.4327 24.9182C74.2147 24.7467 73.995 24.5786 73.7745 24.413C73.9959 24.5786 74.2147 24.7467 74.4327 24.9182ZM79.6196 29.9742C79.3399 29.6379 79.0543 29.3042 78.7603 28.9755C79.0543 29.3042 79.3407 29.6362 79.6196 29.9742ZM81.9921 71.0333C83.2493 69.1078 84.2953 67.0826 85.1284 64.9914C85.9226 63.005 86.525 60.9586 86.9356 58.881C87.3775 56.6462 87.6014 54.3777 87.6014 52.1082C87.6014 49.7146 87.3471 47.3227 86.8562 44.9713C86.3923 42.7585 85.713 40.5837 84.8149 38.4799C83.9886 36.5408 82.9815 34.6609 81.7867 32.8705C81.5079 32.4548 81.2156 32.0434 80.9182 31.6361C80.8269 31.5102 80.7306 31.3869 80.6368 31.2618C80.418 30.9712 80.1941 30.6839 79.9651 30.3983C79.8612 30.2699 79.759 30.1389 79.6534 30.0122C79.3593 29.659 79.0611 29.3092 78.7518 28.9662L78.6462 28.8437C78.2669 28.4246 77.874 28.0123 77.4693 27.6059C77.0409 27.1792 76.6049 26.7652 76.1605 26.3656L76.1597 26.3639L76.049 26.2692C75.6798 25.9397 75.3038 25.6195 74.9236 25.3094C74.7892 25.1987 74.6532 25.0898 74.5163 24.9825C74.2138 24.7417 73.9097 24.5085 73.6021 24.2795C73.4695 24.1823 73.336 24.0818 73.2025 23.9855C72.7699 23.6754 72.3356 23.3721 71.8929 23.0831C69.9665 21.8259 67.9415 20.7807 65.851 19.9459C63.8638 19.1534 61.8169 18.5519 59.7393 18.1404C57.5056 17.6985 55.2369 17.4746 52.9678 17.4746C50.574 17.4746 48.1822 17.7281 45.8307 18.2198C43.6174 18.682 41.4434 19.3638 39.3387 20.2611C37.3997 21.0883 35.5208 22.0946 33.7303 23.2893C31.8722 24.5321 30.1058 25.9676 28.4661 27.6059C26.7361 29.338 25.2307 31.2086 23.9429 33.1823C22.6861 35.1095 21.6409 37.1348 20.8068 39.2234C20.0128 41.2123 19.4114 43.2587 18.9995 45.3363C18.5589 47.5711 18.3345 49.838 18.3345 52.1082C18.3345 54.5019 18.589 56.8938 19.0798 59.246C19.5424 61.4588 20.2227 63.6319 21.1204 65.7374C21.9468 67.6757 22.9534 69.5547 24.1498 71.3451C24.4274 71.7625 24.7195 72.1723 25.0182 72.5795C25.1103 72.7054 25.2047 72.8288 25.2984 72.9538C25.5172 73.2445 25.7416 73.5334 25.972 73.819C26.075 73.9474 26.1772 74.0767 26.2823 74.2034C26.5756 74.5583 26.8763 74.9081 27.1856 75.2528C27.5991 75.7133 28.0249 76.167 28.4661 76.6097C30.1972 78.3401 32.0675 79.8457 34.0416 81.1325C35.9686 82.3898 37.9928 83.4349 40.0836 84.2697C42.0715 85.0622 44.1174 85.6638 46.195 86.0753C48.4298 86.5171 50.6984 86.7419 52.9678 86.7419C55.3613 86.7419 57.7531 86.4876 60.1046 85.9958C62.3179 85.5336 64.4929 84.8518 66.5966 83.9545C68.5355 83.1274 70.4151 82.1228 72.2047 80.9264C74.0643 79.6852 75.8293 78.248 77.4693 76.6097C79.1996 74.8785 80.7053 73.007 81.9921 71.0333Z" fill="#220034"/>
</g>
<path d="M49.7439 84.6918C50.1582 84.7304 50.5754 84.7624 50.9939 84.7845C50.5754 84.7607 50.1582 84.7304 49.7439 84.6918ZM48.3896 84.5327C48.6369 84.5663 48.8856 84.5983 49.1339 84.6262C48.8856 84.5967 48.6369 84.5663 48.3896 84.5327ZM47.3332 84.3728C47.4332 84.3883 47.5324 84.408 47.6324 84.4252C47.5324 84.408 47.4332 84.39 47.3332 84.3728ZM47.3508 19.4568C47.2489 19.4741 47.1495 19.4946 47.0477 19.5126C47.1495 19.4946 47.2495 19.4741 47.3508 19.4568ZM55.8128 19.146C55.3995 19.1066 54.9842 19.0746 54.566 19.0508C54.9842 19.0746 55.3995 19.105 55.8128 19.146ZM84.9896 45.1338C84.5401 42.9946 83.8822 40.9333 83.0382 38.9672C82.236 37.0995 81.2656 35.3212 80.146 33.6487C78.9427 31.8516 77.5688 30.1775 76.0448 28.6518C74.4363 27.0449 72.6588 25.6087 70.7484 24.3586C68.9513 23.1824 67.0335 22.18 65.0166 21.3688C63.1579 20.6208 61.2209 20.0351 59.2145 19.6357C58.7477 19.543 58.2768 19.4626 57.8025 19.3904C57.6564 19.3666 57.509 19.3477 57.3616 19.3264C57.0198 19.2788 56.676 19.2354 56.3299 19.1985C56.1749 19.1804 56.0179 19.1632 55.8615 19.1493C55.428 19.1082 54.9906 19.0746 54.5526 19.0508L54.4014 19.0402C53.8637 19.0139 53.3229 19 52.7785 19C52.2046 19 51.6331 19.0156 51.066 19.0443H51.064L50.9256 19.0541C50.4562 19.0812 49.9894 19.1197 49.5248 19.1648C49.3598 19.1821 49.1964 19.2017 49.0313 19.2206C48.6673 19.2624 48.3053 19.3092 47.9458 19.3633C47.7904 19.3855 47.6344 19.4084 47.4796 19.4339C46.9807 19.5143 46.4847 19.6037 45.9939 19.7062C43.8549 20.1565 41.7933 20.8143 39.8288 21.6576C37.9602 22.4606 36.1814 23.4309 34.5095 24.5506C32.711 25.7539 31.0372 27.1286 29.5117 28.6518C27.9048 30.2603 26.4688 32.037 25.2192 33.9481C24.0433 35.7445 23.0398 37.663 22.2288 39.6792C21.4826 41.537 20.8959 43.4761 20.4974 45.4816C20.0821 47.5642 19.8604 49.7157 19.8604 51.9181C19.8604 54.2427 20.1061 56.5115 20.5675 58.7015C21.0171 60.8399 21.6745 62.9036 22.5188 64.8681C23.3214 66.7358 24.291 68.5158 25.4105 70.1866C26.6156 71.9838 27.9885 73.6595 29.5137 75.1835C31.1211 76.792 32.8984 78.2275 34.8081 79.4767C36.6059 80.653 38.5232 81.6553 40.5402 82.4682C42.3979 83.2146 44.3364 83.801 46.3428 84.1997C46.809 84.2924 47.2809 84.3728 47.7545 84.4466C47.901 84.4687 48.0484 84.4884 48.1951 84.5089C48.5376 84.5573 48.8823 84.6 49.228 84.6369C49.3838 84.6549 49.5388 84.6722 49.6958 84.6869C50.13 84.7288 50.5673 84.7624 51.0073 84.7845C51.5936 84.8165 52.1838 84.8354 52.7785 84.8354C55.1037 84.8354 57.3716 84.591 59.5622 84.1292C61.701 83.6788 63.7634 83.0218 65.7279 82.1778C67.5955 81.3756 69.3753 80.4061 71.0462 79.2864C72.845 78.0815 74.5199 76.7084 76.0448 75.1835C77.6516 73.5767 79.0879 71.7984 80.3371 69.8889C81.5133 68.0909 82.5173 66.174 83.3277 64.157C84.0742 62.2983 84.6615 60.3601 85.0609 58.3537C85.4751 56.2711 85.6974 54.1196 85.6974 51.9181C85.6974 49.5919 85.4505 47.3239 84.9896 45.1338Z" fill="white"/>
<path d="M88.8321 51.9831C88.8321 71.8589 72.7196 87.9714 52.8438 87.9714C32.968 87.9714 16.8555 71.8589 16.8555 51.9831C16.8555 32.1073 32.968 15.9948 52.8438 15.9948C72.7196 15.9948 88.8321 32.1073 88.8321 51.9831ZM18.8355 51.9831C18.8355 70.7654 34.0615 85.9914 52.8438 85.9914C71.626 85.9914 86.8521 70.7654 86.8521 51.9831C86.8521 33.2008 71.626 17.9748 52.8438 17.9748C34.0615 17.9748 18.8355 33.2008 18.8355 51.9831Z" fill="white"/>
<rect x="89.8584" y="80.9999" width="4" height="4" transform="rotate(88.188 89.8584 80.9999)" fill="#7F1B81"/>
<rect x="19.8584" y="17.9999" width="4" height="4" transform="rotate(88.188 19.8584 17.9999)" fill="#7F1B81"/>
<rect x="70.9492" y="5.42668" width="4" height="4" transform="rotate(66.2837 70.9492 5.42668)" fill="#7F1B81"/>
<rect x="36.5225" y="92.9999" width="4" height="4" transform="rotate(66.2837 36.5225 92.9999)" fill="#7F1B81"/>
<rect x="6.69482" y="62.9999" width="4" height="4" transform="rotate(27.2993 6.69482 62.9999)" fill="#7F1B81"/>
<rect x="97.6948" y="35.9999" width="4" height="4" transform="rotate(27.2993 97.6948 35.9999)" fill="#7F1B81"/>
<defs>
<radialGradient id="paint0_radial_2387_439" cx="0" cy="0" r="1" gradientUnits="userSpaceOnUse" gradientTransform="translate(52.9679 52.1074) rotate(90) scale(52.1074 52.1076)">
<stop stop-color="#FF55FB"/>
<stop offset="1" stop-color="#400159"/>
</radialGradient>
</defs>
</svg>
