<svg width="105" height="105" viewBox="0 0 105 105" fill="none" xmlns="http://www.w3.org/2000/svg">
<path d="M83.3913 72.0857C82.0018 74.2101 80.4056 76.1853 78.6183 77.9734C76.9228 79.6681 75.0609 81.1945 73.0636 82.534C71.2049 83.7791 69.2265 84.8569 67.1493 85.7494C64.9647 86.6869 62.6725 87.4186 60.2951 87.9189C57.8597 88.4316 55.3384 88.7039 52.7526 88.7039C50.3038 88.7039 47.9129 88.4586 45.598 87.9968C43.367 87.5531 41.2112 86.9018 39.1466 86.0717C36.9049 85.1695 34.7726 84.0547 32.7742 82.7473C30.6505 81.3569 28.6752 79.7607 26.8874 77.9734C25.1924 76.278 23.6656 74.4168 22.3267 72.4187C21.0815 70.5592 20.0037 68.5816 19.1114 66.5039C18.1732 64.3204 17.4417 62.0278 16.9419 59.6508C16.4293 57.2155 16.1562 54.6924 16.1562 52.1078C16.1562 49.6585 16.402 47.2667 16.8634 44.952C17.3075 42.7217 17.9595 40.5669 18.7894 38.5024C19.691 36.259 20.807 34.1272 22.1132 32.129C23.5032 30.0062 25.0998 28.0295 26.8867 26.2413C28.5817 24.5467 30.4442 23.0202 32.4416 21.6824C34.3004 20.4372 36.2789 19.3594 38.3548 18.467C40.5403 17.5278 42.8328 16.7978 45.2099 16.2958C47.6454 15.7848 50.1666 15.5117 52.7526 15.5117C55.2022 15.5117 57.5931 15.7577 59.9081 16.2179C62.1387 16.6617 64.2938 17.3129 66.3585 18.1447C68.6007 19.0453 70.7333 20.1617 72.7306 21.4691C74.8542 22.8578 76.831 24.454 78.6191 26.2413C80.3129 27.9368 81.8402 29.7979 83.1789 31.7977C84.4232 33.6563 85.5018 35.6348 86.3942 37.7108C87.3326 39.896 88.0634 42.1885 88.5638 44.5656C89.0756 47.0009 89.3496 49.5224 89.3496 52.1078C89.3496 54.5562 89.1027 56.9481 88.6417 59.2628C88.1979 61.4931 87.5458 63.6478 86.7158 65.7124C85.8135 67.9558 84.6988 70.0884 83.3913 72.0857ZM76.1256 87.1208C76.6341 86.7812 77.1328 86.4253 77.6266 86.0635C77.1345 86.4269 76.6341 86.7812 76.1256 87.1208ZM15.9822 72.5967C16.1184 72.8403 16.2582 73.0823 16.3997 73.3243C16.2594 73.0823 16.1184 72.8403 15.9822 72.5967ZM15.2437 71.2064C15.3177 71.3516 15.3904 71.4959 15.4664 71.6403C15.3911 71.4959 15.3177 71.3516 15.2437 71.2064ZM10.7343 54.6251C10.7397 54.7211 10.7468 54.8187 10.7532 54.9147C10.7468 54.8187 10.7404 54.7211 10.7343 54.6251ZM29.3789 17.0939C28.8707 17.4351 28.3728 17.7895 27.881 18.1512C28.3718 17.7879 28.8707 17.4351 29.3789 17.0939ZM89.521 31.6164C89.3865 31.3744 89.2479 31.1341 89.1076 30.8954C89.247 31.1357 89.3865 31.3744 89.521 31.6164ZM88.6909 30.1875C88.3907 29.697 88.0856 29.2122 87.7665 28.7349C88.0856 29.2122 88.3915 29.697 88.6909 30.1875ZM104.457 45.6262L94.5229 46.8713V46.8754C94.3785 45.7132 94.1882 44.5623 93.9503 43.4312C93.3778 40.6932 92.5387 38.0553 91.4609 35.5413C91.2616 35.0754 91.0458 34.6169 90.8301 34.1592L90.8318 34.1616L99.8881 29.8931C98.784 27.5554 97.52 25.3079 96.0945 23.1752C94.189 20.3273 92.0121 17.6755 89.5981 15.2623C87.0521 12.7154 84.2419 10.4343 81.2152 8.45755C80.4852 7.98017 79.742 7.52164 78.9874 7.08117L73.9462 15.7323L73.9478 15.734C72.1794 14.7004 70.3305 13.7924 68.4101 13.023C66.2275 12.147 63.95 11.4596 61.604 10.956L63.7113 1.15982C63.4559 1.10568 63.1996 1.04908 62.9423 0.998229C59.646 0.346133 56.24 -6.72513e-07 52.7526 -6.72513e-07C49.0702 -6.72513e-07 45.4775 0.384701 42.0116 1.11062C38.6239 1.82013 35.3573 2.85937 32.2471 4.19227C29.286 5.46119 26.4676 6.99587 23.8194 8.76678C22.5734 9.59933 21.3715 10.495 20.2036 11.4309L26.458 19.2454C25.2469 20.2166 24.0831 21.2444 22.9867 22.3427C20.9297 24.399 19.0874 26.6695 17.4898 29.1138L17.5474 29.0293L9.17361 23.5394L9.10241 23.6452C7.2425 26.4915 5.65328 29.5305 4.37222 32.7262C3.19254 35.666 2.27354 38.7411 1.64432 41.9179C0.99067 45.2128 0.645264 48.6201 0.645264 52.1078C0.645264 54.3028 0.784623 56.4658 1.04899 58.5902L10.9832 57.3442L10.9823 57.3336C11.1265 58.4992 11.3165 59.6508 11.5545 60.7852C12.1277 63.5207 12.9672 66.1594 14.0438 68.6735C14.2434 69.1394 14.458 69.5979 14.6734 70.0548L5.61702 74.3225C6.72083 76.661 7.98483 78.9069 9.41066 81.0395C11.3165 83.8882 13.493 86.5393 15.9069 88.9533C18.4526 91.4993 21.2635 93.7804 24.2904 95.7572C25.0194 96.2346 25.7631 96.6931 26.5176 97.1352L31.5593 88.4824L31.5583 88.4808C33.3263 89.5143 35.1751 90.4223 37.095 91.1934C39.4715 92.1448 41.9549 92.888 44.5214 93.3957C44.3131 93.3547 44.1087 93.303 43.901 93.2587L41.7947 103.055C42.0501 103.109 42.3054 103.166 42.5637 103.217C45.8591 103.869 49.265 104.215 52.7526 104.215C56.4348 104.215 60.0276 103.832 63.4928 103.104C66.8811 102.395 70.1476 101.355 73.258 100.024C76.2182 98.7552 79.0374 97.2205 81.6844 95.4496C82.932 94.6154 84.1336 93.7197 85.3008 92.7854L79.0465 84.9693C80.2588 83.9981 81.4219 82.9704 82.5186 81.8745C84.5511 79.8411 86.3729 77.5986 87.9576 75.1854L96.3323 80.6761L96.4037 80.5703C98.2632 77.7233 99.8528 74.6859 101.133 71.4894C102.314 68.548 103.231 65.4745 103.861 62.2969C104.514 59.002 104.86 55.5938 104.86 52.1078C104.86 49.912 104.721 47.749 104.457 45.6262Z" fill="url(#paint0_radial_2387_330)"/>
<path d="M14.0439 68.6737C12.9673 66.1596 12.1278 63.5208 11.5546 60.7853C11.3172 59.6542 11.1285 58.5067 10.9833 57.3444L1.04907 58.5904C1.22756 60.0274 1.46239 61.4481 1.75653 62.8483C2.46588 66.2367 3.50399 69.5037 4.83787 72.6133C5.08559 73.1899 5.34954 73.7567 5.61711 74.3227L14.6734 70.0549C14.4581 69.5981 14.2435 69.1396 14.0439 68.6737Z" fill="#F8FBF7"/>
<path d="M96.3325 80.6763L87.9578 75.1855C86.3731 77.5987 84.5513 79.8413 82.5187 81.8746C81.4221 82.9705 80.259 83.9983 79.0466 84.9694L85.301 92.7856C86.8012 91.5847 88.2408 90.3109 89.5983 88.9534C92.1148 86.4369 94.3705 83.662 96.3325 80.6763Z" fill="#F8FBF7"/>
<path d="M37.0951 91.193C35.1753 90.422 33.3265 89.514 31.5595 88.4821L26.5178 97.1349C28.7059 98.412 30.9955 99.5349 33.3711 100.488C36.074 101.572 38.8894 102.433 41.7949 103.055L43.9012 93.2584C41.5552 92.7548 39.2777 92.0674 37.0951 91.193Z" fill="#F8FBF7"/>
<path d="M91.4604 35.5415C92.5382 38.0555 93.3773 40.6934 93.9499 43.4314C94.1869 44.5617 94.3772 45.71 94.5224 46.8715L104.456 45.6264C104.277 44.1877 104.043 42.767 103.749 41.3668C103.039 37.98 102.001 34.713 100.668 31.6018C100.421 31.0252 100.155 30.4584 99.8876 29.8932L90.8313 34.1618C91.047 34.6187 91.2619 35.0772 91.4604 35.5415Z" fill="#F8FBF7"/>
<path d="M68.4098 13.0233C70.3303 13.7927 72.1783 14.7007 73.9459 15.7326L78.9872 7.08143C76.7987 5.80267 74.5103 4.67976 72.134 3.72663C69.4313 2.64391 66.6155 1.78183 63.7111 1.16008L61.6038 10.9563C63.9497 11.4599 66.2272 12.1473 68.4098 13.0233Z" fill="#F8FBF7"/>
<path d="M22.9872 22.3428C24.0836 21.2445 25.2474 20.2167 26.4585 19.2456L20.2041 11.4311C18.7049 12.6303 17.2643 13.9049 15.9074 15.2624C13.391 17.7781 11.1353 20.553 9.17407 23.5396L17.5479 29.0295C19.1327 26.6163 20.9542 24.3737 22.9872 22.3428Z" fill="#F8FBF7"/>
<mask id="mask0_2387_330" style="mask-type:luminance" maskUnits="userSpaceOnUse" x="15" y="14" width="75" height="76">
<path d="M39.288 20.6457C41.3675 19.7598 43.5148 19.0872 45.7016 18.6287C48.0249 18.1431 50.3875 17.8937 52.7525 17.8921C54.9945 17.8921 57.2364 18.1144 59.4427 18.5499C61.4955 18.9568 63.5167 19.5515 65.4804 20.3348C67.5455 21.1583 69.5462 22.1918 71.45 23.4337C73.3997 24.7051 75.2486 26.1938 76.9579 27.9032C78.5763 29.5207 79.9953 31.267 81.2224 33.1028C82.4027 34.872 83.3977 36.7282 84.2147 38.6427C85.1005 40.7228 85.774 42.8711 86.23 45.0562C86.7156 47.3808 86.9674 49.7423 86.9674 52.1062C86.9674 54.3496 86.7459 56.5905 86.3088 58.7986C85.9036 60.8509 85.3081 62.872 84.5247 64.8348C83.7004 66.9018 82.6685 68.9008 81.4258 70.8046C80.1545 72.7535 78.6673 74.6023 76.9579 76.3117C75.338 77.9317 73.5933 79.3507 71.7576 80.577C69.9891 81.759 68.1321 82.7523 66.2167 83.5692C64.1373 84.4567 61.9899 85.1294 59.8032 85.5862C57.4798 86.0718 55.1172 86.3228 52.7525 86.3228C50.5109 86.3228 48.2697 86.1005 46.0624 85.665C44.0099 85.2598 41.9881 84.6634 40.0243 83.8801C37.9593 83.0566 35.9589 82.0231 34.0557 80.782C32.1061 79.5098 30.2567 78.0227 28.5473 76.3117C26.9276 74.6942 25.5078 72.9479 24.2826 71.1122C23.1003 69.3429 22.1067 67.4875 21.2896 65.5714C20.404 63.4929 19.7308 61.3439 19.2736 59.1587C18.7892 56.8341 18.5377 54.4735 18.5377 52.1079C18.5377 49.8653 18.7588 47.6244 19.1951 45.4163C19.6011 43.364 20.1964 41.3421 20.9798 39.3785C21.8043 37.3131 22.8366 35.3141 24.0788 33.4103C25.3502 31.4614 26.8379 29.6126 28.5473 27.9032C30.1669 26.2832 31.9113 24.8642 33.7471 23.6363C35.5162 22.456 37.3729 21.4626 39.288 20.6457ZM21.5575 31.7658C20.206 33.8369 19.082 36.0122 18.1865 38.2605C17.3336 40.3956 16.6854 42.5955 16.2448 44.8282C15.7694 47.2299 15.5291 49.6685 15.5291 52.1062C15.5291 54.6794 15.801 57.2508 16.3301 59.7788C16.8264 62.1559 17.5588 64.4936 18.5233 66.7558C19.4124 68.8401 20.4934 70.8587 21.7783 72.7846C23.1131 74.7803 24.6565 76.6792 26.4188 78.4411C28.2794 80.3014 30.2903 81.9189 32.411 83.3035C34.4825 84.6536 36.6584 85.7765 38.9051 86.6739C41.0413 87.5261 43.2409 88.1733 45.4741 88.6154C47.8743 89.0895 50.3142 89.3315 52.7525 89.3315C55.3254 89.3315 57.8951 89.0575 60.4228 88.5293C62.8018 88.0322 65.1385 87.3005 67.4 86.3359C69.4839 85.4484 71.5041 84.3673 73.4284 83.0804C75.4257 81.7458 77.3238 80.2038 79.0857 78.4411C80.946 76.5807 82.5643 74.5687 83.9473 72.4475C85.299 70.378 86.4228 68.2019 87.3177 65.9544C88.1707 63.8193 88.8187 61.6195 89.26 59.3859C89.7358 56.9851 89.9761 54.5465 89.9761 52.1062C89.9761 49.5356 89.7029 46.9641 89.1747 44.4361C88.6768 42.0582 87.946 39.7213 86.9814 37.4591C86.0922 35.3748 85.0111 33.3562 83.7266 31.4311C82.3921 29.4346 80.8476 27.5358 79.0857 25.7739C77.2254 23.9135 75.2149 22.296 73.0938 20.9114C71.0226 19.5613 68.8465 18.4384 66.6006 17.541C64.4635 16.6888 62.2645 16.0416 60.0313 15.5995C57.6304 15.1254 55.1915 14.8835 52.7525 14.8835C50.1803 14.8835 47.6096 15.1574 45.082 15.6857C42.7029 16.1827 40.3662 16.9144 38.1041 17.879C36.0204 18.7665 34.0003 19.8492 32.0762 21.1345C30.0788 22.4691 28.181 24.0112 26.4188 25.7739C24.5578 27.6342 22.9407 29.6463 21.5575 31.7658Z" fill="white"/>
</mask>
<g mask="url(#mask0_2387_330)">
<path d="M39.1653 20.5259C41.2445 19.6401 43.3915 18.9676 45.5781 18.5092C47.9011 18.0237 50.2634 17.7743 52.628 17.7727C54.8697 17.7727 57.1113 17.995 59.3173 18.4304C61.3699 18.8372 63.3908 19.4318 65.3543 20.215C67.4191 21.0385 69.4196 22.0718 71.3231 23.3135C73.2726 24.5847 75.1212 26.0732 76.8303 27.7824C78.4485 29.3997 79.8673 31.1457 81.0942 32.9812C82.2744 34.7502 83.2693 36.6061 84.0861 38.5203C84.9719 40.6002 85.6452 42.7481 86.1012 44.9329C86.5867 47.2572 86.8385 49.6183 86.8385 51.9819C86.8385 54.225 86.6171 56.4656 86.1799 58.6733C85.7748 60.7253 85.1794 62.7461 84.3961 64.7087C83.5719 66.7754 82.5401 68.7741 81.2976 70.6776C80.0264 72.6262 78.5395 74.4748 76.8303 76.1839C75.2106 77.8037 73.4661 79.2225 71.6307 80.4486C69.8624 81.6304 68.0056 82.6236 66.0905 83.4404C64.0113 84.3278 61.8643 85.0003 59.6778 85.4571C57.3547 85.9426 54.9924 86.1936 52.628 86.1936C50.3867 86.1936 48.1458 85.9713 45.9388 85.5359C43.8866 85.1307 41.865 84.5345 39.9015 83.7513C37.8367 82.9278 35.8366 81.8945 33.9337 80.6536C31.9843 79.3816 30.1351 77.8947 28.4259 76.1839C26.8065 74.5666 25.3869 72.8206 24.1619 70.9851C22.9797 69.2161 21.9862 67.361 21.1693 65.4452C20.2838 63.367 19.6107 61.2182 19.1535 59.0334C18.6692 56.7092 18.4177 54.3488 18.4177 51.9836C18.4177 49.7413 18.6387 47.5007 19.075 45.293C19.4809 43.241 20.0762 41.2194 20.8595 39.256C21.6838 37.1909 22.716 35.1922 23.9581 33.2887C25.2293 31.3401 26.7168 29.4915 28.4259 27.7824C30.0454 26.1626 31.7895 24.7438 33.6251 23.5161C35.3939 22.3359 37.2504 21.3427 39.1653 20.5259ZM21.4371 31.6444C20.0858 33.7152 18.9619 35.8902 18.0665 38.1381C17.2137 40.2729 16.5657 42.4725 16.1251 44.7049C15.6497 47.1063 15.4094 49.5445 15.4094 51.9819C15.4094 54.5547 15.6814 57.1258 16.2104 59.6534C16.7066 62.0302 17.4389 64.3675 18.4033 66.6294C19.2923 68.7134 20.3732 70.7317 21.6578 72.6574C22.9925 74.6527 24.5357 76.5513 26.2978 78.313C28.1581 80.173 30.1687 81.7903 32.2892 83.1747C34.3604 84.5246 36.5361 85.6474 38.7824 86.5446C40.9183 87.3967 43.1177 88.0438 45.3506 88.4859C47.7505 88.9599 50.1901 89.2018 52.628 89.2018C55.2006 89.2018 57.77 88.9279 60.2973 88.3998C62.676 87.9028 65.0124 87.1712 67.2737 86.2067C69.3572 85.3193 71.3772 84.2384 73.3013 82.9516C75.2983 81.6173 77.1961 80.0754 78.9578 78.313C80.8179 76.4529 82.436 74.4412 83.8187 72.3203C85.1703 70.2511 86.2939 68.0753 87.1887 65.8282C88.0416 63.6934 88.6896 61.4938 89.1308 59.2606C89.6065 56.8601 89.8468 54.4218 89.8468 51.9819C89.8468 49.4116 89.5737 46.8405 89.0455 44.3129C88.5477 41.9354 87.8169 39.5988 86.8524 37.3369C85.9634 35.2529 84.8825 33.2346 83.5981 31.3098C82.2638 29.3136 80.7194 27.415 78.9578 25.6533C77.0977 23.7933 75.0875 22.176 72.9667 20.7916C70.8958 19.4417 68.72 18.3189 66.4744 17.4217C64.3375 16.5696 62.1388 15.9225 59.9058 15.4804C57.5053 15.0064 55.0667 14.7645 52.628 14.7645C50.0561 14.7645 47.4858 15.0384 44.9585 15.5666C42.5797 16.0636 40.2433 16.7951 37.9816 17.7596C35.8982 18.647 33.8782 19.7295 31.9544 21.0147C29.9573 22.349 28.0597 23.8909 26.2978 25.6533C24.437 27.5134 22.8201 29.5252 21.4371 31.6444Z" fill="#0E255E"/>
</g>
<mask id="mask1_2387_330" style="mask-type:luminance" maskUnits="userSpaceOnUse" x="1" y="58" width="6" height="17">
<path d="M6.30373 73.9987C6.04003 73.441 5.77828 72.884 5.53475 72.3148C4.2217 69.2503 3.19836 66.0301 2.49828 62.6917C2.20833 61.3137 1.97726 59.9118 1.8014 58.4961L1.04907 58.5904C1.22756 60.0275 1.46239 61.4482 1.75653 62.8483C2.46588 66.2368 3.50399 69.5038 4.83787 72.6134C5.08559 73.19 5.34954 73.7568 5.61711 74.3227L6.30373 73.9987Z" fill="white"/>
</mask>
<g mask="url(#mask1_2387_330)">
<path d="M6.30373 73.9987C6.04003 73.441 5.77828 72.884 5.53475 72.3148C4.2217 69.2503 3.19836 66.0301 2.49828 62.6917C2.20833 61.3137 1.97726 59.9118 1.8014 58.4961L1.04907 58.5904C1.22756 60.0275 1.46239 61.4482 1.75653 62.8483C2.46588 66.2368 3.50399 69.5038 4.83787 72.6134C5.08559 73.19 5.34954 73.7568 5.61711 74.3227L6.30373 73.9987Z" fill="#D5D5D5"/>
</g>
<mask id="mask2_2387_330" style="mask-type:luminance" maskUnits="userSpaceOnUse" x="84" y="80" width="13" height="13">
<path d="M89.061 88.4171C87.7248 89.7549 86.3058 91.009 84.8269 92.1935L85.301 92.7857C86.8012 91.5848 88.2408 90.311 89.5983 88.9535C92.1148 86.437 94.3705 83.6621 96.3325 80.6764L95.6976 80.2614C93.7651 83.2028 91.5423 85.9375 89.061 88.4171Z" fill="white"/>
</mask>
<g mask="url(#mask2_2387_330)">
<path d="M89.061 88.4171C87.7248 89.7549 86.3058 91.009 84.8269 92.1935L85.301 92.7857C86.8012 91.5848 88.2408 90.311 89.5983 88.9535C92.1148 86.437 94.3705 83.6621 96.3325 80.6764L95.6976 80.2614C93.7651 83.2028 91.5423 85.9375 89.061 88.4171Z" fill="#D5D5D5"/>
</g>
<mask id="mask3_2387_330" style="mask-type:luminance" maskUnits="userSpaceOnUse" x="26" y="96" width="16" height="8">
<path d="M33.6533 99.7837C31.3108 98.8461 29.0571 97.7371 26.9007 96.4781L26.5178 97.1351C28.7059 98.4122 30.9955 99.5351 33.3711 100.488C36.074 101.573 38.8894 102.433 41.7949 103.055L41.9531 102.313C39.0913 101.701 36.3171 100.852 33.6533 99.7837Z" fill="white"/>
</mask>
<g mask="url(#mask3_2387_330)">
<path d="M33.6533 99.7837C31.3108 98.8461 29.0571 97.7371 26.9007 96.4781L26.5178 97.1351C28.7059 98.4122 30.9955 99.5351 33.3711 100.488C36.074 101.573 38.8894 102.433 41.7949 103.055L41.9531 102.313C39.0913 101.701 36.3171 100.852 33.6533 99.7837Z" fill="#D5D5D5"/>
</g>
<mask id="mask4_2387_330" style="mask-type:luminance" maskUnits="userSpaceOnUse" x="99" y="29" width="6" height="17">
<path d="M99.971 31.9002C101.284 34.9662 102.309 38.1849 103.007 41.5233C103.297 42.903 103.528 44.3031 103.704 45.7189L104.457 45.6262C104.277 44.1875 104.043 42.7668 103.75 41.3666C103.039 37.9798 102.001 34.7128 100.668 31.6016C100.421 31.025 100.156 30.4582 99.8881 29.893L99.2024 30.2162C99.4657 30.774 99.7273 31.3326 99.971 31.9002Z" fill="white"/>
</mask>
<g mask="url(#mask4_2387_330)">
<path d="M99.971 31.9002C101.284 34.9662 102.309 38.1849 103.007 41.5233C103.297 42.903 103.528 44.3031 103.704 45.7189L104.457 45.6262C104.277 44.1875 104.043 42.7668 103.75 41.3666C103.039 37.9798 102.001 34.7128 100.668 31.6016C100.421 31.025 100.156 30.4582 99.8881 29.893L99.2024 30.2162C99.4657 30.774 99.7273 31.3326 99.971 31.9002Z" fill="#D5D5D5"/>
</g>
<mask id="mask5_2387_330" style="mask-type:luminance" maskUnits="userSpaceOnUse" x="63" y="1" width="16" height="7">
<path d="M71.852 4.43092C74.1938 5.3701 76.4495 6.47742 78.6051 7.7365L78.9873 7.08112C76.7989 5.80236 74.5104 4.67945 72.1342 3.72632C69.4314 2.6436 66.6157 1.78151 63.7112 1.15977L63.552 1.90209C66.4138 2.51482 69.1886 3.36296 71.852 4.43092Z" fill="white"/>
</mask>
<g mask="url(#mask5_2387_330)">
<path d="M71.852 4.43092C74.1938 5.3701 76.4495 6.47742 78.6051 7.7365L78.9873 7.08112C76.7989 5.80236 74.5104 4.67945 72.1342 3.72632C69.4314 2.6436 66.6157 1.78151 63.7112 1.15977L63.552 1.90209C66.4138 2.51482 69.1886 3.36296 71.852 4.43092Z" fill="#D5D5D5"/>
</g>
<mask id="mask6_2387_330" style="mask-type:luminance" maskUnits="userSpaceOnUse" x="0" y="23" width="10" height="36">
<path d="M1.80132 58.496C1.54179 56.4035 1.40399 54.2709 1.40399 52.1079C1.40399 48.6703 1.74357 45.3138 2.38829 42.0673C3.00889 38.9347 3.91403 35.9064 5.07582 33.0085C6.33892 29.8587 7.9051 26.8648 9.73753 24.0596L9.80733 23.9554L9.17361 23.5395L9.10241 23.6454C7.24251 26.4916 5.65328 29.5306 4.37222 32.7263C3.19254 35.6661 2.27354 38.7412 1.64432 41.918C0.99067 45.2129 0.645264 48.6202 0.645264 52.1079C0.645264 54.3029 0.784623 56.4659 1.04899 58.5903L1.80132 58.496Z" fill="white"/>
</mask>
<g mask="url(#mask6_2387_330)">
<path d="M1.80132 58.496C1.54179 56.4035 1.40399 54.2709 1.40399 52.1079C1.40399 48.6703 1.74357 45.3138 2.38829 42.0673C3.00889 38.9347 3.91403 35.9064 5.07582 33.0085C6.33892 29.8587 7.9051 26.8648 9.73753 24.0596L9.80733 23.9554L9.17361 23.5395L9.10241 23.6454C7.24251 26.4916 5.65328 29.5306 4.37222 32.7263C3.19254 35.6661 2.27354 38.7412 1.64432 41.918C0.99067 45.2129 0.645264 48.6202 0.645264 52.1079C0.645264 54.3029 0.784623 56.4659 1.04899 58.5903L1.80132 58.496Z" fill="#0E255E"/>
</g>
<mask id="mask7_2387_330" style="mask-type:luminance" maskUnits="userSpaceOnUse" x="5" y="73" width="22" height="25">
<path d="M26.9005 96.4785C26.1555 96.0446 25.4234 95.5927 24.7037 95.1235C21.7217 93.1738 18.9523 90.9263 16.4435 88.4171C14.0639 86.0384 11.9194 83.4251 10.0418 80.6182C8.63685 78.5184 7.39138 76.3029 6.30357 73.9988L5.61694 74.3228C6.72075 76.6614 7.98475 78.9072 9.41058 81.0399C11.3164 83.8886 13.4929 86.5396 15.9069 88.9536C18.4526 91.4996 21.2635 93.7807 24.2903 95.7575C25.0193 96.2349 25.763 96.6934 26.5176 97.1355L26.9005 96.4785Z" fill="white"/>
</mask>
<g mask="url(#mask7_2387_330)">
<path d="M26.9005 96.4785C26.1555 96.0446 25.4234 95.5927 24.7037 95.1235C21.7217 93.1738 18.9523 90.9263 16.4435 88.4171C14.0639 86.0384 11.9194 83.4251 10.0418 80.6182C8.63685 78.5184 7.39138 76.3029 6.30357 73.9988L5.61694 74.3228C6.72075 76.6614 7.98475 78.9072 9.41058 81.0399C11.3164 83.8886 13.4929 86.5396 15.9069 88.9536C18.4526 91.4996 21.2635 93.7807 24.2903 95.7575C25.0193 96.2349 25.763 96.6934 26.5176 97.1355L26.9005 96.4785Z" fill="#0E255E"/>
</g>
<mask id="mask8_2387_330" style="mask-type:luminance" maskUnits="userSpaceOnUse" x="41" y="92" width="45" height="13">
<path d="M84.8267 92.1934C83.6759 93.1145 82.4923 93.9954 81.2635 94.819C78.6543 96.5636 75.8762 98.0762 72.9594 99.3254C69.8941 100.639 66.675 101.663 63.3371 102.363C59.9218 103.079 56.3813 103.457 52.7526 103.457C49.3163 103.457 45.96 103.116 42.7111 102.472C42.4579 102.422 42.206 102.368 41.9529 102.314L41.7947 103.055C42.05 103.109 42.3054 103.166 42.5637 103.217C45.8591 103.869 49.265 104.215 52.7526 104.215C56.4348 104.215 60.0275 103.832 63.4927 103.104C66.8811 102.395 70.1476 101.356 73.2579 100.024C76.2182 98.7553 79.0374 97.2206 81.6843 95.4497C82.9319 94.6155 84.1336 93.7198 85.3008 92.7856L84.8267 92.1934Z" fill="white"/>
</mask>
<g mask="url(#mask8_2387_330)">
<path d="M84.8267 92.1934C83.6759 93.1145 82.4923 93.9954 81.2635 94.819C78.6543 96.5636 75.8762 98.0762 72.9594 99.3254C69.8941 100.639 66.675 101.663 63.3371 102.363C59.9218 103.079 56.3813 103.457 52.7526 103.457C49.3163 103.457 45.96 103.116 42.7111 102.472C42.4579 102.422 42.206 102.368 41.9529 102.314L41.7947 103.055C42.05 103.109 42.3054 103.166 42.5637 103.217C45.8591 103.869 49.265 104.215 52.7526 104.215C56.4348 104.215 60.0275 103.832 63.4927 103.104C66.8811 102.395 70.1476 101.356 73.2579 100.024C76.2182 98.7553 79.0374 97.2206 81.6843 95.4497C82.9319 94.6155 84.1336 93.7198 85.3008 92.7856L84.8267 92.1934Z" fill="#0E255E"/>
</g>
<mask id="mask9_2387_330" style="mask-type:luminance" maskUnits="userSpaceOnUse" x="95" y="45" width="10" height="36">
<path d="M104.457 45.6262L103.704 45.7189V45.7205C103.964 47.813 104.102 49.944 104.102 52.1078C104.102 55.5446 103.761 58.9011 103.117 62.1484C102.497 65.2801 101.592 68.3076 100.43 71.208C99.1671 74.3561 97.6013 77.35 95.7672 80.1569L95.6975 80.2611L96.3324 80.6761L96.4037 80.5703C98.2632 77.7233 99.8529 74.6859 101.133 71.4894C102.314 68.548 103.231 65.4745 103.861 62.2969C104.514 59.002 104.86 55.5938 104.86 52.1078C104.86 49.912 104.721 47.749 104.457 45.6262Z" fill="white"/>
</mask>
<g mask="url(#mask9_2387_330)">
<path d="M104.457 45.6262L103.704 45.7189V45.7205C103.964 47.813 104.102 49.944 104.102 52.1078C104.102 55.5446 103.761 58.9011 103.117 62.1484C102.497 65.2801 101.592 68.3076 100.43 71.208C99.1671 74.3561 97.6013 77.35 95.7672 80.1569L95.6975 80.2611L96.3324 80.6761L96.4037 80.5703C98.2632 77.7233 99.8529 74.6859 101.133 71.4894C102.314 68.548 103.231 65.4745 103.861 62.2969C104.514 59.002 104.86 55.5938 104.86 52.1078C104.86 49.912 104.721 47.749 104.457 45.6262Z" fill="#0E255E"/>
</g>
<mask id="mask10_2387_330" style="mask-type:luminance" maskUnits="userSpaceOnUse" x="78" y="7" width="22" height="24">
<path d="M78.6052 7.73667C79.35 8.17058 80.0817 8.62254 80.801 9.09172C83.7843 11.0414 86.5534 13.2897 89.0617 15.7981C91.4413 18.1776 93.5854 20.7901 95.4629 23.597C96.8688 25.6968 98.1148 27.9123 99.2024 30.2164L99.8881 29.8932C98.7841 27.5555 97.5201 25.308 96.0945 23.1754C94.1891 20.3275 92.0121 17.6756 89.5982 15.2624C87.0521 12.7156 84.242 10.4345 81.2152 8.45767C80.4852 7.98029 79.7421 7.52177 78.9875 7.0813L78.6052 7.73667Z" fill="white"/>
</mask>
<g mask="url(#mask10_2387_330)">
<path d="M78.6052 7.73667C79.35 8.17058 80.0817 8.62254 80.801 9.09172C83.7843 11.0414 86.5534 13.2897 89.0617 15.7981C91.4413 18.1776 93.5854 20.7901 95.4629 23.597C96.8688 25.6968 98.1148 27.9123 99.2024 30.2164L99.8881 29.8932C98.7841 27.5555 97.5201 25.308 96.0945 23.1754C94.1891 20.3275 92.0121 17.6756 89.5982 15.2624C87.0521 12.7156 84.242 10.4345 81.2152 8.45767C80.4852 7.98029 79.7421 7.52177 78.9875 7.0813L78.6052 7.73667Z" fill="#0E255E"/>
</g>
<mask id="mask11_2387_330" style="mask-type:luminance" maskUnits="userSpaceOnUse" x="20" y="0" width="44" height="13">
<path d="M20.6776 12.0226C21.8289 11.1007 23.0127 10.2197 24.2409 9.39784C26.8502 7.65154 29.6282 6.13982 32.5449 4.88977C35.6102 3.57655 38.8287 2.55207 42.1678 1.85404C45.5829 1.13796 49.1234 0.758198 52.7524 0.758198C56.1885 0.758198 59.5457 1.09942 62.7937 1.74332C63.0468 1.79335 63.2987 1.84748 63.5518 1.90244L63.711 1.16011C63.4557 1.10597 63.1994 1.04938 62.9421 0.998525C59.6457 0.346429 56.2397 0.000291522 52.7524 0.000291522C49.07 0.000291522 45.4772 0.38499 42.0113 1.11091C38.6236 1.82042 35.3571 2.85966 32.2469 4.19256C29.2857 5.46148 26.4673 6.99616 23.8192 8.76708C22.5731 9.59963 21.3712 10.4953 20.2034 11.4312L20.6776 12.0226Z" fill="white"/>
</mask>
<g mask="url(#mask11_2387_330)">
<path d="M20.6776 12.0226C21.8289 11.1007 23.0127 10.2197 24.2409 9.39784C26.8502 7.65154 29.6282 6.13982 32.5449 4.88977C35.6102 3.57655 38.8287 2.55207 42.1678 1.85404C45.5829 1.13796 49.1234 0.758198 52.7524 0.758198C56.1885 0.758198 59.5457 1.09942 62.7937 1.74332C63.0468 1.79335 63.2987 1.84748 63.5518 1.90244L63.711 1.16011C63.4557 1.10597 63.1994 1.04938 62.9421 0.998525C59.6457 0.346429 56.2397 0.000291522 52.7524 0.000291522C49.07 0.000291522 45.4772 0.38499 42.0113 1.11091C38.6236 1.82042 35.3571 2.85966 32.2469 4.19256C29.2857 5.46148 26.4673 6.99616 23.8192 8.76708C22.5731 9.59963 21.3712 10.4953 20.2034 11.4312L20.6776 12.0226Z" fill="#0E255E"/>
</g>
<mask id="mask12_2387_330" style="mask-type:luminance" maskUnits="userSpaceOnUse" x="9" y="11" width="12" height="13">
<path d="M16.4435 15.7981C17.7812 14.4603 19.1999 13.2061 20.6783 12.0225L20.2041 11.4311C18.7049 12.6303 17.2643 13.905 15.9074 15.2625C13.391 17.7782 11.1353 20.5531 9.17407 23.5396L9.8078 23.9555C11.7408 21.0124 13.9645 18.2777 16.4435 15.7981Z" fill="white"/>
</mask>
<g mask="url(#mask12_2387_330)">
<path d="M16.4435 15.7981C17.7812 14.4603 19.1999 13.2061 20.6783 12.0225L20.2041 11.4311C18.7049 12.6303 17.2643 13.905 15.9074 15.2625C13.391 17.7782 11.1353 20.5531 9.17407 23.5396L9.8078 23.9555C11.7408 21.0124 13.9645 18.2777 16.4435 15.7981Z" fill="#D5D5D5"/>
</g>
<path d="M61.7029 96.0236C61.7029 94.8506 62.6539 93.9008 63.8265 93.9008C64.9999 93.9008 65.9509 94.8506 65.9509 96.0236C65.9509 97.1957 64.9999 98.1464 63.8265 98.1464C62.6539 98.1464 61.7029 97.1957 61.7029 96.0236Z" fill="black" fill-opacity="0.3"/>
<path d="M40.1619 8.19106C40.1619 7.01893 41.1125 6.06745 42.2861 6.06745C43.4588 6.06745 44.4098 7.01893 44.4098 8.19106C44.4098 9.36401 43.4588 10.3163 42.2861 10.3163C41.1125 10.3163 40.1619 9.36401 40.1619 8.19106Z" fill="black" fill-opacity="0.3"/>
<path d="M6.18237 44.1423C6.18237 42.9701 7.13337 42.0203 8.30599 42.0203C9.47837 42.0203 10.4303 42.9701 10.4303 44.1423C10.4303 45.3168 9.47837 46.2675 8.30599 46.2675C7.13337 46.2675 6.18237 45.3168 6.18237 44.1423Z" fill="black" fill-opacity="0.3"/>
<path d="M18.0144 83.4331C18.0144 82.2602 18.9657 81.3087 20.1384 81.3087C21.3111 81.3087 22.262 82.2602 22.262 83.4331C22.262 84.6061 21.3111 85.5575 20.1384 85.5575C18.9657 85.5575 18.0144 84.6061 18.0144 83.4331Z" fill="black" fill-opacity="0.3"/>
<path d="M94.47 62.499C94.47 61.3268 95.4206 60.3753 96.5936 60.3753C97.7665 60.3753 98.7172 61.3268 98.7172 62.499C98.7172 63.6719 97.7665 64.6217 96.5936 64.6217C95.4206 64.6217 94.47 63.6719 94.47 62.499Z" fill="black" fill-opacity="0.3"/>
<path d="M84.0022 21.9958C84.0022 20.8236 84.9537 19.8722 86.1258 19.8722C87.2988 19.8722 88.2503 20.8236 88.2503 21.9958C88.2503 23.1687 87.2988 24.1186 86.1258 24.1186C84.9537 24.1186 84.0022 23.1687 84.0022 21.9958Z" fill="black" fill-opacity="0.3"/>
<mask id="mask13_2387_330" style="mask-type:luminance" maskUnits="userSpaceOnUse" x="18" y="17" width="70" height="70">
<path d="M26.0998 74.2432C26.3807 74.5794 26.6668 74.9131 26.9622 75.2427C26.6675 74.9131 26.3807 74.5794 26.0998 74.2432ZM25.2097 73.1177C25.3691 73.3256 25.5308 73.5351 25.6948 73.7396C25.5308 73.5334 25.3691 73.3256 25.2097 73.1177ZM24.5431 72.212C24.6051 72.2973 24.6651 72.3869 24.7278 72.4739C24.6651 72.3869 24.6051 72.299 24.5431 72.212ZM74.2176 24.9182C73.9996 24.7467 73.7799 24.5786 73.5594 24.413C73.7808 24.5786 73.9996 24.7467 74.2176 24.9182ZM79.4045 29.9742C79.1248 29.6379 78.8392 29.3042 78.5452 28.9755C78.8392 29.3042 79.1257 29.6362 79.4045 29.9742ZM81.777 71.0333C83.0342 69.1078 84.0802 67.0826 84.9133 64.9914C85.7075 63.005 86.3099 60.9586 86.7205 58.881C87.1624 56.6462 87.3863 54.3777 87.3863 52.1082C87.3863 49.7146 87.132 47.3227 86.6411 44.9713C86.1773 42.7585 85.498 40.5837 84.5998 38.4799C83.7735 36.5408 82.7664 34.6609 81.5717 32.8705C81.2928 32.4548 81.0005 32.0434 80.7031 31.6361C80.6119 31.5102 80.5155 31.3869 80.4217 31.2618C80.2029 30.9712 79.979 30.6839 79.75 30.3983C79.6461 30.2699 79.5439 30.1389 79.4383 30.0122C79.1442 29.659 78.846 29.3092 78.5368 28.9662L78.4311 28.8437C78.0518 28.4246 77.6589 28.0123 77.2542 27.6059C76.8258 27.1792 76.3898 26.7652 75.9454 26.3656L75.9446 26.3639L75.8339 26.2692C75.4647 25.9397 75.0887 25.6195 74.7085 25.3094C74.5741 25.1987 74.4381 25.0898 74.3012 24.9825C73.9988 24.7417 73.6946 24.5085 73.387 24.2795C73.2544 24.1823 73.1209 24.0818 72.9874 23.9855C72.5548 23.6754 72.1205 23.3721 71.6778 23.0831C69.7514 21.8259 67.7264 20.7807 65.6359 19.9459C63.6487 19.1534 61.6018 18.5519 59.5242 18.1404C57.2905 17.6985 55.0218 17.4746 52.7527 17.4746C50.3589 17.4746 47.9671 17.7281 45.6156 18.2198C43.4023 18.682 41.2283 19.3638 39.1236 20.2611C37.1847 21.0883 35.3057 22.0946 33.5152 23.2893C31.6571 24.5321 29.8907 25.9676 28.251 27.6059C26.521 29.338 25.0156 31.2086 23.7278 33.1823C22.471 35.1095 21.4258 37.1348 20.5918 39.2234C19.7977 41.2123 19.1963 43.2587 18.7844 45.3363C18.3438 47.5711 18.1194 49.838 18.1194 52.1082C18.1194 54.5019 18.3739 56.8938 18.8647 59.246C19.3273 61.4588 20.0076 63.6319 20.9053 65.7374C21.7317 67.6757 22.7383 69.5547 23.9347 71.3451C24.2124 71.7625 24.5044 72.1723 24.8031 72.5795C24.8952 72.7054 24.9896 72.8288 25.0833 72.9538C25.3021 73.2445 25.5265 73.5334 25.7569 73.819C25.8599 73.9474 25.9622 74.0767 26.0672 74.2034C26.3605 74.5583 26.6612 74.9081 26.9705 75.2528C27.3841 75.7133 27.8098 76.167 28.251 76.6097C29.9821 78.3401 31.8524 79.8457 33.8265 81.1325C35.7536 82.3898 37.7777 83.4349 39.8685 84.2697C41.8564 85.0622 43.9023 85.6638 45.9799 86.0753C48.2147 86.5171 50.4833 86.7419 52.7527 86.7419C55.1462 86.7419 57.538 86.4876 59.8895 85.9958C62.1029 85.5336 64.2778 84.8518 66.3815 83.9545C68.3205 83.1274 70.2 82.1228 71.9896 80.9264C73.8492 79.6852 75.6142 78.248 77.2542 76.6097C78.9846 74.8785 80.4902 73.007 81.777 71.0333Z" fill="white"/>
</mask>
<g mask="url(#mask13_2387_330)">
<path d="M26.0998 74.2432C26.3807 74.5794 26.6668 74.9131 26.9622 75.2427C26.6675 74.9131 26.3807 74.5794 26.0998 74.2432ZM25.2097 73.1177C25.3691 73.3256 25.5308 73.5351 25.6948 73.7396C25.5308 73.5334 25.3691 73.3256 25.2097 73.1177ZM24.5431 72.212C24.6051 72.2973 24.6651 72.3869 24.7278 72.4739C24.6651 72.3869 24.6051 72.299 24.5431 72.212ZM74.2176 24.9182C73.9996 24.7467 73.7799 24.5786 73.5594 24.413C73.7808 24.5786 73.9996 24.7467 74.2176 24.9182ZM79.4045 29.9742C79.1248 29.6379 78.8392 29.3042 78.5452 28.9755C78.8392 29.3042 79.1257 29.6362 79.4045 29.9742ZM81.777 71.0333C83.0342 69.1078 84.0802 67.0826 84.9133 64.9914C85.7075 63.005 86.3099 60.9586 86.7205 58.881C87.1624 56.6462 87.3863 54.3777 87.3863 52.1082C87.3863 49.7146 87.132 47.3227 86.6411 44.9713C86.1773 42.7585 85.498 40.5837 84.5998 38.4799C83.7735 36.5408 82.7664 34.6609 81.5717 32.8705C81.2928 32.4548 81.0005 32.0434 80.7031 31.6361C80.6119 31.5102 80.5155 31.3869 80.4217 31.2618C80.2029 30.9712 79.979 30.6839 79.75 30.3983C79.6461 30.2699 79.5439 30.1389 79.4383 30.0122C79.1442 29.659 78.846 29.3092 78.5368 28.9662L78.4311 28.8437C78.0518 28.4246 77.6589 28.0123 77.2542 27.6059C76.8258 27.1792 76.3898 26.7652 75.9454 26.3656L75.9446 26.3639L75.8339 26.2692C75.4647 25.9397 75.0887 25.6195 74.7085 25.3094C74.5741 25.1987 74.4381 25.0898 74.3012 24.9825C73.9988 24.7417 73.6946 24.5085 73.387 24.2795C73.2544 24.1823 73.1209 24.0818 72.9874 23.9855C72.5548 23.6754 72.1205 23.3721 71.6778 23.0831C69.7514 21.8259 67.7264 20.7807 65.6359 19.9459C63.6487 19.1534 61.6018 18.5519 59.5242 18.1404C57.2905 17.6985 55.0218 17.4746 52.7527 17.4746C50.3589 17.4746 47.9671 17.7281 45.6156 18.2198C43.4023 18.682 41.2283 19.3638 39.1236 20.2611C37.1847 21.0883 35.3057 22.0946 33.5152 23.2893C31.6571 24.5321 29.8907 25.9676 28.251 27.6059C26.521 29.338 25.0156 31.2086 23.7278 33.1823C22.471 35.1095 21.4258 37.1348 20.5918 39.2234C19.7977 41.2123 19.1963 43.2587 18.7844 45.3363C18.3438 47.5711 18.1194 49.838 18.1194 52.1082C18.1194 54.5019 18.3739 56.8938 18.8647 59.246C19.3273 61.4588 20.0076 63.6319 20.9053 65.7374C21.7317 67.6757 22.7383 69.5547 23.9347 71.3451C24.2124 71.7625 24.5044 72.1723 24.8031 72.5795C24.8952 72.7054 24.9896 72.8288 25.0833 72.9538C25.3021 73.2445 25.5265 73.5334 25.7569 73.819C25.8599 73.9474 25.9622 74.0767 26.0672 74.2034C26.3605 74.5583 26.6612 74.9081 26.9705 75.2528C27.3841 75.7133 27.8098 76.167 28.251 76.6097C29.9821 78.3401 31.8524 79.8457 33.8265 81.1325C35.7536 82.3898 37.7777 83.4349 39.8685 84.2697C41.8564 85.0622 43.9023 85.6638 45.9799 86.0753C48.2147 86.5171 50.4833 86.7419 52.7527 86.7419C55.1462 86.7419 57.538 86.4876 59.8895 85.9958C62.1029 85.5336 64.2778 84.8518 66.3815 83.9545C68.3205 83.1274 70.2 82.1228 71.9896 80.9264C73.8492 79.6852 75.6142 78.248 77.2542 76.6097C78.9846 74.8785 80.4902 73.007 81.777 71.0333Z" fill="#0E255E"/>
</g>
<path d="M49.5288 84.6918C49.9431 84.7304 50.3603 84.7624 50.7788 84.7845C50.3603 84.7607 49.9431 84.7304 49.5288 84.6918ZM48.1745 84.5327C48.4218 84.5663 48.6705 84.5983 48.9188 84.6262C48.6705 84.5967 48.4218 84.5663 48.1745 84.5327ZM47.1181 84.3728C47.2181 84.3883 47.3173 84.408 47.4173 84.4252C47.3173 84.408 47.2181 84.39 47.1181 84.3728ZM47.1357 19.4568C47.0338 19.4741 46.9344 19.4946 46.8326 19.5126C46.9344 19.4946 47.0344 19.4741 47.1357 19.4568ZM55.5977 19.146C55.1844 19.1066 54.7691 19.0746 54.351 19.0508C54.7691 19.0746 55.1844 19.105 55.5977 19.146ZM84.7745 45.1338C84.325 42.9946 83.6671 40.9333 82.8231 38.9672C82.0209 37.0995 81.0505 35.3212 79.9309 33.6487C78.7276 31.8516 77.3537 30.1775 75.8297 28.6518C74.2212 27.0449 72.4437 25.6087 70.5333 24.3586C68.7362 23.1824 66.8185 22.18 64.8015 21.3688C62.9428 20.6208 61.0059 20.0351 58.9995 19.6357C58.5326 19.543 58.0617 19.4626 57.5874 19.3904C57.4413 19.3666 57.2939 19.3477 57.1465 19.3264C56.8047 19.2788 56.4609 19.2354 56.1148 19.1985C55.9598 19.1804 55.8028 19.1632 55.6464 19.1493C55.2129 19.1082 54.7755 19.0746 54.3375 19.0508L54.1863 19.0402C53.6487 19.0139 53.1078 19 52.5634 19C51.9895 19 51.418 19.0156 50.8509 19.0443H50.8489L50.7105 19.0541C50.2411 19.0812 49.7743 19.1197 49.3097 19.1648C49.1447 19.1821 48.9813 19.2017 48.8163 19.2206C48.4522 19.2624 48.0902 19.3092 47.7307 19.3633C47.5753 19.3855 47.4193 19.4084 47.2645 19.4339C46.7656 19.5143 46.2696 19.6037 45.7788 19.7062C43.6398 20.1565 41.5782 20.8143 39.6137 21.6576C37.7451 22.4606 35.9663 23.4309 34.2944 24.5506C32.4959 25.7539 30.8221 27.1286 29.2966 28.6518C27.6897 30.2603 26.2537 32.037 25.0041 33.9481C23.8282 35.7445 22.8247 37.663 22.0137 39.6792C21.2675 41.537 20.6808 43.4761 20.2823 45.4816C19.867 47.5642 19.6453 49.7157 19.6453 51.9181C19.6453 54.2427 19.891 56.5115 20.3524 58.7015C20.802 60.8399 21.4594 62.9036 22.3037 64.8681C23.1063 66.7358 24.0759 68.5158 25.1954 70.1866C26.4005 71.9838 27.7734 73.6595 29.2986 75.1835C30.906 76.792 32.6833 78.2275 34.593 79.4767C36.3908 80.653 38.3082 81.6553 40.3251 82.4682C42.1828 83.2146 44.1213 83.801 46.1277 84.1997C46.5939 84.2924 47.0658 84.3728 47.5394 84.4466C47.6859 84.4687 47.8333 84.4884 47.98 84.5089C48.3225 84.5573 48.6672 84.6 49.013 84.6369C49.1687 84.6549 49.3237 84.6722 49.4807 84.6869C49.9149 84.7288 50.3523 84.7624 50.7922 84.7845C51.3785 84.8165 51.9687 84.8354 52.5634 84.8354C54.8886 84.8354 57.1565 84.591 59.3472 84.1292C61.4859 83.6788 63.5483 83.0218 65.5128 82.1778C67.3804 81.3756 69.1602 80.4061 70.8311 79.2864C72.6299 78.0815 74.3048 76.7084 75.8297 75.1835C77.4365 73.5767 78.8728 71.7984 80.122 69.8889C81.2983 68.0909 82.3022 66.174 83.1126 64.157C83.8591 62.2983 84.4464 60.3601 84.8458 58.3537C85.26 56.2711 85.4823 54.1196 85.4823 51.9181C85.4823 49.5919 85.2354 47.3239 84.7745 45.1338Z" fill="white"/>
<path d="M88.617 51.9831C88.617 71.8589 72.5045 87.9714 52.6287 87.9714C32.7529 87.9714 16.6404 71.8589 16.6404 51.9831C16.6404 32.1073 32.7529 15.9948 52.6287 15.9948C72.5045 15.9948 88.617 32.1073 88.617 51.9831ZM18.6204 51.9831C18.6204 70.7654 33.8464 85.9914 52.6287 85.9914C71.411 85.9914 86.637 70.7654 86.637 51.9831C86.637 33.2008 71.411 17.9748 52.6287 17.9748C33.8464 17.9748 18.6204 33.2008 18.6204 51.9831Z" fill="white"/>
<rect x="89.6433" y="80.9999" width="4" height="4" transform="rotate(88.188 89.6433 80.9999)" fill="#186EB5"/>
<rect x="19.6433" y="17.9999" width="4" height="4" transform="rotate(88.188 19.6433 17.9999)" fill="#186EB5"/>
<rect x="70.7341" y="5.42668" width="4" height="4" transform="rotate(66.2837 70.7341 5.42668)" fill="#186EB5"/>
<rect x="36.3074" y="92.9999" width="4" height="4" transform="rotate(66.2837 36.3074 92.9999)" fill="#186EB5"/>
<rect x="6.47974" y="62.9999" width="4" height="4" transform="rotate(27.2993 6.47974 62.9999)" fill="#186EB5"/>
<rect x="97.4797" y="35.9999" width="4" height="4" transform="rotate(27.2993 97.4797 35.9999)" fill="#186EB5"/>
<defs>
<radialGradient id="paint0_radial_2387_330" cx="0" cy="0" r="1" gradientUnits="userSpaceOnUse" gradientTransform="translate(52.7528 52.1074) rotate(90) scale(52.1074 52.1076)">
<stop stop-color="#008AFF"/>
<stop offset="1" stop-color="#173483"/>
</radialGradient>
</defs>
</svg>
