<svg width="105" height="105" viewBox="0 0 105 105" fill="none" xmlns="http://www.w3.org/2000/svg">
<path d="M82.746 72.0857C81.3565 74.2101 79.7603 76.1853 77.973 77.9734C76.2776 79.6681 74.4156 81.1945 72.4183 82.534C70.5596 83.7791 68.5812 84.8569 66.504 85.7494C64.3194 86.6869 62.0273 87.4186 59.6499 87.9189C57.2144 88.4316 54.6931 88.7039 52.1074 88.7039C49.6585 88.7039 47.2677 88.4586 44.9527 87.9968C42.7217 87.5531 40.5659 86.9018 38.5013 86.0717C36.2596 85.1695 34.1273 84.0547 32.129 82.7473C30.0053 81.3569 28.0299 79.7607 26.2421 77.9734C24.5471 76.278 23.0204 74.4168 21.6814 72.4187C20.4363 70.5592 19.3585 68.5816 18.4661 66.5039C17.5279 64.3204 16.7964 62.0278 16.2967 59.6508C15.784 57.2155 15.5109 54.6924 15.5109 52.1078C15.5109 49.6585 15.7568 47.2667 16.2182 44.952C16.6622 42.7217 17.3143 40.5669 18.1441 38.5024C19.0457 36.259 20.1617 34.1272 21.468 32.129C22.858 30.0062 24.4546 28.0295 26.2415 26.2413C27.9364 24.5467 29.799 23.0202 31.7964 21.6824C33.6551 20.4372 35.6336 19.3594 37.7095 18.467C39.8951 17.5278 42.1876 16.7978 44.5646 16.2958C47.0001 15.7848 49.5214 15.5117 52.1074 15.5117C54.557 15.5117 56.9478 15.7577 59.2628 16.2179C61.4935 16.6617 63.6486 17.3129 65.7132 18.1447C67.9554 19.0453 70.088 20.1617 72.0853 21.4691C74.2089 22.8578 76.1857 24.454 77.9738 26.2413C79.6676 27.9368 81.195 29.7979 82.5336 31.7977C83.7779 33.6563 84.8565 35.6348 85.749 37.7108C86.6873 39.896 87.4182 42.1885 87.9185 44.5656C88.4303 47.0009 88.7043 49.5224 88.7043 52.1078C88.7043 54.5562 88.4574 56.9481 87.9964 59.2628C87.5527 61.4931 86.9006 63.6478 86.0705 65.7124C85.1682 67.9558 84.0535 70.0884 82.746 72.0857ZM75.4803 87.1208C75.9888 86.7812 76.4876 86.4253 76.9813 86.0635C76.4892 86.4269 75.9888 86.7812 75.4803 87.1208ZM15.337 72.5967C15.4731 72.8403 15.6129 73.0823 15.7545 73.3243C15.6141 73.0823 15.4731 72.8403 15.337 72.5967ZM14.5984 71.2064C14.6725 71.3516 14.7452 71.4959 14.8211 71.6403C14.7458 71.4959 14.6725 71.3516 14.5984 71.2064ZM10.089 54.6251C10.0944 54.7211 10.1015 54.8187 10.1079 54.9147C10.1015 54.8187 10.0951 54.7211 10.089 54.6251ZM28.7336 17.0939C28.2254 17.4351 27.7275 17.7895 27.2357 18.1512C27.7265 17.7879 28.2254 17.4351 28.7336 17.0939ZM88.8757 31.6164C88.7412 31.3744 88.6026 31.1341 88.4623 30.8954C88.6018 31.1357 88.7412 31.3744 88.8757 31.6164ZM88.0456 30.1875C87.7454 29.697 87.4403 29.2122 87.1212 28.7349C87.4403 29.2122 87.7463 29.697 88.0456 30.1875ZM103.812 45.6262L93.8776 46.8713V46.8754C93.7332 45.7132 93.5429 44.5623 93.3051 43.4312C92.7325 40.6932 91.8934 38.0553 90.8156 35.5413C90.6163 35.0754 90.4006 34.6169 90.1848 34.1592L90.1865 34.1616L99.2428 29.8931C98.1388 27.5554 96.8748 25.3079 95.4492 23.1752C93.5438 20.3273 91.3668 17.6755 88.9528 15.2623C86.4068 12.7154 83.5966 10.4343 80.5699 8.45755C79.8399 7.98017 79.0968 7.52164 78.3421 7.08117L73.3009 15.7323L73.3025 15.734C71.5341 14.7004 69.6852 13.7924 67.7648 13.023C65.5822 12.147 63.3047 11.4596 60.9587 10.956L63.066 1.15982C62.8107 1.10568 62.5544 1.04908 62.297 0.998229C59.0007 0.346133 55.5947 -6.72513e-07 52.1074 -6.72513e-07C48.425 -6.72513e-07 44.8322 0.384701 41.3663 1.11062C37.9786 1.82013 34.7121 2.85937 31.6019 4.19227C28.6407 5.46119 25.8223 6.99587 23.1742 8.76678C21.9281 9.59933 20.7262 10.495 19.5584 11.4309L25.8127 19.2454C24.6016 20.2166 23.4379 21.2444 22.3415 22.3427C20.2844 24.399 18.4421 26.6695 16.8445 29.1138L16.9022 29.0293L8.52835 23.5394L8.45715 23.6452C6.59724 26.4915 5.00801 29.5305 3.72695 32.7262C2.54727 35.666 1.62827 38.7411 0.999061 41.9179C0.345406 45.2128 0 48.6201 0 52.1078C0 54.3028 0.13936 56.4658 0.403725 58.5902L10.338 57.3442L10.337 57.3336C10.4812 58.4992 10.6712 59.6508 10.9093 60.7852C11.4825 63.5207 12.322 66.1594 13.3986 68.6735C13.5981 69.1394 13.8128 69.5979 14.0281 70.0548L4.97176 74.3225C6.07556 76.661 7.33956 78.9069 8.7654 81.0395C10.6712 83.8882 12.8478 86.5393 15.2617 88.9533C17.8074 91.4993 20.6183 93.7804 23.6452 95.7572C24.3741 96.2346 25.1178 96.6931 25.8724 97.1352L30.914 88.4824L30.913 88.4808C32.6811 89.5143 34.5298 90.4223 36.4497 91.1934C38.8262 92.1448 41.3097 92.888 43.8761 93.3957C43.6679 93.3547 43.4634 93.303 43.2558 93.2587L41.1495 103.055C41.4048 103.109 41.6601 103.166 41.9184 103.217C45.2139 103.869 48.6198 104.215 52.1074 104.215C55.7895 104.215 59.3823 103.832 62.8475 103.104C66.2359 102.395 69.5023 101.355 72.6127 100.024C75.573 98.7552 78.3922 97.2205 81.0391 95.4496C82.2867 94.6154 83.4884 93.7197 84.6556 92.7854L78.4012 84.9693C79.6135 83.9981 80.7766 82.9704 81.8733 81.8745C83.9059 79.8411 85.7276 77.5986 87.3123 75.1854L95.6871 80.6761L95.7584 80.5703C97.6179 77.7233 99.2076 74.6859 100.488 71.4894C101.668 68.548 102.586 65.4745 103.215 62.2969C103.869 59.002 104.215 55.5938 104.215 52.1078C104.215 49.912 104.076 47.749 103.812 45.6262Z" fill="url(#paint0_radial_2387_3)"/>
<path d="M13.3986 68.6737C12.3221 66.1596 11.4825 63.5208 10.9094 60.7853C10.6719 59.6542 10.4832 58.5067 10.3381 57.3444L0.403809 58.5904C0.582294 60.0274 0.817131 61.4481 1.11127 62.8483C1.82062 66.2367 2.85872 69.5037 4.19261 72.6133C4.44032 73.1899 4.70428 73.7567 4.97184 74.3227L14.0282 70.0549C13.8129 69.5981 13.5982 69.1396 13.3986 68.6737Z" fill="#F8FBF7"/>
<path d="M95.6872 80.6763L87.3125 75.1855C85.7278 77.5987 83.906 79.8413 81.8735 81.8746C80.7768 82.9705 79.6137 83.9983 78.4014 84.9694L84.6557 92.7856C86.156 91.5847 87.5955 90.3109 88.953 88.9534C91.4695 86.4369 93.7252 83.662 95.6872 80.6763Z" fill="#F8FBF7"/>
<path d="M36.4499 91.193C34.53 90.422 32.6813 89.514 30.9142 88.4821L25.8726 97.1349C28.0606 98.412 30.3503 99.5349 32.7258 100.488C35.4288 101.572 38.2442 102.433 41.1496 103.055L43.256 93.2584C40.91 92.7548 38.6325 92.0674 36.4499 91.193Z" fill="#F8FBF7"/>
<path d="M90.8152 35.5415C91.893 38.0555 92.7321 40.6934 93.3046 43.4314C93.5417 44.5617 93.732 45.71 93.8771 46.8715L103.811 45.6264C103.632 44.1877 103.398 42.767 103.104 41.3668C102.394 37.98 101.355 34.713 100.022 31.6018C99.7755 31.0252 99.5098 30.4584 99.2424 29.8932L90.186 34.1618C90.4018 34.6187 90.6167 35.0772 90.8152 35.5415Z" fill="#F8FBF7"/>
<path d="M67.7646 13.0233C69.685 13.7927 71.533 14.7007 73.3007 15.7326L78.3419 7.08143C76.1535 5.80267 73.865 4.67976 71.4887 3.72663C68.786 2.64391 65.9703 1.78183 63.0658 1.16008L60.9585 10.9563C63.3045 11.4599 65.582 12.1473 67.7646 13.0233Z" fill="#F8FBF7"/>
<path d="M22.3419 22.3428C23.4383 21.2445 24.6021 20.2167 25.8132 19.2456L19.5588 11.4311C18.0597 12.6303 16.6191 13.9049 15.2621 15.2624C12.7457 17.7781 10.49 20.553 8.52881 23.5396L16.9026 29.0295C18.4874 26.6163 20.3089 24.3737 22.3419 22.3428Z" fill="#F8FBF7"/>
<mask id="mask0_2387_3" style="mask-type:luminance" maskUnits="userSpaceOnUse" x="14" y="14" width="76" height="76">
<path d="M38.6427 20.6457C40.7222 19.7598 42.8695 19.0872 45.0564 18.6287C47.3797 18.1431 49.7423 17.8937 52.1072 17.8921C54.3492 17.8921 56.5911 18.1144 58.7974 18.5499C60.8502 18.9568 62.8714 19.5515 64.8351 20.3348C66.9002 21.1583 68.9009 22.1918 70.8047 23.4337C72.7545 24.7051 74.6033 26.1938 76.3127 27.9032C77.931 29.5207 79.3501 31.267 80.5771 33.1028C81.7575 34.872 82.7524 36.7282 83.5694 38.6427C84.4553 40.7228 85.1287 42.8711 85.5848 45.0562C86.0703 47.3808 86.3222 49.7423 86.3222 52.1062C86.3222 54.3496 86.1007 56.5905 85.6635 58.7986C85.2583 60.8509 84.6628 62.872 83.8795 64.8348C83.0551 66.9018 82.0232 68.9008 80.7806 70.8046C79.5092 72.7535 78.0221 74.6023 76.3127 76.3117C74.6927 77.9317 72.948 79.3507 71.1123 80.577C69.3439 81.759 67.4868 82.7523 65.5715 83.5692C63.492 84.4567 61.3447 85.1294 59.1579 85.5862C56.8345 86.0718 54.4719 86.3228 52.1072 86.3228C49.8657 86.3228 47.6244 86.1005 45.4171 85.665C43.3646 85.2598 41.3428 84.6634 39.379 83.8801C37.314 83.0566 35.3137 82.0231 33.4104 80.782C31.4608 79.5098 29.6114 78.0227 27.902 76.3117C26.2823 74.6942 24.8626 72.9479 23.6374 71.1122C22.4551 69.3429 21.4614 67.4875 20.6444 65.5714C19.7588 63.4929 19.0856 61.3439 18.6284 59.1587C18.1439 56.8341 17.8925 54.4735 17.8925 52.1079C17.8925 49.8653 18.1135 47.6244 18.5499 45.4163C18.9558 43.364 19.5512 41.3421 20.3346 39.3785C21.159 37.3131 22.1914 35.3141 23.4335 33.4103C24.7049 31.4614 26.1926 29.6126 27.902 27.9032C29.5217 26.2832 31.266 24.8642 33.1019 23.6363C34.8709 22.456 36.7276 21.4626 38.6427 20.6457ZM20.9123 31.7658C19.5608 33.8369 18.4368 36.0122 17.5412 38.2605C16.6883 40.3956 16.0402 42.5955 15.5995 44.8282C15.1241 47.2299 14.8838 49.6685 14.8838 52.1062C14.8838 54.6794 15.1558 57.2508 15.6848 59.7788C16.1811 62.1559 16.9136 64.4936 17.878 66.7558C18.7672 68.8401 19.8482 70.8587 21.133 72.7846C22.4679 74.7803 24.0112 76.6792 25.7735 78.4411C27.6341 80.3014 29.645 81.9189 31.7658 83.3035C33.8372 84.6536 36.0132 85.7765 38.2598 86.6739C40.396 87.5261 42.5956 88.1733 44.8288 88.6154C47.229 89.0895 49.669 89.3315 52.1072 89.3315C54.6802 89.3315 57.2498 89.0575 59.7775 88.5293C62.1566 88.0322 64.4933 87.3005 66.7548 86.3359C68.8386 85.4484 70.8589 84.3673 72.7832 83.0804C74.7805 81.7458 76.6785 80.2038 78.4404 78.4411C80.3007 76.5807 81.9191 74.5687 83.302 72.4475C84.6538 70.378 85.7775 68.2019 86.6724 65.9544C87.5255 63.8193 88.1735 61.6195 88.6147 59.3859C89.0905 56.9851 89.3308 54.5465 89.3308 52.1062C89.3308 49.5356 89.0577 46.9641 88.5294 44.4361C88.0315 42.0582 87.3007 39.7213 86.3361 37.4591C85.447 35.3748 84.3659 33.3562 83.0814 31.4311C81.7468 29.4346 80.2023 27.5358 78.4404 25.7739C76.5801 23.9135 74.5697 22.296 72.4485 20.9114C70.3774 19.5613 68.2013 18.4384 65.9554 17.541C63.8182 16.6888 61.6192 16.0416 59.386 15.5995C56.9851 15.1254 54.5462 14.8835 52.1072 14.8835C49.535 14.8835 46.9644 15.1574 44.4367 15.6857C42.0576 16.1827 39.7209 16.9144 37.4589 17.879C35.3752 18.7665 33.355 19.8492 31.4309 21.1345C29.4336 22.4691 27.5358 24.0112 25.7735 25.7739C23.9126 27.6342 22.2955 29.6463 20.9123 31.7658Z" fill="white"/>
</mask>
<g mask="url(#mask0_2387_3)">
<path d="M38.52 20.5259C40.5992 19.6401 42.7463 18.9676 44.9328 18.5092C47.2558 18.0237 49.6181 17.7743 51.9828 17.7727C54.2244 17.7727 56.466 17.995 58.6721 18.4304C60.7246 18.8372 62.7455 19.4318 64.709 20.215C66.7738 21.0385 68.7743 22.0718 70.6778 23.3135C72.6273 24.5847 74.4759 26.0732 76.1851 27.7824C77.8032 29.3997 79.222 31.1457 80.449 32.9812C81.6292 34.7502 82.624 36.6061 83.4408 38.5203C84.3266 40.6002 84.9999 42.7481 85.4559 44.9329C85.9415 47.2572 86.1932 49.6183 86.1932 51.9819C86.1932 54.225 85.9718 56.4656 85.5347 58.6733C85.1295 60.7253 84.5341 62.7461 83.7509 64.7087C82.9266 66.7754 81.8949 68.7741 80.6524 70.6776C79.3812 72.6262 77.8942 74.4748 76.1851 76.1839C74.5653 77.8037 72.8209 79.2225 70.9854 80.4486C69.2172 81.6304 67.3604 82.6236 65.4453 83.4404C63.366 84.3278 61.219 85.0003 59.0325 85.4571C56.7095 85.9426 54.3471 86.1936 51.9828 86.1936C49.7415 86.1936 47.5005 85.9713 45.2935 85.5359C43.2413 85.1307 41.2197 84.5345 39.2562 83.7513C37.1915 82.9278 35.1914 81.8945 33.2884 80.6536C31.339 79.3816 29.4898 77.8947 27.7807 76.1839C26.1612 74.5666 24.7417 72.8206 23.5166 70.9851C22.3345 69.2161 21.3409 67.361 20.524 65.4452C19.6385 63.367 18.9654 61.2182 18.5083 59.0334C18.0239 56.7092 17.7724 54.3488 17.7724 51.9836C17.7724 49.7413 17.9935 47.5007 18.4298 45.293C18.8357 43.241 19.4309 41.2194 20.2142 39.256C21.0386 37.1909 22.0708 35.1922 23.3128 33.2887C24.584 31.3401 26.0715 29.4915 27.7807 27.7824C29.4001 26.1626 31.1442 24.7438 32.9799 23.5161C34.7487 22.3359 36.6051 21.3427 38.52 20.5259ZM20.7919 31.6444C19.4405 33.7152 18.3167 35.8902 17.4212 38.1381C16.5685 40.2729 15.9204 42.4725 15.4798 44.7049C15.0045 47.1063 14.7642 49.5445 14.7642 51.9819C14.7642 54.5547 15.0361 57.1258 15.5651 59.6534C16.0613 62.0302 16.7937 64.3675 17.758 66.6294C18.647 68.7134 19.7279 70.7317 21.0126 72.6574C22.3473 74.6527 23.8904 76.5513 25.6525 78.313C27.5128 80.173 29.5235 81.7903 31.6439 83.1747C33.7151 84.5246 35.8908 85.6474 38.1372 86.5446C40.273 87.3967 42.4724 88.0438 44.7053 88.4859C47.1052 88.9599 49.5448 89.2018 51.9828 89.2018C54.5554 89.2018 57.1247 88.9279 59.652 88.3998C62.0308 87.9028 64.3672 87.1712 66.6284 86.2067C68.712 85.3193 70.732 84.2384 72.656 82.9516C74.6531 81.6173 76.5509 80.0754 78.3125 78.313C80.1726 76.4529 81.7907 74.4412 83.1735 72.3203C84.5251 70.2511 85.6487 68.0753 86.5434 65.8282C87.3964 63.6934 88.0443 61.4938 88.4855 59.2606C88.9612 56.8601 89.2015 54.4218 89.2015 51.9819C89.2015 49.4116 88.9284 46.8405 88.4002 44.3129C87.9024 41.9354 87.1717 39.5988 86.2072 37.3369C85.3181 35.2529 84.2372 33.2346 82.9529 31.3098C81.6185 29.3136 80.0742 27.415 78.3125 25.6533C76.4524 23.7933 74.4423 22.176 72.3214 20.7916C70.2505 19.4417 68.0747 18.3189 65.8291 17.4217C63.6922 16.5696 61.4935 15.9225 59.2606 15.4804C56.86 15.0064 54.4214 14.7645 51.9828 14.7645C49.4109 14.7645 46.8406 15.0384 44.3132 15.5666C41.9345 16.0636 39.5981 16.7951 37.3363 17.7596C35.2529 18.647 33.233 19.7295 31.3092 21.0147C29.312 22.349 27.4145 23.8909 25.6525 25.6533C23.7918 27.5134 22.1749 29.5252 20.7919 31.6444Z" fill="#867800"/>
</g>
<mask id="mask1_2387_3" style="mask-type:luminance" maskUnits="userSpaceOnUse" x="0" y="58" width="6" height="17">
<path d="M5.65847 73.9987C5.39476 73.441 5.13302 72.884 4.88949 72.3148C3.57644 69.2503 2.5531 66.0301 1.85302 62.6917C1.56306 61.3137 1.332 59.9118 1.15614 58.4961L0.403809 58.5904C0.582294 60.0275 0.817131 61.4482 1.11127 62.8483C1.82062 66.2368 2.85872 69.5038 4.19261 72.6134C4.44032 73.19 4.70428 73.7568 4.97184 74.3227L5.65847 73.9987Z" fill="white"/>
</mask>
<g mask="url(#mask1_2387_3)">
<path d="M5.65847 73.9987C5.39476 73.441 5.13302 72.884 4.88949 72.3148C3.57644 69.2503 2.5531 66.0301 1.85302 62.6917C1.56306 61.3137 1.332 59.9118 1.15614 58.4961L0.403809 58.5904C0.582294 60.0275 0.817131 61.4482 1.11127 62.8483C1.82062 66.2368 2.85872 69.5038 4.19261 72.6134C4.44032 73.19 4.70428 73.7568 4.97184 74.3227L5.65847 73.9987Z" fill="#D5D5D5"/>
</g>
<mask id="mask2_2387_3" style="mask-type:luminance" maskUnits="userSpaceOnUse" x="84" y="80" width="12" height="13">
<path d="M88.4158 88.4171C87.0796 89.7549 85.6605 91.009 84.1816 92.1935L84.6557 92.7857C86.156 91.5848 87.5955 90.311 88.953 88.9535C91.4695 86.437 93.7252 83.6621 95.6872 80.6764L95.0524 80.2614C93.1199 83.2028 90.897 85.9375 88.4158 88.4171Z" fill="white"/>
</mask>
<g mask="url(#mask2_2387_3)">
<path d="M88.4158 88.4171C87.0796 89.7549 85.6605 91.009 84.1816 92.1935L84.6557 92.7857C86.156 91.5848 87.5955 90.311 88.953 88.9535C91.4695 86.437 93.7252 83.6621 95.6872 80.6764L95.0524 80.2614C93.1199 83.2028 90.897 85.9375 88.4158 88.4171Z" fill="#D5D5D5"/>
</g>
<mask id="mask3_2387_3" style="mask-type:luminance" maskUnits="userSpaceOnUse" x="25" y="96" width="17" height="8">
<path d="M33.008 99.7837C30.6655 98.8461 28.4118 97.7371 26.2554 96.4781L25.8726 97.1351C28.0606 98.4122 30.3503 99.5351 32.7258 100.488C35.4288 101.573 38.2442 102.433 41.1496 103.055L41.3079 102.313C38.446 101.701 35.6719 100.852 33.008 99.7837Z" fill="white"/>
</mask>
<g mask="url(#mask3_2387_3)">
<path d="M33.008 99.7837C30.6655 98.8461 28.4118 97.7371 26.2554 96.4781L25.8726 97.1351C28.0606 98.4122 30.3503 99.5351 32.7258 100.488C35.4288 101.573 38.2442 102.433 41.1496 103.055L41.3079 102.313C38.446 101.701 35.6719 100.852 33.008 99.7837Z" fill="#D5D5D5"/>
</g>
<mask id="mask4_2387_3" style="mask-type:luminance" maskUnits="userSpaceOnUse" x="98" y="29" width="6" height="17">
<path d="M99.3257 31.9002C100.639 34.9662 101.663 38.1849 102.361 41.5233C102.652 42.903 102.882 44.3031 103.059 45.7189L103.812 45.6262C103.632 44.1875 103.398 42.7668 103.105 41.3666C102.394 37.9798 101.356 34.7128 100.023 31.6016C99.776 31.025 99.5103 30.4582 99.2429 29.893L98.5571 30.2162C98.8204 30.774 99.0821 31.3326 99.3257 31.9002Z" fill="white"/>
</mask>
<g mask="url(#mask4_2387_3)">
<path d="M99.3257 31.9002C100.639 34.9662 101.663 38.1849 102.361 41.5233C102.652 42.903 102.882 44.3031 103.059 45.7189L103.812 45.6262C103.632 44.1875 103.398 42.7668 103.105 41.3666C102.394 37.9798 101.356 34.7128 100.023 31.6016C99.776 31.025 99.5103 30.4582 99.2429 29.893L98.5571 30.2162C98.8204 30.774 99.0821 31.3326 99.3257 31.9002Z" fill="#D5D5D5"/>
</g>
<mask id="mask5_2387_3" style="mask-type:luminance" maskUnits="userSpaceOnUse" x="62" y="1" width="17" height="7">
<path d="M71.2067 4.43092C73.5485 5.3701 75.8042 6.47742 77.9598 7.7365L78.342 7.08112C76.1536 5.80236 73.8651 4.67945 71.4889 3.72632C68.7862 2.6436 65.9704 1.78151 63.0659 1.15977L62.9067 1.90209C65.7686 2.51482 68.5434 3.36296 71.2067 4.43092Z" fill="white"/>
</mask>
<g mask="url(#mask5_2387_3)">
<path d="M71.2067 4.43092C73.5485 5.3701 75.8042 6.47742 77.9598 7.7365L78.342 7.08112C76.1536 5.80236 73.8651 4.67945 71.4889 3.72632C68.7862 2.6436 65.9704 1.78151 63.0659 1.15977L62.9067 1.90209C65.7686 2.51482 68.5434 3.36296 71.2067 4.43092Z" fill="#D5D5D5"/>
</g>
<mask id="mask6_2387_3" style="mask-type:luminance" maskUnits="userSpaceOnUse" x="0" y="23" width="10" height="36">
<path d="M1.15606 58.496C0.89653 56.4035 0.758728 54.2709 0.758728 52.1079C0.758728 48.6703 1.09831 45.3138 1.74302 42.0673C2.36362 38.9347 3.26876 35.9064 4.43056 33.0085C5.69366 29.8587 7.25983 26.8648 9.09227 24.0596L9.16207 23.9554L8.52835 23.5395L8.45715 23.6454C6.59724 26.4916 5.00801 29.5306 3.72695 32.7263C2.54727 35.6661 1.62827 38.7412 0.999061 41.918C0.345406 45.2129 0 48.6202 0 52.1079C0 54.3029 0.13936 56.4659 0.403725 58.5903L1.15606 58.496Z" fill="white"/>
</mask>
<g mask="url(#mask6_2387_3)">
<path d="M1.15606 58.496C0.89653 56.4035 0.758728 54.2709 0.758728 52.1079C0.758728 48.6703 1.09831 45.3138 1.74302 42.0673C2.36362 38.9347 3.26876 35.9064 4.43056 33.0085C5.69366 29.8587 7.25983 26.8648 9.09227 24.0596L9.16207 23.9554L8.52835 23.5395L8.45715 23.6454C6.59724 26.4916 5.00801 29.5306 3.72695 32.7263C2.54727 35.6661 1.62827 38.7412 0.999061 41.918C0.345406 45.2129 0 48.6202 0 52.1079C0 54.3029 0.13936 56.4659 0.403725 58.5903L1.15606 58.496Z" fill="#867800"/>
</g>
<mask id="mask7_2387_3" style="mask-type:luminance" maskUnits="userSpaceOnUse" x="4" y="73" width="23" height="25">
<path d="M26.2552 96.4785C25.5102 96.0446 24.7781 95.5927 24.0584 95.1235C21.0764 93.1738 18.3071 90.9263 15.7983 88.4171C13.4187 86.0384 11.2741 83.4251 9.3965 80.6182C7.99158 78.5184 6.74612 76.3029 5.65831 73.9988L4.97168 74.3228C6.07549 76.6614 7.33949 78.9072 8.76532 81.0399C10.6712 83.8886 12.8477 86.5396 15.2616 88.9536C17.8073 91.4996 20.6182 93.7807 23.6451 95.7575C24.374 96.2349 25.1178 96.6934 25.8723 97.1355L26.2552 96.4785Z" fill="white"/>
</mask>
<g mask="url(#mask7_2387_3)">
<path d="M26.2552 96.4785C25.5102 96.0446 24.7781 95.5927 24.0584 95.1235C21.0764 93.1738 18.3071 90.9263 15.7983 88.4171C13.4187 86.0384 11.2741 83.4251 9.3965 80.6182C7.99158 78.5184 6.74612 76.3029 5.65831 73.9988L4.97168 74.3228C6.07549 76.6614 7.33949 78.9072 8.76532 81.0399C10.6712 83.8886 12.8477 86.5396 15.2616 88.9536C17.8073 91.4996 20.6182 93.7807 23.6451 95.7575C24.374 96.2349 25.1178 96.6934 25.8723 97.1355L26.2552 96.4785Z" fill="#867800"/>
</g>
<mask id="mask8_2387_3" style="mask-type:luminance" maskUnits="userSpaceOnUse" x="41" y="92" width="44" height="13">
<path d="M84.1814 92.1934C83.0306 93.1145 81.847 93.9954 80.6183 94.819C78.0091 96.5636 75.2309 98.0762 72.3141 99.3254C69.2488 100.639 66.0298 101.663 62.6918 102.363C59.2765 103.079 55.736 103.457 52.1073 103.457C48.671 103.457 45.3147 103.116 42.0658 102.472C41.8127 102.422 41.5608 102.368 41.3076 102.314L41.1494 103.055C41.4048 103.109 41.6601 103.166 41.9184 103.217C45.2138 103.869 48.6197 104.215 52.1073 104.215C55.7895 104.215 59.3823 103.832 62.8475 103.104C66.2358 102.395 69.5023 101.356 72.6127 100.024C75.5729 98.7553 78.3921 97.2206 81.0391 95.4497C82.2866 94.6155 83.4883 93.7198 84.6555 92.7856L84.1814 92.1934Z" fill="white"/>
</mask>
<g mask="url(#mask8_2387_3)">
<path d="M84.1814 92.1934C83.0306 93.1145 81.847 93.9954 80.6183 94.819C78.0091 96.5636 75.2309 98.0762 72.3141 99.3254C69.2488 100.639 66.0298 101.663 62.6918 102.363C59.2765 103.079 55.736 103.457 52.1073 103.457C48.671 103.457 45.3147 103.116 42.0658 102.472C41.8127 102.422 41.5608 102.368 41.3076 102.314L41.1494 103.055C41.4048 103.109 41.6601 103.166 41.9184 103.217C45.2138 103.869 48.6197 104.215 52.1073 104.215C55.7895 104.215 59.3823 103.832 62.8475 103.104C66.2358 102.395 69.5023 101.356 72.6127 100.024C75.5729 98.7553 78.3921 97.2206 81.0391 95.4497C82.2866 94.6155 83.4883 93.7198 84.6555 92.7856L84.1814 92.1934Z" fill="#867800"/>
</g>
<mask id="mask9_2387_3" style="mask-type:luminance" maskUnits="userSpaceOnUse" x="95" y="45" width="10" height="36">
<path d="M103.812 45.6262L103.059 45.7189V45.7205C103.319 47.813 103.456 49.944 103.456 52.1078C103.456 55.5446 103.116 58.9011 102.472 62.1484C101.851 65.2801 100.947 68.3076 99.7842 71.208C98.5219 74.3561 96.956 77.35 95.122 80.1569L95.0522 80.2611L95.6871 80.6761L95.7585 80.5703C97.618 77.7233 99.2076 74.6859 100.488 71.4894C101.668 68.548 102.586 65.4745 103.215 62.2969C103.869 59.002 104.215 55.5938 104.215 52.1078C104.215 49.912 104.076 47.749 103.812 45.6262Z" fill="white"/>
</mask>
<g mask="url(#mask9_2387_3)">
<path d="M103.812 45.6262L103.059 45.7189V45.7205C103.319 47.813 103.456 49.944 103.456 52.1078C103.456 55.5446 103.116 58.9011 102.472 62.1484C101.851 65.2801 100.947 68.3076 99.7842 71.208C98.5219 74.3561 96.956 77.35 95.122 80.1569L95.0522 80.2611L95.6871 80.6761L95.7585 80.5703C97.618 77.7233 99.2076 74.6859 100.488 71.4894C101.668 68.548 102.586 65.4745 103.215 62.2969C103.869 59.002 104.215 55.5938 104.215 52.1078C104.215 49.912 104.076 47.749 103.812 45.6262Z" fill="#867800"/>
</g>
<mask id="mask10_2387_3" style="mask-type:luminance" maskUnits="userSpaceOnUse" x="77" y="7" width="23" height="24">
<path d="M77.96 7.73667C78.7047 8.17058 79.4364 8.62254 80.1558 9.09172C83.139 11.0414 85.9081 13.2897 88.4165 15.7981C90.796 18.1776 92.9401 20.7901 94.8177 23.597C96.2236 25.6968 97.4695 27.9123 98.5572 30.2164L99.2429 29.8932C98.1388 27.5555 96.8748 25.308 95.4492 23.1754C93.5438 20.3275 91.3669 17.6756 88.9529 15.2624C86.4069 12.7156 83.5967 10.4345 80.57 8.45767C79.84 7.98029 79.0968 7.52177 78.3422 7.0813L77.96 7.73667Z" fill="white"/>
</mask>
<g mask="url(#mask10_2387_3)">
<path d="M77.96 7.73667C78.7047 8.17058 79.4364 8.62254 80.1558 9.09172C83.139 11.0414 85.9081 13.2897 88.4165 15.7981C90.796 18.1776 92.9401 20.7901 94.8177 23.597C96.2236 25.6968 97.4695 27.9123 98.5572 30.2164L99.2429 29.8932C98.1388 27.5555 96.8748 25.308 95.4492 23.1754C93.5438 20.3275 91.3669 17.6756 88.9529 15.2624C86.4069 12.7156 83.5967 10.4345 80.57 8.45767C79.84 7.98029 79.0968 7.52177 78.3422 7.0813L77.96 7.73667Z" fill="#867800"/>
</g>
<mask id="mask11_2387_3" style="mask-type:luminance" maskUnits="userSpaceOnUse" x="19" y="0" width="45" height="13">
<path d="M20.0323 12.0226C21.1836 11.1007 22.3674 10.2197 23.5956 9.39784C26.205 7.65154 28.983 6.13982 31.8996 4.88977C34.965 3.57655 38.1834 2.55207 41.5225 1.85404C44.9377 1.13796 48.4782 0.758198 52.1071 0.758198C55.5432 0.758198 58.9005 1.09942 62.1484 1.74332C62.4015 1.79335 62.6534 1.84748 62.9066 1.90244L63.0658 1.16011C62.8104 1.10597 62.5541 1.04938 62.2968 0.998525C59.0005 0.346429 55.5945 0.000291522 52.1071 0.000291522C48.4247 0.000291522 44.8319 0.38499 41.3661 1.11091C37.9784 1.82042 34.7118 2.85966 31.6016 4.19256C28.6404 5.46148 25.8221 6.99616 23.1739 8.76708C21.9279 9.59963 20.726 10.4953 19.5581 11.4312L20.0323 12.0226Z" fill="white"/>
</mask>
<g mask="url(#mask11_2387_3)">
<path d="M20.0323 12.0226C21.1836 11.1007 22.3674 10.2197 23.5956 9.39784C26.205 7.65154 28.983 6.13982 31.8996 4.88977C34.965 3.57655 38.1834 2.55207 41.5225 1.85404C44.9377 1.13796 48.4782 0.758198 52.1071 0.758198C55.5432 0.758198 58.9005 1.09942 62.1484 1.74332C62.4015 1.79335 62.6534 1.84748 62.9066 1.90244L63.0658 1.16011C62.8104 1.10597 62.5541 1.04938 62.2968 0.998525C59.0005 0.346429 55.5945 0.000291522 52.1071 0.000291522C48.4247 0.000291522 44.8319 0.38499 41.3661 1.11091C37.9784 1.82042 34.7118 2.85966 31.6016 4.19256C28.6404 5.46148 25.8221 6.99616 23.1739 8.76708C21.9279 9.59963 20.726 10.4953 19.5581 11.4312L20.0323 12.0226Z" fill="#867800"/>
</g>
<mask id="mask12_2387_3" style="mask-type:luminance" maskUnits="userSpaceOnUse" x="8" y="11" width="13" height="13">
<path d="M15.7982 15.7981C17.1359 14.4603 18.5547 13.2061 20.033 12.0225L19.5588 11.4311C18.0597 12.6303 16.6191 13.905 15.2621 15.2625C12.7457 17.7782 10.49 20.5531 8.52881 23.5396L9.16253 23.9555C11.0955 21.0124 13.3192 18.2777 15.7982 15.7981Z" fill="white"/>
</mask>
<g mask="url(#mask12_2387_3)">
<path d="M15.7982 15.7981C17.1359 14.4603 18.5547 13.2061 20.033 12.0225L19.5588 11.4311C18.0597 12.6303 16.6191 13.905 15.2621 15.2625C12.7457 17.7782 10.49 20.5531 8.52881 23.5396L9.16253 23.9555C11.0955 21.0124 13.3192 18.2777 15.7982 15.7981Z" fill="#D5D5D5"/>
</g>
<path d="M61.0576 96.0236C61.0576 94.8506 62.0086 93.9008 63.1812 93.9008C64.3546 93.9008 65.3056 94.8506 65.3056 96.0236C65.3056 97.1957 64.3546 98.1464 63.1812 98.1464C62.0086 98.1464 61.0576 97.1957 61.0576 96.0236Z" fill="black" fill-opacity="0.3"/>
<path d="M39.5166 8.19106C39.5166 7.01893 40.4673 6.06745 41.6409 6.06745C42.8136 6.06745 43.7646 7.01893 43.7646 8.19106C43.7646 9.36401 42.8136 10.3163 41.6409 10.3163C40.4673 10.3163 39.5166 9.36401 39.5166 8.19106Z" fill="black" fill-opacity="0.3"/>
<path d="M5.53711 44.1423C5.53711 42.9701 6.4881 42.0203 7.66073 42.0203C8.83311 42.0203 9.78508 42.9701 9.78508 44.1423C9.78508 45.3168 8.83311 46.2675 7.66073 46.2675C6.4881 46.2675 5.53711 45.3168 5.53711 44.1423Z" fill="black" fill-opacity="0.3"/>
<path d="M17.3691 83.4331C17.3691 82.2602 18.3205 81.3087 19.4931 81.3087C20.6658 81.3087 21.6168 82.2602 21.6168 83.4331C21.6168 84.6061 20.6658 85.5575 19.4931 85.5575C18.3205 85.5575 17.3691 84.6061 17.3691 83.4331Z" fill="black" fill-opacity="0.3"/>
<path d="M93.8247 62.499C93.8247 61.3268 94.7754 60.3753 95.9483 60.3753C97.1213 60.3753 98.0719 61.3268 98.0719 62.499C98.0719 63.6719 97.1213 64.6217 95.9483 64.6217C94.7754 64.6217 93.8247 63.6719 93.8247 62.499Z" fill="black" fill-opacity="0.3"/>
<path d="M83.3569 21.9958C83.3569 20.8236 84.3084 19.8722 85.4806 19.8722C86.6535 19.8722 87.605 20.8236 87.605 21.9958C87.605 23.1687 86.6535 24.1186 85.4806 24.1186C84.3084 24.1186 83.3569 23.1687 83.3569 21.9958Z" fill="black" fill-opacity="0.3"/>
<mask id="mask13_2387_3" style="mask-type:luminance" maskUnits="userSpaceOnUse" x="17" y="17" width="70" height="70">
<path d="M25.4545 74.2432C25.7355 74.5794 26.0216 74.9131 26.3169 75.2427C26.0222 74.9131 25.7355 74.5794 25.4545 74.2432ZM24.5644 73.1177C24.7239 73.3256 24.8856 73.5351 25.0496 73.7396C24.8856 73.5334 24.7239 73.3256 24.5644 73.1177ZM23.8978 72.212C23.9598 72.2973 24.0199 72.3869 24.0826 72.4739C24.0199 72.3869 23.9598 72.299 23.8978 72.212ZM73.5723 24.9182C73.3543 24.7467 73.1347 24.5786 72.9141 24.413C73.1355 24.5786 73.3543 24.7467 73.5723 24.9182ZM78.7592 29.9742C78.4796 29.6379 78.194 29.3042 77.8999 28.9755C78.194 29.3042 78.4804 29.6362 78.7592 29.9742ZM81.1317 71.0333C82.3889 69.1078 83.4349 67.0826 84.268 64.9914C85.0622 63.005 85.6646 60.9586 86.0753 58.881C86.5172 56.6462 86.7411 54.3777 86.7411 52.1082C86.7411 49.7146 86.4867 47.3227 85.9958 44.9713C85.532 42.7585 84.8527 40.5837 83.9546 38.4799C83.1282 36.5408 82.1211 34.6609 80.9264 32.8705C80.6476 32.4548 80.3552 32.0434 80.0578 31.6361C79.9666 31.5102 79.8703 31.3869 79.7765 31.2618C79.5576 30.9712 79.3338 30.6839 79.1048 30.3983C79.0009 30.2699 78.8986 30.1389 78.793 30.0122C78.499 29.659 78.2007 29.3092 77.8915 28.9662L77.7859 28.8437C77.4065 28.4246 77.0136 28.0123 76.6089 27.6059C76.1806 27.1792 75.7446 26.7652 75.3002 26.3656L75.2993 26.3639L75.1886 26.2692C74.8194 25.9397 74.4434 25.6195 74.0632 25.3094C73.9289 25.1987 73.7928 25.0898 73.656 24.9825C73.3535 24.7417 73.0493 24.5085 72.7418 24.2795C72.6091 24.1823 72.4756 24.0818 72.3421 23.9855C71.9095 23.6754 71.4753 23.3721 71.0325 23.0831C69.1061 21.8259 67.0811 20.7807 64.9907 19.9459C63.0034 19.1534 60.9566 18.5519 58.8789 18.1404C56.6453 17.6985 54.3765 17.4746 52.1074 17.4746C49.7136 17.4746 47.3219 17.7281 44.9703 18.2198C42.7571 18.682 40.583 19.3638 38.4784 20.2611C36.5394 21.0883 34.6604 22.0946 32.87 23.2893C31.0118 24.5321 29.2455 25.9676 27.6058 27.6059C25.8757 29.338 24.3703 31.2086 23.0825 33.1823C21.8257 35.1095 20.7805 37.1348 19.9465 39.2234C19.1524 41.2123 18.551 43.2587 18.1391 45.3363C17.6985 47.5711 17.4741 49.838 17.4741 52.1082C17.4741 54.5019 17.7286 56.8938 18.2194 59.246C18.6821 61.4588 19.3623 63.6319 20.26 65.7374C21.0864 67.6757 22.0931 69.5547 23.2895 71.3451C23.5671 71.7625 23.8592 72.1723 24.1579 72.5795C24.2499 72.7054 24.3443 72.8288 24.438 72.9538C24.6569 73.2445 24.8813 73.5334 25.1117 73.819C25.2147 73.9474 25.3169 74.0767 25.4219 74.2034C25.7153 74.5583 26.016 74.9081 26.3252 75.2528C26.7388 75.7133 27.1645 76.167 27.6058 76.6097C29.3369 78.3401 31.2072 79.8457 33.1812 81.1325C35.1083 82.3898 37.1324 83.4349 39.2232 84.2697C41.2111 85.0622 43.257 85.6638 45.3346 86.0753C47.5694 86.5171 49.8381 86.7419 52.1074 86.7419C54.501 86.7419 56.8927 86.4876 59.2443 85.9958C61.4576 85.5336 63.6326 84.8518 65.7362 83.9545C67.6752 83.1274 69.5548 82.1228 71.3443 80.9264C73.2039 79.6852 74.969 78.248 76.6089 76.6097C78.3393 74.8785 79.8449 73.007 81.1317 71.0333Z" fill="white"/>
</mask>
<g mask="url(#mask13_2387_3)">
<path d="M25.4545 74.2432C25.7355 74.5794 26.0216 74.9131 26.3169 75.2427C26.0222 74.9131 25.7355 74.5794 25.4545 74.2432ZM24.5644 73.1177C24.7239 73.3256 24.8856 73.5351 25.0496 73.7396C24.8856 73.5334 24.7239 73.3256 24.5644 73.1177ZM23.8978 72.212C23.9598 72.2973 24.0199 72.3869 24.0826 72.4739C24.0199 72.3869 23.9598 72.299 23.8978 72.212ZM73.5723 24.9182C73.3543 24.7467 73.1347 24.5786 72.9141 24.413C73.1355 24.5786 73.3543 24.7467 73.5723 24.9182ZM78.7592 29.9742C78.4796 29.6379 78.194 29.3042 77.8999 28.9755C78.194 29.3042 78.4804 29.6362 78.7592 29.9742ZM81.1317 71.0333C82.3889 69.1078 83.4349 67.0826 84.268 64.9914C85.0622 63.005 85.6646 60.9586 86.0753 58.881C86.5172 56.6462 86.7411 54.3777 86.7411 52.1082C86.7411 49.7146 86.4867 47.3227 85.9958 44.9713C85.532 42.7585 84.8527 40.5837 83.9546 38.4799C83.1282 36.5408 82.1211 34.6609 80.9264 32.8705C80.6476 32.4548 80.3552 32.0434 80.0578 31.6361C79.9666 31.5102 79.8703 31.3869 79.7765 31.2618C79.5576 30.9712 79.3338 30.6839 79.1048 30.3983C79.0009 30.2699 78.8986 30.1389 78.793 30.0122C78.499 29.659 78.2007 29.3092 77.8915 28.9662L77.7859 28.8437C77.4065 28.4246 77.0136 28.0123 76.6089 27.6059C76.1806 27.1792 75.7446 26.7652 75.3002 26.3656L75.2993 26.3639L75.1886 26.2692C74.8194 25.9397 74.4434 25.6195 74.0632 25.3094C73.9289 25.1987 73.7928 25.0898 73.656 24.9825C73.3535 24.7417 73.0493 24.5085 72.7418 24.2795C72.6091 24.1823 72.4756 24.0818 72.3421 23.9855C71.9095 23.6754 71.4753 23.3721 71.0325 23.0831C69.1061 21.8259 67.0811 20.7807 64.9907 19.9459C63.0034 19.1534 60.9566 18.5519 58.8789 18.1404C56.6453 17.6985 54.3765 17.4746 52.1074 17.4746C49.7136 17.4746 47.3219 17.7281 44.9703 18.2198C42.7571 18.682 40.583 19.3638 38.4784 20.2611C36.5394 21.0883 34.6604 22.0946 32.87 23.2893C31.0118 24.5321 29.2455 25.9676 27.6058 27.6059C25.8757 29.338 24.3703 31.2086 23.0825 33.1823C21.8257 35.1095 20.7805 37.1348 19.9465 39.2234C19.1524 41.2123 18.551 43.2587 18.1391 45.3363C17.6985 47.5711 17.4741 49.838 17.4741 52.1082C17.4741 54.5019 17.7286 56.8938 18.2194 59.246C18.6821 61.4588 19.3623 63.6319 20.26 65.7374C21.0864 67.6757 22.0931 69.5547 23.2895 71.3451C23.5671 71.7625 23.8592 72.1723 24.1579 72.5795C24.2499 72.7054 24.3443 72.8288 24.438 72.9538C24.6569 73.2445 24.8813 73.5334 25.1117 73.819C25.2147 73.9474 25.3169 74.0767 25.4219 74.2034C25.7153 74.5583 26.016 74.9081 26.3252 75.2528C26.7388 75.7133 27.1645 76.167 27.6058 76.6097C29.3369 78.3401 31.2072 79.8457 33.1812 81.1325C35.1083 82.3898 37.1324 83.4349 39.2232 84.2697C41.2111 85.0622 43.257 85.6638 45.3346 86.0753C47.5694 86.5171 49.8381 86.7419 52.1074 86.7419C54.501 86.7419 56.8927 86.4876 59.2443 85.9958C61.4576 85.5336 63.6326 84.8518 65.7362 83.9545C67.6752 83.1274 69.5548 82.1228 71.3443 80.9264C73.2039 79.6852 74.969 78.248 76.6089 76.6097C78.3393 74.8785 79.8449 73.007 81.1317 71.0333Z" fill="#867800"/>
</g>
<path d="M48.8835 84.6918C49.2978 84.7304 49.715 84.7624 50.1335 84.7845C49.715 84.7607 49.2978 84.7304 48.8835 84.6918ZM47.5292 84.5327C47.7765 84.5663 48.0252 84.5983 48.2735 84.6262C48.0252 84.5967 47.7765 84.5663 47.5292 84.5327ZM46.4728 84.3728C46.5728 84.3883 46.6721 84.408 46.7721 84.4252C46.6721 84.408 46.5728 84.39 46.4728 84.3728ZM46.4905 19.4568C46.3885 19.4741 46.2892 19.4946 46.1873 19.5126C46.2892 19.4946 46.3892 19.4741 46.4905 19.4568ZM54.9525 19.146C54.5391 19.1066 54.1239 19.0746 53.7057 19.0508C54.1239 19.0746 54.5391 19.105 54.9525 19.146ZM84.1292 45.1338C83.6797 42.9946 83.0219 40.9333 82.1778 38.9672C81.3756 37.0995 80.4053 35.3212 79.2856 33.6487C78.0823 31.8516 76.7084 30.1775 75.1844 28.6518C73.5759 27.0449 71.7984 25.6087 69.8881 24.3586C68.0909 23.1824 66.1732 22.18 64.1562 21.3688C62.2975 20.6208 60.3606 20.0351 58.3542 19.6357C57.8874 19.543 57.4164 19.4626 56.9421 19.3904C56.796 19.3666 56.6486 19.3477 56.5013 19.3264C56.1595 19.2788 55.8156 19.2354 55.4695 19.1985C55.3145 19.1804 55.1575 19.1632 55.0011 19.1493C54.5676 19.1082 54.1302 19.0746 53.6922 19.0508L53.5411 19.0402C53.0034 19.0139 52.4625 19 51.9181 19C51.3443 19 50.7727 19.0156 50.2056 19.0443H50.2036L50.0653 19.0541C49.5958 19.0812 49.129 19.1197 48.6645 19.1648C48.4994 19.1821 48.336 19.2017 48.171 19.2206C47.807 19.2624 47.4449 19.3092 47.0855 19.3633C46.93 19.3855 46.774 19.4084 46.6193 19.4339C46.1204 19.5143 45.6244 19.6037 45.1335 19.7062C42.9945 20.1565 40.933 20.8143 38.9685 21.6576C37.0999 22.4606 35.321 23.4309 33.6491 24.5506C31.8506 25.7539 30.1768 27.1286 28.6513 28.6518C27.0445 30.2603 25.6085 32.037 24.3588 33.9481C23.1829 35.7445 22.1794 37.663 21.3685 39.6792C20.6223 41.537 20.0356 43.4761 19.637 45.4816C19.2217 47.5642 19 49.7157 19 51.9181C19 54.2427 19.2457 56.5115 19.7071 58.7015C20.1567 60.8399 20.8141 62.9036 21.6584 64.8681C22.461 66.7358 23.4306 68.5158 24.5501 70.1866C25.7552 71.9838 27.1282 73.6595 28.6533 75.1835C30.2608 76.792 32.0381 78.2275 33.9478 79.4767C35.7456 80.653 37.6629 81.6553 39.6798 82.4682C41.5376 83.2146 43.4761 83.801 45.4825 84.1997C45.9486 84.2924 46.4206 84.3728 46.8941 84.4466C47.0406 84.4687 47.188 84.4884 47.3348 84.5089C47.6772 84.5573 48.022 84.6 48.3677 84.6369C48.5235 84.6549 48.6785 84.6722 48.8355 84.6869C49.2696 84.7288 49.707 84.7624 50.147 84.7845C50.7333 84.8165 51.3234 84.8354 51.9181 84.8354C54.2434 84.8354 56.5113 84.591 58.7019 84.1292C60.8406 83.6788 62.903 83.0218 64.8675 82.1778C66.7351 81.3756 68.515 80.4061 70.1858 79.2864C71.9846 78.0815 73.6596 76.7084 75.1844 75.1835C76.7913 73.5767 78.2275 71.7984 79.4768 69.8889C80.653 68.0909 81.657 66.174 82.4674 64.157C83.2138 62.2983 83.8011 60.3601 84.2006 58.3537C84.6148 56.2711 84.8371 54.1196 84.8371 51.9181C84.8371 49.5919 84.5902 47.3239 84.1292 45.1338Z" fill="white"/>
<path d="M87.9717 51.9831C87.9717 71.8589 71.8592 87.9714 51.9834 87.9714C32.1076 87.9714 15.9951 71.8589 15.9951 51.9831C15.9951 32.1073 32.1076 15.9948 51.9834 15.9948C71.8592 15.9948 87.9717 32.1073 87.9717 51.9831ZM17.9751 51.9831C17.9751 70.7654 33.2012 85.9914 51.9834 85.9914C70.7657 85.9914 85.9917 70.7654 85.9917 51.9831C85.9917 33.2008 70.7657 17.9748 51.9834 17.9748C33.2012 17.9748 17.9751 33.2008 17.9751 51.9831Z" fill="white"/>
<rect x="88.998" y="80.9999" width="4" height="4" transform="rotate(88.188 88.998 80.9999)" fill="#F7CE41"/>
<rect x="18.998" y="17.9999" width="4" height="4" transform="rotate(88.188 18.998 17.9999)" fill="#F7CE41"/>
<rect x="70.0889" y="5.42668" width="4" height="4" transform="rotate(66.2837 70.0889 5.42668)" fill="#F7CE41"/>
<rect x="35.6621" y="92.9999" width="4" height="4" transform="rotate(66.2837 35.6621 92.9999)" fill="#F7CE41"/>
<rect x="5.83447" y="62.9999" width="4" height="4" transform="rotate(27.2993 5.83447 62.9999)" fill="#F7CE41"/>
<rect x="96.8345" y="35.9999" width="4" height="4" transform="rotate(27.2993 96.8345 35.9999)" fill="#F7CE41"/>
<defs>
<radialGradient id="paint0_radial_2387_3" cx="0" cy="0" r="1" gradientUnits="userSpaceOnUse" gradientTransform="translate(52.1076 52.1074) rotate(90) scale(52.1074 52.1076)">
<stop stop-color="#FFE207"/>
<stop offset="1" stop-color="#AB8C00"/>
</radialGradient>
</defs>
</svg>
